<svg width="1440" height="672" viewBox="0 0 1440 672" fill="none" xmlns="http://www.w3.org/2000/svg">
<path d="M0 11.2432C0 11.2432 263 0 688 0C1113 0 1440 11.2432 1440 11.2432V672C1440 672 1381 672 942 672C503 672 0 672 0 672V11.2432Z" fill="#EFF5FB"/>
<path d="M0 11.2432C0 11.2432 263 0 688 0C1113 0 1440 11.2432 1440 11.2432V672C1440 672 1381 672 942 672C503 672 0 672 0 672V11.2432Z" fill="url(#paint0_linear_4492_2127)"/>
<defs>
<linearGradient id="paint0_linear_4492_2127" x1="720" y1="281.899" x2="720" y2="472.216" gradientUnits="userSpaceOnUse">
<stop stop-color="white" stop-opacity="0"/>
<stop offset="1" stop-color="white"/>
</linearGradient>
</defs>
</svg>
