<svg width="690" height="162" viewBox="0 0 690 162" fill="none" xmlns="http://www.w3.org/2000/svg">
<rect width="690" height="162" rx="16" fill="#F3F7FE"/>
<path opacity="0.06" d="M44.4354 39.3529C45.8727 40.2941 46.9664 41.5 47.7163 42.9706C48.4662 44.3824 48.8412 45.9706 48.8412 47.7353C48.8412 51.3824 47.5601 54.3529 44.9978 56.6471C42.4356 58.8824 39.2797 60 35.5301 60C32.0929 60 29.312 59.0294 27.1872 57.0882C25.0624 55.1471 24 52.6176 24 49.5C24 47.9118 24.3125 46.3824 24.9374 44.9118C25.5623 43.4412 26.7185 41.5588 28.4058 39.2647L39.4672 24H52.5908L44.4354 39.3529ZM71.6201 39.3529C73.0574 40.2941 74.1511 41.5 74.901 42.9706C75.6509 44.3824 76.0259 45.9706 76.0259 47.7353C76.0259 51.3824 74.7448 54.3529 72.1825 56.6471C69.6203 58.8824 66.4644 60 62.7148 60C59.2776 60 56.4967 59.0294 54.3719 57.0882C52.2471 55.1471 51.1847 52.6176 51.1847 49.5C51.1847 47.9118 51.4972 46.3824 52.1221 44.9118C52.747 43.4412 53.9032 41.5588 55.5905 39.2647L66.6519 24H79.7755L71.6201 39.3529Z" fill="#333333"/>
<path d="M38.928 40.8L36.688 52H35.552L37.328 43.12L31.536 50.576H30.976L27.984 42.976L26.192 52H25.056L27.296 40.8H28.256L31.488 49.12L37.888 40.8H38.928ZM50.0463 43.584H51.1823L49.5023 52H48.3663L50.0463 43.584ZM44.7183 46.544C46.6063 46.544 47.5503 47.296 47.5503 48.8C47.5503 49.44 47.3849 50.0053 47.0543 50.496C46.7343 50.976 46.2756 51.3493 45.6783 51.616C45.0916 51.872 44.4089 52 43.6302 52H40.1743L41.8543 43.616H42.9903L42.4143 46.544H44.7183ZM43.6302 51.136C44.4623 51.136 45.1343 50.9333 45.6463 50.528C46.1583 50.112 46.4143 49.568 46.4143 48.896C46.4143 48.3947 46.2436 48.0213 45.9023 47.776C45.5716 47.52 45.0649 47.392 44.3823 47.392H42.2383L41.5023 51.136H43.6302ZM61.6446 47.648C62.178 47.7867 62.5833 48.0107 62.8606 48.32C63.138 48.6187 63.2766 48.992 63.2766 49.44C63.2766 49.9413 63.1006 50.3947 62.7486 50.8C62.4073 51.2053 61.9273 51.5253 61.3086 51.76C60.7006 51.984 60.018 52.096 59.2606 52.096C57.9486 52.096 56.8766 51.7387 56.0446 51.024L56.5246 50.224C56.834 50.512 57.2286 50.7307 57.7086 50.88C58.1886 51.0293 58.7113 51.104 59.2766 51.104C59.8206 51.104 60.3113 51.0293 60.7486 50.88C61.186 50.7307 61.5273 50.5227 61.7726 50.256C62.018 49.9893 62.1406 49.6907 62.1406 49.36C62.1406 48.9547 61.9593 48.64 61.5966 48.416C61.2446 48.192 60.754 48.08 60.1246 48.08H58.7326L58.8606 47.216H60.0606C60.786 47.216 61.3673 47.0827 61.8046 46.816C62.2526 46.5493 62.4766 46.1973 62.4766 45.76C62.4766 45.3547 62.3006 45.04 61.9486 44.816C61.5966 44.592 61.1113 44.48 60.4926 44.48C59.6926 44.48 58.802 44.7093 57.8206 45.168L57.5006 44.224C58.5246 43.7333 59.554 43.488 60.5886 43.488C61.506 43.488 62.242 43.68 62.7966 44.064C63.362 44.4373 63.6446 44.944 63.6446 45.584C63.6446 46.0747 63.4686 46.5013 63.1166 46.864C62.7646 47.2267 62.274 47.488 61.6446 47.648ZM66.9949 43.584H68.1309L67.3949 47.312H72.6749L73.4269 43.584H74.5629L72.8829 52H71.7469L72.4829 48.288H67.2029L66.4509 52H65.3149L66.9949 43.584ZM85.5841 43.584L83.9041 52H82.8161L83.0881 50.672C82.6828 51.12 82.2028 51.4667 81.6481 51.712C81.0935 51.9573 80.4801 52.08 79.8081 52.08C79.0935 52.08 78.4588 51.936 77.9041 51.648C77.3495 51.36 76.9175 50.9493 76.6081 50.416C76.2988 49.872 76.1441 49.2373 76.1441 48.512C76.1441 47.5627 76.3468 46.7093 76.7521 45.952C77.1681 45.1947 77.7388 44.6027 78.4641 44.176C79.1895 43.7387 80.0001 43.52 80.8961 43.52C81.6961 43.52 82.3681 43.68 82.9121 44C83.4561 44.3093 83.8508 44.7573 84.0961 45.344L84.4481 43.584H85.5841ZM80.0481 51.072C80.7415 51.072 81.3655 50.9067 81.9201 50.576C82.4748 50.2347 82.9068 49.7653 83.2161 49.168C83.5361 48.56 83.6961 47.8827 83.6961 47.136C83.6961 46.3147 83.4508 45.6747 82.9601 45.216C82.4801 44.7467 81.8028 44.512 80.9281 44.512C80.2348 44.512 79.6108 44.6827 79.0561 45.024C78.5015 45.3653 78.0641 45.84 77.7441 46.448C77.4348 47.0453 77.2801 47.7173 77.2801 48.464C77.2801 49.2853 77.5201 49.9253 78.0001 50.384C78.4908 50.8427 79.1735 51.072 80.0481 51.072ZM88.3114 48.112C88.3007 48.1867 88.2954 48.2987 88.2954 48.448C88.2954 49.3013 88.5354 49.952 89.0154 50.4C89.506 50.848 90.2314 51.072 91.1914 51.072C91.746 51.072 92.2634 50.9813 92.7434 50.8C93.234 50.608 93.634 50.3467 93.9434 50.016L94.4554 50.832C94.0607 51.2267 93.5647 51.536 92.9674 51.76C92.3807 51.9733 91.7567 52.08 91.0954 52.08C89.8794 52.08 88.9194 51.76 88.2154 51.12C87.522 50.48 87.1754 49.6053 87.1754 48.496C87.1754 47.5573 87.3727 46.7093 87.7674 45.952C88.1727 45.1947 88.7274 44.6027 89.4314 44.176C90.146 43.7387 90.946 43.52 91.8314 43.52C92.9514 43.52 93.842 43.84 94.5034 44.48C95.1647 45.1093 95.4954 45.9787 95.4954 47.088C95.4954 47.3973 95.458 47.7387 95.3834 48.112H88.3114ZM91.7994 44.48C90.9567 44.48 90.2367 44.7307 89.6394 45.232C89.042 45.7333 88.6367 46.4107 88.4234 47.264H94.4234C94.434 47.1893 94.4394 47.088 94.4394 46.96C94.4394 46.1707 94.1994 45.5627 93.7194 45.136C93.2394 44.6987 92.5994 44.48 91.7994 44.48ZM108.184 43.584L106.504 52H105.464L106.792 45.344L102.264 50.976H101.752L99.4801 45.28L98.1361 52H97.0961L98.7761 43.584H99.9121L102.264 49.648L107.112 43.584H108.184ZM110.009 50.336C110.244 50.336 110.436 50.416 110.585 50.576C110.745 50.736 110.825 50.9333 110.825 51.168C110.825 51.3067 110.798 51.4347 110.745 51.552C110.702 51.6693 110.628 51.824 110.521 52.016L109.305 54.336H108.537L109.561 51.984C109.422 51.92 109.31 51.824 109.225 51.696C109.15 51.5573 109.113 51.408 109.113 51.248C109.113 50.992 109.198 50.7787 109.369 50.608C109.55 50.4267 109.764 50.336 110.009 50.336ZM125.331 43.584L123.651 52H122.515L123.203 48.528C122.179 48.9333 121.209 49.136 120.291 49.136C119.406 49.136 118.713 48.96 118.211 48.608C117.721 48.2453 117.475 47.7173 117.475 47.024C117.475 46.8427 117.502 46.608 117.555 46.32L118.099 43.584H119.235L118.691 46.336C118.659 46.496 118.643 46.6507 118.643 46.8C118.643 47.2693 118.809 47.6213 119.139 47.856C119.47 48.0907 119.934 48.208 120.531 48.208C121.385 48.208 122.345 47.984 123.411 47.536L124.195 43.584H125.331ZM134.27 44.592H131.07L129.598 52H128.462L129.934 44.592H126.766L126.958 43.584H134.478L134.27 44.592ZM137.89 52.08C137.122 52.08 136.45 51.936 135.874 51.648C135.298 51.3493 134.85 50.9333 134.53 50.4C134.22 49.856 134.066 49.2267 134.066 48.512C134.066 47.5627 134.274 46.7093 134.69 45.952C135.106 45.1947 135.682 44.6027 136.418 44.176C137.164 43.7387 138.002 43.52 138.93 43.52C140.103 43.52 141.031 43.84 141.714 44.48C142.407 45.12 142.754 45.984 142.754 47.072C142.754 48.0213 142.546 48.88 142.13 49.648C141.714 50.4053 141.132 51.0027 140.386 51.44C139.65 51.8667 138.818 52.08 137.89 52.08ZM137.97 51.072C138.663 51.072 139.287 50.9067 139.842 50.576C140.396 50.2347 140.828 49.7653 141.138 49.168C141.458 48.56 141.618 47.8827 141.618 47.136C141.618 46.3147 141.372 45.6747 140.882 45.216C140.402 44.7467 139.724 44.512 138.85 44.512C138.156 44.512 137.532 44.6827 136.978 45.024C136.423 45.3653 135.986 45.84 135.666 46.448C135.356 47.0453 135.202 47.7173 135.202 48.464C135.202 49.2853 135.442 49.9253 135.922 50.384C136.412 50.8427 137.095 51.072 137.97 51.072ZM150.198 43.584H151.334L150.598 47.312H155.878L156.63 43.584H157.766L156.086 52H154.95L155.686 48.288H150.406L149.654 52H148.518L150.198 43.584ZM168.083 43.584L161.939 53.088C161.427 53.8773 160.947 54.4213 160.499 54.72C160.051 55.0293 159.518 55.184 158.899 55.184C158.494 55.184 158.11 55.1147 157.747 54.976C157.385 54.848 157.102 54.6667 156.899 54.432L157.507 53.6C157.891 54.0053 158.387 54.208 158.995 54.208C159.369 54.208 159.705 54.1067 160.003 53.904C160.302 53.7013 160.611 53.3493 160.931 52.848L161.523 51.952L159.427 43.584H160.579L162.323 50.752L166.915 43.584H168.083ZM176.873 47.76L179.065 52H177.737L175.881 48.224H174.073L173.305 52H172.169L172.921 48.224H171.145L167.817 52H166.393L170.313 47.632L168.345 43.584H169.545L171.289 47.296H173.113L173.849 43.584H175.001L174.249 47.296H176.041L179.273 43.584H180.553L176.873 47.76ZM188.075 51.008H189.387L188.795 54.032H187.723L188.123 52H180.587L180.187 54.032H179.115L179.707 51.008H180.139C180.704 50.976 181.179 50.5493 181.563 49.728C181.947 48.9067 182.32 47.7813 182.683 46.352L183.355 43.584H189.547L188.075 51.008ZM183.707 46.512C183.398 47.7387 183.099 48.72 182.811 49.456C182.523 50.192 182.166 50.7093 181.739 51.008H186.939L188.219 44.592H184.171L183.707 46.512ZM200.865 43.584L199.185 52H198.097L198.369 50.672C197.964 51.12 197.484 51.4667 196.929 51.712C196.375 51.9573 195.761 52.08 195.089 52.08C194.375 52.08 193.74 51.936 193.185 51.648C192.631 51.36 192.199 50.9493 191.889 50.416C191.58 49.872 191.425 49.2373 191.425 48.512C191.425 47.5627 191.628 46.7093 192.033 45.952C192.449 45.1947 193.02 44.6027 193.745 44.176C194.471 43.7387 195.281 43.52 196.177 43.52C196.977 43.52 197.649 43.68 198.193 44C198.737 44.3093 199.132 44.7573 199.377 45.344L199.729 43.584H200.865ZM195.329 51.072C196.023 51.072 196.647 50.9067 197.201 50.576C197.756 50.2347 198.188 49.7653 198.497 49.168C198.817 48.56 198.977 47.8827 198.977 47.136C198.977 46.3147 198.732 45.6747 198.241 45.216C197.761 44.7467 197.084 44.512 196.209 44.512C195.516 44.512 194.892 44.6827 194.337 45.024C193.783 45.3653 193.345 45.84 193.025 46.448C192.716 47.0453 192.561 47.7173 192.561 48.464C192.561 49.2853 192.801 49.9253 193.281 50.384C193.772 50.8427 194.455 51.072 195.329 51.072ZM209.817 44.592H206.617L205.145 52H204.009L205.481 44.592H202.313L202.505 43.584H210.025L209.817 44.592ZM214.579 46.544C216.467 46.544 217.411 47.296 217.411 48.8C217.411 49.44 217.246 50.0053 216.915 50.496C216.595 50.976 216.136 51.3493 215.539 51.616C214.952 51.872 214.27 52 213.491 52H209.971L211.651 43.616H212.787L212.211 46.544H214.579ZM213.491 51.136C214.323 51.136 214.995 50.9333 215.507 50.528C216.019 50.112 216.275 49.568 216.275 48.896C216.275 48.3947 216.104 48.0213 215.763 47.776C215.432 47.52 214.926 47.392 214.243 47.392H212.035L211.299 51.136H213.491ZM222.876 52.08C222.086 52.08 221.398 51.936 220.812 51.648C220.225 51.3493 219.772 50.9333 219.452 50.4C219.142 49.856 218.988 49.2267 218.988 48.512C218.988 47.5627 219.196 46.7093 219.612 45.952C220.028 45.1947 220.609 44.6027 221.356 44.176C222.102 43.7387 222.945 43.52 223.884 43.52C224.662 43.52 225.329 43.664 225.884 43.952C226.449 44.2293 226.886 44.6453 227.196 45.2L226.236 45.76C225.756 44.928 224.94 44.512 223.788 44.512C223.094 44.512 222.465 44.6827 221.9 45.024C221.345 45.3653 220.908 45.8347 220.588 46.432C220.278 47.0293 220.124 47.7067 220.124 48.464C220.124 49.2853 220.364 49.9253 220.844 50.384C221.334 50.8427 222.028 51.072 222.924 51.072C223.468 51.072 223.969 50.9707 224.428 50.768C224.897 50.5547 225.281 50.2507 225.58 49.856L226.396 50.48C226.022 50.9813 225.521 51.376 224.892 51.664C224.273 51.9413 223.601 52.08 222.876 52.08ZM236.053 43.584L234.389 52H233.349L233.909 49.168H231.317H231.013L228.501 52H227.205L229.957 48.992C228.858 48.6613 228.309 47.9307 228.309 46.8C228.309 45.7973 228.682 45.0133 229.429 44.448C230.176 43.872 231.194 43.584 232.485 43.584H236.053ZM234.821 44.576H232.405C231.477 44.576 230.757 44.768 230.245 45.152C229.733 45.536 229.477 46.08 229.477 46.784C229.477 47.8187 230.149 48.336 231.493 48.336H234.085L234.821 44.576ZM247.991 47.664C248.919 47.888 249.383 48.4587 249.383 49.376C249.383 50.1973 249.053 50.8427 248.391 51.312C247.741 51.7707 246.839 52 245.687 52H241.799L243.495 43.584H247.159C248.045 43.584 248.717 43.744 249.175 44.064C249.634 44.384 249.863 44.848 249.863 45.456C249.863 45.9893 249.698 46.448 249.367 46.832C249.037 47.216 248.578 47.4933 247.991 47.664ZM243.847 47.328H246.359C247.063 47.328 247.629 47.1733 248.055 46.864C248.493 46.5547 248.711 46.1493 248.711 45.648C248.711 44.8693 248.125 44.48 246.951 44.48H244.423L243.847 47.328ZM245.751 51.104C246.541 51.104 247.154 50.9493 247.591 50.64C248.039 50.3307 248.263 49.8987 248.263 49.344C248.263 48.928 248.125 48.6293 247.847 48.448C247.581 48.2667 247.133 48.176 246.503 48.176H243.687L243.095 51.104H245.751ZM264.953 43.584L263.273 52H262.137L263.593 44.592H258.313L256.857 52H255.721L257.401 43.584H264.953ZM270.343 52.08C269.575 52.08 268.903 51.936 268.327 51.648C267.751 51.3493 267.303 50.9333 266.983 50.4C266.673 49.856 266.519 49.2267 266.519 48.512C266.519 47.5627 266.727 46.7093 267.143 45.952C267.559 45.1947 268.135 44.6027 268.871 44.176C269.617 43.7387 270.455 43.52 271.383 43.52C272.556 43.52 273.484 43.84 274.167 44.48C274.86 45.12 275.207 45.984 275.207 47.072C275.207 48.0213 274.999 48.88 274.583 49.648C274.167 50.4053 273.585 51.0027 272.839 51.44C272.103 51.8667 271.271 52.08 270.343 52.08ZM270.423 51.072C271.116 51.072 271.74 50.9067 272.295 50.576C272.849 50.2347 273.281 49.7653 273.591 49.168C273.911 48.56 274.071 47.8827 274.071 47.136C274.071 46.3147 273.825 45.6747 273.335 45.216C272.855 44.7467 272.177 44.512 271.303 44.512C270.609 44.512 269.985 44.6827 269.431 45.024C268.876 45.3653 268.439 45.84 268.119 46.448C267.809 47.0453 267.655 47.7173 267.655 48.464C267.655 49.2853 267.895 49.9253 268.375 50.384C268.865 50.8427 269.548 51.072 270.423 51.072ZM287.872 43.584L286.192 52H285.152L286.48 45.344L281.952 50.976H281.44L279.168 45.28L277.824 52H276.784L278.464 43.584H279.6L281.952 49.648L286.8 43.584H287.872ZM293.265 52.08C292.497 52.08 291.825 51.936 291.249 51.648C290.673 51.3493 290.225 50.9333 289.905 50.4C289.595 49.856 289.441 49.2267 289.441 48.512C289.441 47.5627 289.649 46.7093 290.065 45.952C290.481 45.1947 291.057 44.6027 291.793 44.176C292.539 43.7387 293.377 43.52 294.305 43.52C295.478 43.52 296.406 43.84 297.089 44.48C297.782 45.12 298.129 45.984 298.129 47.072C298.129 48.0213 297.921 48.88 297.505 49.648C297.089 50.4053 296.507 51.0027 295.761 51.44C295.025 51.8667 294.193 52.08 293.265 52.08ZM293.345 51.072C294.038 51.072 294.662 50.9067 295.217 50.576C295.771 50.2347 296.203 49.7653 296.513 49.168C296.833 48.56 296.993 47.8827 296.993 47.136C296.993 46.3147 296.747 45.6747 296.257 45.216C295.777 44.7467 295.099 44.512 294.225 44.512C293.531 44.512 292.907 44.6827 292.353 45.024C291.798 45.3653 291.361 45.84 291.041 46.448C290.731 47.0453 290.577 47.7173 290.577 48.464C290.577 49.2853 290.817 49.9253 291.297 50.384C291.787 50.8427 292.47 51.072 293.345 51.072ZM313.018 43.584L311.322 52H299.706L301.386 43.584H302.522L301.066 51.008H305.178L306.65 43.584H307.786L306.314 51.008H310.41L311.882 43.584H313.018ZM312.81 51.008L312.234 53.84H311.162L311.53 52H310.122L310.33 51.008H312.81ZM316.542 43.584H317.678L316.318 50.384L323.23 43.584H324.318L322.638 52H321.47L322.862 45.2L315.95 52H314.846L316.542 43.584ZM331.745 43.584H332.881L331.521 50.384L338.433 43.584H339.521L337.841 52H336.673L338.065 45.2L331.153 52H330.049L331.745 43.584ZM354.484 43.584L352.804 52H351.668L353.124 44.592H347.844L346.388 52H345.252L346.932 43.584H354.484ZM359.874 52.08C359.106 52.08 358.434 51.936 357.858 51.648C357.282 51.3493 356.834 50.9333 356.514 50.4C356.205 49.856 356.05 49.2267 356.05 48.512C356.05 47.5627 356.258 46.7093 356.674 45.952C357.09 45.1947 357.666 44.6027 358.402 44.176C359.149 43.7387 359.986 43.52 360.914 43.52C362.087 43.52 363.015 43.84 363.698 44.48C364.391 45.12 364.738 45.984 364.738 47.072C364.738 48.0213 364.53 48.88 364.114 49.648C363.698 50.4053 363.117 51.0027 362.37 51.44C361.634 51.8667 360.802 52.08 359.874 52.08ZM359.954 51.072C360.647 51.072 361.271 50.9067 361.826 50.576C362.381 50.2347 362.813 49.7653 363.122 49.168C363.442 48.56 363.602 47.8827 363.602 47.136C363.602 46.3147 363.357 45.6747 362.866 45.216C362.386 44.7467 361.709 44.512 360.834 44.512C360.141 44.512 359.517 44.6827 358.962 45.024C358.407 45.3653 357.97 45.84 357.65 46.448C357.341 47.0453 357.186 47.7173 357.186 48.464C357.186 49.2853 357.426 49.9253 357.906 50.384C358.397 50.8427 359.079 51.072 359.954 51.072ZM373.372 51.008H374.684L374.092 54.032H373.02L373.42 52H365.884L365.484 54.032H364.412L365.004 51.008H365.436C366.001 50.976 366.476 50.5493 366.86 49.728C367.244 48.9067 367.617 47.7813 367.98 46.352L368.652 43.584H374.844L373.372 51.008ZM369.004 46.512C368.695 47.7387 368.396 48.72 368.108 49.456C367.82 50.192 367.463 50.7093 367.036 51.008H372.236L373.516 44.592H369.468L369.004 46.512ZM383.778 51.008H385.09L384.498 54.032H383.426L383.826 52H376.29L375.89 54.032H374.818L375.41 51.008H375.842C376.408 50.976 376.882 50.5493 377.266 49.728C377.65 48.9067 378.024 47.7813 378.386 46.352L379.058 43.584H385.25L383.778 51.008ZM379.41 46.512C379.101 47.7387 378.802 48.72 378.514 49.456C378.226 50.192 377.869 50.7093 377.442 51.008H382.642L383.922 44.592H379.874L379.41 46.512ZM388.265 48.112C388.254 48.1867 388.249 48.2987 388.249 48.448C388.249 49.3013 388.489 49.952 388.969 50.4C389.459 50.848 390.185 51.072 391.145 51.072C391.699 51.072 392.217 50.9813 392.697 50.8C393.187 50.608 393.587 50.3467 393.897 50.016L394.409 50.832C394.014 51.2267 393.518 51.536 392.921 51.76C392.334 51.9733 391.71 52.08 391.049 52.08C389.833 52.08 388.873 51.76 388.169 51.12C387.475 50.48 387.129 49.6053 387.129 48.496C387.129 47.5573 387.326 46.7093 387.721 45.952C388.126 45.1947 388.681 44.6027 389.385 44.176C390.099 43.7387 390.899 43.52 391.785 43.52C392.905 43.52 393.795 43.84 394.457 44.48C395.118 45.1093 395.449 45.9787 395.449 47.088C395.449 47.3973 395.411 47.7387 395.337 48.112H388.265ZM391.753 44.48C390.91 44.48 390.19 44.7307 389.593 45.232C388.995 45.7333 388.59 46.4107 388.377 47.264H394.377C394.387 47.1893 394.392 47.088 394.392 46.96C394.392 46.1707 394.152 45.5627 393.673 45.136C393.193 44.6987 392.553 44.48 391.753 44.48ZM402.841 43.52C403.556 43.52 404.191 43.664 404.745 43.952C405.311 44.24 405.748 44.6507 406.057 45.184C406.367 45.7173 406.521 46.3467 406.521 47.072C406.521 48.0213 406.313 48.88 405.897 49.648C405.492 50.4053 404.927 51.0027 404.201 51.44C403.476 51.8667 402.66 52.08 401.753 52.08C400.953 52.08 400.281 51.9253 399.737 51.616C399.193 51.296 398.799 50.8373 398.553 50.24L397.593 55.104H396.457L398.745 43.584H399.833L399.561 44.928C399.967 44.4693 400.447 44.1227 401.001 43.888C401.556 43.6427 402.169 43.52 402.841 43.52ZM401.737 51.072C402.431 51.072 403.049 50.9067 403.593 50.576C404.148 50.2347 404.58 49.7653 404.889 49.168C405.209 48.5707 405.369 47.8933 405.369 47.136C405.369 46.3147 405.124 45.6747 404.633 45.216C404.153 44.7467 403.476 44.512 402.601 44.512C401.908 44.512 401.284 44.6827 400.729 45.024C400.185 45.3547 399.753 45.824 399.433 46.432C399.124 47.0293 398.969 47.7067 398.969 48.464C398.969 49.2853 399.209 49.9253 399.689 50.384C400.18 50.8427 400.863 51.072 401.737 51.072ZM416.935 47.76L419.127 52H417.799L415.943 48.224H414.135L413.367 52H412.231L412.983 48.224H411.207L407.879 52H406.455L410.375 47.632L408.407 43.584H409.607L411.351 47.296H413.175L413.911 43.584H415.063L414.311 47.296H416.103L419.335 43.584H420.615L416.935 47.76ZM425.802 47.728L428.506 52H427.21L424.906 48.256H422.922L422.17 52H421.034L422.73 43.584H423.866L423.114 47.28H424.986L428.714 43.584H429.994L425.802 47.728ZM431.186 48.112C431.176 48.1867 431.17 48.2987 431.17 48.448C431.17 49.3013 431.41 49.952 431.89 50.4C432.381 50.848 433.106 51.072 434.066 51.072C434.621 51.072 435.138 50.9813 435.618 50.8C436.109 50.608 436.509 50.3467 436.818 50.016L437.33 50.832C436.936 51.2267 436.44 51.536 435.842 51.76C435.256 51.9733 434.632 52.08 433.97 52.08C432.754 52.08 431.794 51.76 431.09 51.12C430.397 50.48 430.05 49.6053 430.05 48.496C430.05 47.5573 430.248 46.7093 430.642 45.952C431.048 45.1947 431.602 44.6027 432.306 44.176C433.021 43.7387 433.821 43.52 434.706 43.52C435.826 43.52 436.717 43.84 437.378 44.48C438.04 45.1093 438.37 45.9787 438.37 47.088C438.37 47.3973 438.333 47.7387 438.258 48.112H431.186ZM434.674 44.48C433.832 44.48 433.112 44.7307 432.514 45.232C431.917 45.7333 431.512 46.4107 431.298 47.264H437.298C437.309 47.1893 437.314 47.088 437.314 46.96C437.314 46.1707 437.074 45.5627 436.594 45.136C436.114 44.6987 435.474 44.48 434.674 44.48ZM450.351 47.664C451.279 47.888 451.743 48.4587 451.743 49.376C451.743 50.1973 451.412 50.8427 450.751 51.312C450.1 51.7707 449.199 52 448.047 52H444.159L445.855 43.584H449.519C450.404 43.584 451.076 43.744 451.535 44.064C451.993 44.384 452.223 44.848 452.223 45.456C452.223 45.9893 452.057 46.448 451.727 46.832C451.396 47.216 450.937 47.4933 450.351 47.664ZM446.207 47.328H448.719C449.423 47.328 449.988 47.1733 450.415 46.864C450.852 46.5547 451.071 46.1493 451.071 45.648C451.071 44.8693 450.484 44.48 449.311 44.48H446.783L446.207 47.328ZM448.111 51.104C448.9 51.104 449.513 50.9493 449.951 50.64C450.399 50.3307 450.623 49.8987 450.623 49.344C450.623 48.928 450.484 48.6293 450.207 48.448C449.94 48.2667 449.492 48.176 448.863 48.176H446.047L445.455 51.104H448.111ZM465.489 44.592H462.289L460.817 52H459.681L461.153 44.592H457.985L458.177 43.584H465.697L465.489 44.592ZM471.435 43.52C472.15 43.52 472.784 43.664 473.339 43.952C473.904 44.24 474.342 44.6507 474.651 45.184C474.96 45.7173 475.115 46.3467 475.115 47.072C475.115 48.0213 474.907 48.88 474.491 49.648C474.086 50.4053 473.52 51.0027 472.795 51.44C472.07 51.8667 471.254 52.08 470.347 52.08C469.547 52.08 468.875 51.9253 468.331 51.616C467.787 51.296 467.392 50.8373 467.147 50.24L466.187 55.104H465.051L467.339 43.584H468.427L468.155 44.928C468.56 44.4693 469.04 44.1227 469.595 43.888C470.15 43.6427 470.763 43.52 471.435 43.52ZM470.331 51.072C471.024 51.072 471.643 50.9067 472.187 50.576C472.742 50.2347 473.174 49.7653 473.483 49.168C473.803 48.5707 473.963 47.8933 473.963 47.136C473.963 46.3147 473.718 45.6747 473.227 45.216C472.747 44.7467 472.07 44.512 471.195 44.512C470.502 44.512 469.878 44.6827 469.323 45.024C468.779 45.3547 468.347 45.824 468.027 46.432C467.718 47.0293 467.563 47.7067 467.563 48.464C467.563 49.2853 467.803 49.9253 468.283 50.384C468.774 50.8427 469.456 51.072 470.331 51.072ZM485.24 43.584L479.096 53.088C478.584 53.8773 478.104 54.4213 477.656 54.72C477.208 55.0293 476.674 55.184 476.056 55.184C475.65 55.184 475.266 55.1147 474.903 54.976C474.541 54.848 474.258 54.6667 474.055 54.432L474.663 53.6C475.047 54.0053 475.543 54.208 476.152 54.208C476.525 54.208 476.861 54.1067 477.16 53.904C477.458 53.7013 477.768 53.3493 478.088 52.848L478.68 51.952L476.584 43.584H477.736L479.48 50.752L484.072 43.584H485.24ZM492.106 51.008H493.418L492.826 54.032H491.754L492.154 52H484.618L484.218 54.032H483.146L483.738 51.008H484.17C484.736 50.976 485.21 50.5493 485.594 49.728C485.978 48.9067 486.352 47.7813 486.714 46.352L487.386 43.584H493.578L492.106 51.008ZM487.738 46.512C487.429 47.7387 487.13 48.72 486.842 49.456C486.554 50.192 486.197 50.7093 485.77 51.008H490.97L492.25 44.592H488.202L487.738 46.512ZM497.089 43.584H498.225L497.489 47.312H502.769L503.521 43.584H504.657L502.977 52H501.841L502.577 48.288H497.297L496.545 52H495.409L497.089 43.584ZM516.062 43.584H517.198L515.518 52H514.382L516.062 43.584ZM510.734 46.544C512.622 46.544 513.566 47.296 513.566 48.8C513.566 49.44 513.401 50.0053 513.07 50.496C512.75 50.976 512.291 51.3493 511.694 51.616C511.107 51.872 510.425 52 509.646 52H506.19L507.87 43.616H509.006L508.43 46.544H510.734ZM509.646 51.136C510.478 51.136 511.15 50.9333 511.662 50.528C512.174 50.112 512.43 49.568 512.43 48.896C512.43 48.3947 512.259 48.0213 511.918 47.776C511.587 47.52 511.081 47.392 510.398 47.392H508.254L507.518 51.136H509.646ZM519.921 48.112C519.91 48.1867 519.905 48.2987 519.905 48.448C519.905 49.3013 520.145 49.952 520.625 50.4C521.115 50.848 521.841 51.072 522.801 51.072C523.355 51.072 523.873 50.9813 524.353 50.8C524.843 50.608 525.243 50.3467 525.553 50.016L526.065 50.832C525.67 51.2267 525.174 51.536 524.577 51.76C523.99 51.9733 523.366 52.08 522.705 52.08C521.489 52.08 520.529 51.76 519.825 51.12C519.131 50.48 518.785 49.6053 518.785 48.496C518.785 47.5573 518.982 46.7093 519.377 45.952C519.782 45.1947 520.337 44.6027 521.041 44.176C521.755 43.7387 522.555 43.52 523.441 43.52C524.561 43.52 525.451 43.84 526.113 44.48C526.774 45.1093 527.105 45.9787 527.105 47.088C527.105 47.3973 527.067 47.7387 526.993 48.112H519.921ZM523.409 44.48C522.566 44.48 521.846 44.7307 521.249 45.232C520.651 45.7333 520.246 46.4107 520.033 47.264H526.033C526.043 47.1893 526.049 47.088 526.049 46.96C526.049 46.1707 525.809 45.5627 525.329 45.136C524.849 44.6987 524.209 44.48 523.409 44.48ZM542.125 43.584L540.445 52H539.309L540.765 44.592H535.485L534.029 52H532.893L534.573 43.584H542.125ZM544.843 48.112C544.832 48.1867 544.827 48.2987 544.827 48.448C544.827 49.3013 545.067 49.952 545.547 50.4C546.037 50.848 546.763 51.072 547.723 51.072C548.277 51.072 548.795 50.9813 549.275 50.8C549.765 50.608 550.165 50.3467 550.475 50.016L550.987 50.832C550.592 51.2267 550.096 51.536 549.499 51.76C548.912 51.9733 548.288 52.08 547.627 52.08C546.411 52.08 545.451 51.76 544.747 51.12C544.053 50.48 543.707 49.6053 543.707 48.496C543.707 47.5573 543.904 46.7093 544.299 45.952C544.704 45.1947 545.259 44.6027 545.963 44.176C546.677 43.7387 547.477 43.52 548.363 43.52C549.483 43.52 550.373 43.84 551.035 44.48C551.696 45.1093 552.027 45.9787 552.027 47.088C552.027 47.3973 551.989 47.7387 551.915 48.112H544.843ZM548.331 44.48C547.488 44.48 546.768 44.7307 546.171 45.232C545.573 45.7333 545.168 46.4107 544.955 47.264H550.955C550.965 47.1893 550.971 47.088 550.971 46.96C550.971 46.1707 550.731 45.5627 550.251 45.136C549.771 44.6987 549.131 44.48 548.331 44.48ZM559.419 43.52C560.134 43.52 560.769 43.664 561.323 43.952C561.889 44.24 562.326 44.6507 562.635 45.184C562.945 45.7173 563.099 46.3467 563.099 47.072C563.099 48.0213 562.891 48.88 562.475 49.648C562.07 50.4053 561.505 51.0027 560.779 51.44C560.054 51.8667 559.238 52.08 558.331 52.08C557.531 52.08 556.859 51.9253 556.315 51.616C555.771 51.296 555.377 50.8373 555.131 50.24L554.171 55.104H553.035L555.323 43.584H556.411L556.139 44.928C556.545 44.4693 557.025 44.1227 557.579 43.888C558.134 43.6427 558.747 43.52 559.419 43.52ZM558.315 51.072C559.009 51.072 559.627 50.9067 560.171 50.576C560.726 50.2347 561.158 49.7653 561.467 49.168C561.787 48.5707 561.947 47.8933 561.947 47.136C561.947 46.3147 561.702 45.6747 561.211 45.216C560.731 44.7467 560.054 44.512 559.179 44.512C558.486 44.512 557.862 44.6827 557.307 45.024C556.763 45.3547 556.331 45.824 556.011 46.432C555.702 47.0293 555.547 47.7067 555.547 48.464C555.547 49.2853 555.787 49.9253 556.267 50.384C556.758 50.8427 557.441 51.072 558.315 51.072ZM566.37 43.584H567.506L566.146 50.384L573.058 43.584H574.146L572.466 52H571.298L572.69 45.2L565.778 52H564.674L566.37 43.584ZM579.546 52.08C578.778 52.08 578.106 51.936 577.53 51.648C576.954 51.3493 576.506 50.9333 576.186 50.4C575.877 49.856 575.722 49.2267 575.722 48.512C575.722 47.5627 575.93 46.7093 576.346 45.952C576.762 45.1947 577.338 44.6027 578.074 44.176C578.821 43.7387 579.658 43.52 580.586 43.52C581.759 43.52 582.687 43.84 583.37 44.48C584.063 45.12 584.41 45.984 584.41 47.072C584.41 48.0213 584.202 48.88 583.786 49.648C583.37 50.4053 582.789 51.0027 582.042 51.44C581.306 51.8667 580.474 52.08 579.546 52.08ZM579.626 51.072C580.319 51.072 580.943 50.9067 581.498 50.576C582.053 50.2347 582.485 49.7653 582.794 49.168C583.114 48.56 583.274 47.8827 583.274 47.136C583.274 46.3147 583.029 45.6747 582.538 45.216C582.058 44.7467 581.381 44.512 580.506 44.512C579.813 44.512 579.189 44.6827 578.634 45.024C578.079 45.3653 577.642 45.84 577.322 46.448C577.013 47.0453 576.858 47.7173 576.858 48.464C576.858 49.2853 577.098 49.9253 577.578 50.384C578.069 50.8427 578.751 51.072 579.626 51.072ZM593.044 51.008H594.356L593.764 54.032H592.692L593.092 52H585.556L585.156 54.032H584.084L584.676 51.008H585.108C585.673 50.976 586.148 50.5493 586.532 49.728C586.916 48.9067 587.289 47.7813 587.652 46.352L588.324 43.584H594.516L593.044 51.008ZM588.676 46.512C588.367 47.7387 588.068 48.72 587.78 49.456C587.492 50.192 587.135 50.7093 586.708 51.008H591.908L593.188 44.592H589.14L588.676 46.512ZM606.218 43.584H607.354L605.674 52H604.538L606.218 43.584ZM600.89 46.544C602.778 46.544 603.722 47.296 603.722 48.8C603.722 49.44 603.557 50.0053 603.226 50.496C602.906 50.976 602.447 51.3493 601.85 51.616C601.263 51.872 600.581 52 599.802 52H596.346L598.026 43.616H599.162L598.586 46.544H600.89ZM599.802 51.136C600.634 51.136 601.306 50.9333 601.818 50.528C602.33 50.112 602.586 49.568 602.586 48.896C602.586 48.3947 602.415 48.0213 602.074 47.776C601.743 47.52 601.237 47.392 600.554 47.392H598.41L597.674 51.136H599.802ZM33.904 71.76L36.096 76H34.768L32.912 72.224H31.104L30.336 76H29.2L29.952 72.224H28.176L24.848 76H23.424L27.344 71.632L25.376 67.584H26.576L28.32 71.296H30.144L30.88 67.584H32.032L31.28 71.296H33.072L36.304 67.584H37.584L33.904 71.76ZM39.6984 67.584H40.8344L39.4744 74.384L46.3864 67.584H47.4744L45.7944 76H44.6264L46.0184 69.2L39.1064 76H38.0024L39.6984 67.584ZM53.5821 71.648C54.1155 71.7867 54.5208 72.0107 54.7981 72.32C55.0755 72.6187 55.2141 72.992 55.2141 73.44C55.2141 73.9413 55.0381 74.3947 54.6861 74.8C54.3448 75.2053 53.8648 75.5253 53.2461 75.76C52.6381 75.984 51.9555 76.096 51.1981 76.096C49.8861 76.096 48.8141 75.7387 47.9821 75.024L48.4621 74.224C48.7715 74.512 49.1661 74.7307 49.6461 74.88C50.1261 75.0293 50.6488 75.104 51.2141 75.104C51.7581 75.104 52.2488 75.0293 52.6861 74.88C53.1235 74.7307 53.4648 74.5227 53.7101 74.256C53.9555 73.9893 54.0781 73.6907 54.0781 73.36C54.0781 72.9547 53.8968 72.64 53.5341 72.416C53.1821 72.192 52.6915 72.08 52.0621 72.08H50.6701L50.7981 71.216H51.9981C52.7235 71.216 53.3048 71.0827 53.7421 70.816C54.1901 70.5493 54.4141 70.1973 54.4141 69.76C54.4141 69.3547 54.2381 69.04 53.8861 68.816C53.5341 68.592 53.0488 68.48 52.4301 68.48C51.6301 68.48 50.7395 68.7093 49.7581 69.168L49.4381 68.224C50.4621 67.7333 51.4915 67.488 52.5261 67.488C53.4435 67.488 54.1795 67.68 54.7341 68.064C55.2995 68.4373 55.5821 68.944 55.5821 69.584C55.5821 70.0747 55.4061 70.5013 55.0541 70.864C54.7021 71.2267 54.2115 71.488 53.5821 71.648ZM58.9324 67.584H60.0684L59.3324 71.312H64.6124L65.3644 67.584H66.5004L64.8204 76H63.6844L64.4204 72.288H59.1404L58.3884 76H57.2524L58.9324 67.584ZM69.7296 67.584H70.8656L69.5056 74.384L76.4176 67.584H77.5056L75.8256 76H74.6576L76.0496 69.2L69.1376 76H68.0336L69.7296 67.584ZM92.7248 67.584L91.0448 76H89.9568L90.2288 74.672C89.8234 75.12 89.3434 75.4667 88.7888 75.712C88.2341 75.9573 87.6208 76.08 86.9488 76.08C86.2341 76.08 85.5994 75.936 85.0448 75.648C84.4901 75.36 84.0581 74.9493 83.7488 74.416C83.4394 73.872 83.2848 73.2373 83.2848 72.512C83.2848 71.5627 83.4874 70.7093 83.8928 69.952C84.3088 69.1947 84.8794 68.6027 85.6048 68.176C86.3301 67.7387 87.1408 67.52 88.0368 67.52C88.8368 67.52 89.5088 67.68 90.0528 68C90.5968 68.3093 90.9914 68.7573 91.2368 69.344L91.5888 67.584H92.7248ZM87.1888 75.072C87.8821 75.072 88.5061 74.9067 89.0608 74.576C89.6154 74.2347 90.0474 73.7653 90.3568 73.168C90.6768 72.56 90.8368 71.8827 90.8368 71.136C90.8368 70.3147 90.5914 69.6747 90.1008 69.216C89.6208 68.7467 88.9434 68.512 88.0688 68.512C87.3754 68.512 86.7514 68.6827 86.1968 69.024C85.6421 69.3653 85.2048 69.84 84.8848 70.448C84.5754 71.0453 84.4208 71.7173 84.4208 72.464C84.4208 73.2853 84.6608 73.9253 85.1408 74.384C85.6314 74.8427 86.3141 75.072 87.1888 75.072ZM99.932 68.032C100.999 68.032 101.831 68.3307 102.428 68.928C103.036 69.5147 103.34 70.3253 103.34 71.36C103.34 72.256 103.127 73.0667 102.7 73.792C102.273 74.5173 101.687 75.088 100.94 75.504C100.193 75.92 99.356 76.128 98.428 76.128C97.2227 76.128 96.284 75.7707 95.612 75.056C94.9507 74.3413 94.62 73.3173 94.62 71.984C94.62 70.8213 94.8547 69.7333 95.324 68.72C95.7933 67.7067 96.444 66.8533 97.276 66.16C98.1187 65.4667 99.084 65.0027 100.172 64.768L104.076 63.952L104.108 64.944L100.428 65.712C99.308 65.9467 98.364 66.4373 97.596 67.184C96.8387 67.92 96.3 68.8587 95.98 70C96.4813 69.36 97.0627 68.8747 97.724 68.544C98.396 68.2027 99.132 68.032 99.932 68.032ZM98.492 75.232C99.164 75.232 99.7773 75.072 100.332 74.752C100.887 74.4213 101.324 73.9787 101.644 73.424C101.964 72.8587 102.124 72.2347 102.124 71.552C102.124 70.752 101.9 70.1387 101.452 69.712C101.015 69.2747 100.385 69.056 99.564 69.056C98.9133 69.056 98.2893 69.2107 97.692 69.52C97.1053 69.8293 96.6307 70.24 96.268 70.752C95.916 71.2533 95.74 71.7813 95.74 72.336C95.74 73.232 95.9853 73.9413 96.476 74.464C96.9667 74.976 97.6387 75.232 98.492 75.232ZM108.829 76.08C108.039 76.08 107.351 75.936 106.765 75.648C106.178 75.3493 105.725 74.9333 105.405 74.4C105.095 73.856 104.941 73.2267 104.941 72.512C104.941 71.5627 105.149 70.7093 105.565 69.952C105.981 69.1947 106.562 68.6027 107.309 68.176C108.055 67.7387 108.898 67.52 109.837 67.52C110.615 67.52 111.282 67.664 111.837 67.952C112.402 68.2293 112.839 68.6453 113.149 69.2L112.189 69.76C111.709 68.928 110.893 68.512 109.741 68.512C109.047 68.512 108.418 68.6827 107.853 69.024C107.298 69.3653 106.861 69.8347 106.541 70.432C106.231 71.0293 106.077 71.7067 106.077 72.464C106.077 73.2853 106.317 73.9253 106.797 74.384C107.287 74.8427 107.981 75.072 108.877 75.072C109.421 75.072 109.922 74.9707 110.381 74.768C110.85 74.5547 111.234 74.2507 111.533 73.856L112.349 74.48C111.975 74.9813 111.474 75.376 110.845 75.664C110.226 75.9413 109.554 76.08 108.829 76.08ZM117.843 76.08C117.075 76.08 116.403 75.936 115.827 75.648C115.251 75.3493 114.803 74.9333 114.483 74.4C114.173 73.856 114.019 73.2267 114.019 72.512C114.019 71.5627 114.227 70.7093 114.643 69.952C115.059 69.1947 115.635 68.6027 116.371 68.176C117.117 67.7387 117.955 67.52 118.883 67.52C120.056 67.52 120.984 67.84 121.667 68.48C122.36 69.12 122.707 69.984 122.707 71.072C122.707 72.0213 122.499 72.88 122.083 73.648C121.667 74.4053 121.085 75.0027 120.339 75.44C119.603 75.8667 118.771 76.08 117.843 76.08ZM117.923 75.072C118.616 75.072 119.24 74.9067 119.795 74.576C120.349 74.2347 120.781 73.7653 121.091 73.168C121.411 72.56 121.571 71.8827 121.571 71.136C121.571 70.3147 121.325 69.6747 120.835 69.216C120.355 68.7467 119.677 68.512 118.803 68.512C118.109 68.512 117.485 68.6827 116.931 69.024C116.376 69.3653 115.939 69.84 115.619 70.448C115.309 71.0453 115.155 71.7173 115.155 72.464C115.155 73.2853 115.395 73.9253 115.875 74.384C116.365 74.8427 117.048 75.072 117.923 75.072ZM132.813 67.584L131.117 76H129.981L131.453 68.592H127.437L126.925 70.672C126.594 71.952 126.274 72.9867 125.965 73.776C125.655 74.5547 125.303 75.1413 124.909 75.536C124.525 75.92 124.071 76.112 123.549 76.112C123.335 76.112 123.058 76.0693 122.717 75.984L122.989 75.008C123.181 75.0507 123.309 75.072 123.373 75.072C123.917 75.072 124.375 74.7147 124.749 74C125.133 73.2747 125.522 72.128 125.917 70.56L126.653 67.584H132.813ZM142.986 67.52C144.127 67.52 145.039 67.84 145.722 68.48C146.405 69.12 146.746 69.9787 146.746 71.056C146.746 72.0053 146.538 72.864 146.122 73.632C145.717 74.3893 145.146 74.9867 144.41 75.424C143.674 75.8613 142.847 76.08 141.93 76.08C141.173 76.08 140.511 75.936 139.946 75.648C139.381 75.3493 138.943 74.9333 138.634 74.4C138.325 73.856 138.17 73.232 138.17 72.528V72.256H136.25L135.498 76H134.362L136.042 67.584H137.178L136.458 71.216H138.314C138.485 70.4907 138.789 69.8507 139.226 69.296C139.674 68.7307 140.218 68.2933 140.858 67.984C141.509 67.6747 142.218 67.52 142.986 67.52ZM142.026 75.072C142.709 75.072 143.317 74.9067 143.85 74.576C144.394 74.2347 144.821 73.7653 145.13 73.168C145.439 72.56 145.594 71.8773 145.594 71.12C145.594 70.2987 145.359 69.6587 144.89 69.2C144.421 68.7413 143.759 68.512 142.906 68.512C142.223 68.512 141.61 68.6827 141.066 69.024C140.522 69.3653 140.095 69.84 139.786 70.448C139.477 71.0453 139.322 71.7227 139.322 72.48C139.322 73.3013 139.557 73.9413 140.026 74.4C140.495 74.848 141.162 75.072 142.026 75.072ZM155.426 68.592H152.226L150.754 76H149.618L151.09 68.592H147.922L148.114 67.584H155.634L155.426 68.592ZM157.261 67.584H158.397L157.661 71.312H162.941L163.693 67.584H164.829L163.149 76H162.013L162.749 72.288H157.469L156.717 76H155.581L157.261 67.584ZM170.218 76.08C169.45 76.08 168.778 75.936 168.202 75.648C167.626 75.3493 167.178 74.9333 166.858 74.4C166.548 73.856 166.394 73.2267 166.394 72.512C166.394 71.5627 166.602 70.7093 167.018 69.952C167.434 69.1947 168.01 68.6027 168.746 68.176C169.492 67.7387 170.33 67.52 171.258 67.52C172.431 67.52 173.359 67.84 174.042 68.48C174.735 69.12 175.082 69.984 175.082 71.072C175.082 72.0213 174.874 72.88 174.458 73.648C174.042 74.4053 173.46 75.0027 172.714 75.44C171.978 75.8667 171.146 76.08 170.218 76.08ZM170.298 75.072C170.991 75.072 171.615 74.9067 172.17 74.576C172.724 74.2347 173.156 73.7653 173.466 73.168C173.786 72.56 173.946 71.8827 173.946 71.136C173.946 70.3147 173.7 69.6747 173.21 69.216C172.73 68.7467 172.052 68.512 171.178 68.512C170.484 68.512 169.86 68.6827 169.306 69.024C168.751 69.3653 168.314 69.84 167.994 70.448C167.684 71.0453 167.53 71.7173 167.53 72.464C167.53 73.2853 167.77 73.9253 168.25 74.384C168.74 74.8427 169.423 75.072 170.298 75.072ZM182.526 67.584H183.662L182.926 71.312H188.206L188.958 67.584H190.094L188.414 76H187.278L188.014 72.288H182.734L181.982 76H180.846L182.526 67.584ZM195.483 76.08C194.715 76.08 194.043 75.936 193.467 75.648C192.891 75.3493 192.443 74.9333 192.123 74.4C191.814 73.856 191.659 73.2267 191.659 72.512C191.659 71.5627 191.867 70.7093 192.283 69.952C192.699 69.1947 193.275 68.6027 194.011 68.176C194.758 67.7387 195.595 67.52 196.523 67.52C197.697 67.52 198.625 67.84 199.307 68.48C200.001 69.12 200.347 69.984 200.347 71.072C200.347 72.0213 200.139 72.88 199.723 73.648C199.307 74.4053 198.726 75.0027 197.979 75.44C197.243 75.8667 196.411 76.08 195.483 76.08ZM195.563 75.072C196.257 75.072 196.881 74.9067 197.435 74.576C197.99 74.2347 198.422 73.7653 198.731 73.168C199.051 72.56 199.211 71.8827 199.211 71.136C199.211 70.3147 198.966 69.6747 198.475 69.216C197.995 68.7467 197.318 68.512 196.443 68.512C195.75 68.512 195.126 68.6827 194.571 69.024C194.017 69.3653 193.579 69.84 193.259 70.448C192.95 71.0453 192.795 71.7173 192.795 72.464C192.795 73.2853 193.035 73.9253 193.515 74.384C194.006 74.8427 194.689 75.072 195.563 75.072ZM207.716 67.52C208.431 67.52 209.066 67.664 209.62 67.952C210.186 68.24 210.623 68.6507 210.932 69.184C211.242 69.7173 211.396 70.3467 211.396 71.072C211.396 72.0213 211.188 72.88 210.772 73.648C210.367 74.4053 209.802 75.0027 209.076 75.44C208.351 75.8667 207.535 76.08 206.628 76.08C205.828 76.08 205.156 75.9253 204.612 75.616C204.068 75.296 203.674 74.8373 203.428 74.24L202.468 79.104H201.332L203.62 67.584H204.708L204.436 68.928C204.842 68.4693 205.322 68.1227 205.876 67.888C206.431 67.6427 207.044 67.52 207.716 67.52ZM206.612 75.072C207.306 75.072 207.924 74.9067 208.468 74.576C209.023 74.2347 209.455 73.7653 209.764 73.168C210.084 72.5707 210.244 71.8933 210.244 71.136C210.244 70.3147 209.999 69.6747 209.508 69.216C209.028 68.7467 208.351 68.512 207.476 68.512C206.783 68.512 206.159 68.6827 205.604 69.024C205.06 69.3547 204.628 69.824 204.308 70.432C203.999 71.0293 203.844 71.7067 203.844 72.464C203.844 73.2853 204.084 73.9253 204.564 74.384C205.055 74.8427 205.738 75.072 206.612 75.072ZM224.059 67.584L222.379 76H221.339L222.667 69.344L218.139 74.976H217.627L215.355 69.28L214.011 76H212.971L214.651 67.584H215.787L218.139 73.648L222.987 67.584H224.059ZM235.084 67.584L233.404 76H232.316L232.588 74.672C232.183 75.12 231.703 75.4667 231.148 75.712C230.593 75.9573 229.98 76.08 229.308 76.08C228.593 76.08 227.959 75.936 227.404 75.648C226.849 75.36 226.417 74.9493 226.108 74.416C225.799 73.872 225.644 73.2373 225.644 72.512C225.644 71.5627 225.847 70.7093 226.252 69.952C226.668 69.1947 227.239 68.6027 227.964 68.176C228.689 67.7387 229.5 67.52 230.396 67.52C231.196 67.52 231.868 67.68 232.412 68C232.956 68.3093 233.351 68.7573 233.596 69.344L233.948 67.584H235.084ZM229.548 75.072C230.241 75.072 230.865 74.9067 231.42 74.576C231.975 74.2347 232.407 73.7653 232.716 73.168C233.036 72.56 233.196 71.8827 233.196 71.136C233.196 70.3147 232.951 69.6747 232.46 69.216C231.98 68.7467 231.303 68.512 230.428 68.512C229.735 68.512 229.111 68.6827 228.556 69.024C228.001 69.3653 227.564 69.84 227.244 70.448C226.935 71.0453 226.78 71.7173 226.78 72.464C226.78 73.2853 227.02 73.9253 227.5 74.384C227.991 74.8427 228.673 75.072 229.548 75.072ZM245.203 67.584L243.507 76H242.371L243.843 68.592H239.827L239.315 70.672C238.985 71.952 238.665 72.9867 238.355 73.776C238.046 74.5547 237.694 75.1413 237.299 75.536C236.915 75.92 236.462 76.112 235.939 76.112C235.726 76.112 235.449 76.0693 235.107 75.984L235.379 75.008C235.571 75.0507 235.699 75.072 235.763 75.072C236.307 75.072 236.766 74.7147 237.139 74C237.523 73.2747 237.913 72.128 238.307 70.56L239.043 67.584H245.203ZM251.345 70.544C253.233 70.544 254.177 71.296 254.177 72.8C254.177 73.44 254.011 74.0053 253.681 74.496C253.361 74.976 252.902 75.3493 252.305 75.616C251.718 75.872 251.035 76 250.257 76H246.737L248.417 67.616H249.553L248.977 70.544H251.345ZM250.257 75.136C251.089 75.136 251.761 74.9333 252.273 74.528C252.785 74.112 253.041 73.568 253.041 72.896C253.041 72.3947 252.87 72.0213 252.529 71.776C252.198 71.52 251.691 71.392 251.009 71.392H248.801L248.065 75.136H250.257ZM257.401 67.584H258.537L257.801 71.312H263.081L263.833 67.584H264.969L263.289 76H262.153L262.889 72.288H257.609L256.857 76H255.721L257.401 67.584ZM270.358 76.08C269.59 76.08 268.918 75.936 268.342 75.648C267.766 75.3493 267.318 74.9333 266.998 74.4C266.689 73.856 266.534 73.2267 266.534 72.512C266.534 71.5627 266.742 70.7093 267.158 69.952C267.574 69.1947 268.15 68.6027 268.886 68.176C269.633 67.7387 270.47 67.52 271.398 67.52C272.572 67.52 273.5 67.84 274.182 68.48C274.876 69.12 275.222 69.984 275.222 71.072C275.222 72.0213 275.014 72.88 274.598 73.648C274.182 74.4053 273.601 75.0027 272.854 75.44C272.118 75.8667 271.286 76.08 270.358 76.08ZM270.438 75.072C271.132 75.072 271.756 74.9067 272.31 74.576C272.865 74.2347 273.297 73.7653 273.606 73.168C273.926 72.56 274.086 71.8827 274.086 71.136C274.086 70.3147 273.841 69.6747 273.35 69.216C272.87 68.7467 272.193 68.512 271.318 68.512C270.625 68.512 270.001 68.6827 269.446 69.024C268.892 69.3653 268.454 69.84 268.134 70.448C267.825 71.0453 267.67 71.7173 267.67 72.464C267.67 73.2853 267.91 73.9253 268.39 74.384C268.881 74.8427 269.564 75.072 270.438 75.072ZM288.091 75.008H289.403L288.811 78.032H287.739L288.139 76H280.603L280.203 78.032H279.131L279.723 75.008H280.155C280.72 74.976 281.195 74.5493 281.579 73.728C281.963 72.9067 282.336 71.7813 282.699 70.352L283.371 67.584H289.563L288.091 75.008ZM283.723 70.512C283.413 71.7387 283.115 72.72 282.827 73.456C282.539 74.192 282.181 74.7093 281.755 75.008H286.955L288.235 68.592H284.187L283.723 70.512ZM299.969 67.584L298.273 76H297.137L298.609 68.592H294.593L294.081 70.672C293.75 71.952 293.43 72.9867 293.121 73.776C292.812 74.5547 292.46 75.1413 292.065 75.536C291.681 75.92 291.228 76.112 290.705 76.112C290.492 76.112 290.214 76.0693 289.873 75.984L290.145 75.008C290.337 75.0507 290.465 75.072 290.529 75.072C291.073 75.072 291.532 74.7147 291.905 74C292.289 73.2747 292.678 72.128 293.073 70.56L293.809 67.584H299.969ZM309.662 67.584L307.998 76H306.958L307.518 73.168H304.926H304.622L302.11 76H300.814L303.566 72.992C302.468 72.6613 301.918 71.9307 301.918 70.8C301.918 69.7973 302.292 69.0133 303.038 68.448C303.785 67.872 304.804 67.584 306.094 67.584H309.662ZM308.43 68.576H306.014C305.086 68.576 304.366 68.768 303.854 69.152C303.342 69.536 303.086 70.08 303.086 70.784C303.086 71.8187 303.758 72.336 305.102 72.336H307.694L308.43 68.576ZM323.985 67.584L322.289 76H321.153L322.625 68.592H318.609L318.097 70.672C317.766 71.952 317.446 72.9867 317.137 73.776C316.827 74.5547 316.475 75.1413 316.081 75.536C315.697 75.92 315.243 76.112 314.721 76.112C314.507 76.112 314.23 76.0693 313.889 75.984L314.161 75.008C314.353 75.0507 314.481 75.072 314.545 75.072C315.089 75.072 315.547 74.7147 315.921 74C316.305 73.2747 316.694 72.128 317.089 70.56L317.825 67.584H323.985ZM334.158 67.52C335.299 67.52 336.211 67.84 336.894 68.48C337.577 69.12 337.918 69.9787 337.918 71.056C337.918 72.0053 337.71 72.864 337.294 73.632C336.889 74.3893 336.318 74.9867 335.582 75.424C334.846 75.8613 334.019 76.08 333.102 76.08C332.345 76.08 331.683 75.936 331.118 75.648C330.553 75.3493 330.115 74.9333 329.806 74.4C329.497 73.856 329.342 73.232 329.342 72.528V72.256H327.422L326.67 76H325.534L327.214 67.584H328.35L327.63 71.216H329.486C329.657 70.4907 329.961 69.8507 330.398 69.296C330.846 68.7307 331.39 68.2933 332.03 67.984C332.681 67.6747 333.39 67.52 334.158 67.52ZM333.198 75.072C333.881 75.072 334.489 74.9067 335.022 74.576C335.566 74.2347 335.993 73.7653 336.302 73.168C336.611 72.56 336.766 71.8773 336.766 71.12C336.766 70.2987 336.531 69.6587 336.062 69.2C335.593 68.7413 334.931 68.512 334.078 68.512C333.395 68.512 332.782 68.6827 332.238 69.024C331.694 69.3653 331.267 69.84 330.958 70.448C330.649 71.0453 330.494 71.7227 330.494 72.48C330.494 73.3013 330.729 73.9413 331.198 74.4C331.667 74.848 332.334 75.072 333.198 75.072ZM345.166 68.032C346.233 68.032 347.065 68.3307 347.662 68.928C348.27 69.5147 348.574 70.3253 348.574 71.36C348.574 72.256 348.361 73.0667 347.934 73.792C347.508 74.5173 346.921 75.088 346.174 75.504C345.428 75.92 344.59 76.128 343.662 76.128C342.457 76.128 341.518 75.7707 340.846 75.056C340.185 74.3413 339.854 73.3173 339.854 71.984C339.854 70.8213 340.089 69.7333 340.558 68.72C341.028 67.7067 341.678 66.8533 342.51 66.16C343.353 65.4667 344.318 65.0027 345.406 64.768L349.31 63.952L349.342 64.944L345.662 65.712C344.542 65.9467 343.598 66.4373 342.83 67.184C342.073 67.92 341.534 68.8587 341.214 70C341.716 69.36 342.297 68.8747 342.958 68.544C343.63 68.2027 344.366 68.032 345.166 68.032ZM343.726 75.232C344.398 75.232 345.012 75.072 345.566 74.752C346.121 74.4213 346.558 73.9787 346.878 73.424C347.198 72.8587 347.358 72.2347 347.358 71.552C347.358 70.752 347.134 70.1387 346.686 69.712C346.249 69.2747 345.62 69.056 344.798 69.056C344.148 69.056 343.524 69.2107 342.926 69.52C342.34 69.8293 341.865 70.24 341.502 70.752C341.15 71.2533 340.974 71.7813 340.974 72.336C340.974 73.232 341.22 73.9413 341.71 74.464C342.201 74.976 342.873 75.232 343.726 75.232ZM353.999 76.08C353.231 76.08 352.559 75.936 351.983 75.648C351.407 75.3493 350.959 74.9333 350.639 74.4C350.33 73.856 350.175 73.2267 350.175 72.512C350.175 71.5627 350.383 70.7093 350.799 69.952C351.215 69.1947 351.791 68.6027 352.527 68.176C353.274 67.7387 354.111 67.52 355.039 67.52C356.212 67.52 357.14 67.84 357.823 68.48C358.516 69.12 358.863 69.984 358.863 71.072C358.863 72.0213 358.655 72.88 358.239 73.648C357.823 74.4053 357.242 75.0027 356.495 75.44C355.759 75.8667 354.927 76.08 353.999 76.08ZM354.079 75.072C354.772 75.072 355.396 74.9067 355.951 74.576C356.506 74.2347 356.938 73.7653 357.247 73.168C357.567 72.56 357.727 71.8827 357.727 71.136C357.727 70.3147 357.482 69.6747 356.991 69.216C356.511 68.7467 355.834 68.512 354.959 68.512C354.266 68.512 353.642 68.6827 353.087 69.024C352.532 69.3653 352.095 69.84 351.775 70.448C351.466 71.0453 351.311 71.7173 351.311 72.464C351.311 73.2853 351.551 73.9253 352.031 74.384C352.522 74.8427 353.204 75.072 354.079 75.072ZM367.88 68.592H363.032L361.576 76H360.44L362.12 67.584H368.088L367.88 68.592ZM371.499 76.08C370.731 76.08 370.059 75.936 369.483 75.648C368.907 75.3493 368.459 74.9333 368.139 74.4C367.83 73.856 367.675 73.2267 367.675 72.512C367.675 71.5627 367.883 70.7093 368.299 69.952C368.715 69.1947 369.291 68.6027 370.027 68.176C370.774 67.7387 371.611 67.52 372.539 67.52C373.712 67.52 374.64 67.84 375.323 68.48C376.016 69.12 376.363 69.984 376.363 71.072C376.363 72.0213 376.155 72.88 375.739 73.648C375.323 74.4053 374.742 75.0027 373.995 75.44C373.259 75.8667 372.427 76.08 371.499 76.08ZM371.579 75.072C372.272 75.072 372.896 74.9067 373.451 74.576C374.006 74.2347 374.438 73.7653 374.747 73.168C375.067 72.56 375.227 71.8827 375.227 71.136C375.227 70.3147 374.982 69.6747 374.491 69.216C374.011 68.7467 373.334 68.512 372.459 68.512C371.766 68.512 371.142 68.6827 370.587 69.024C370.032 69.3653 369.595 69.84 369.275 70.448C368.966 71.0453 368.811 71.7173 368.811 72.464C368.811 73.2853 369.051 73.9253 369.531 74.384C370.022 74.8427 370.704 75.072 371.579 75.072ZM390.159 67.584L388.479 76H387.343L388.031 72.528C387.007 72.9333 386.037 73.136 385.119 73.136C384.234 73.136 383.541 72.96 383.039 72.608C382.549 72.2453 382.303 71.7173 382.303 71.024C382.303 70.8427 382.33 70.608 382.383 70.32L382.927 67.584H384.063L383.519 70.336C383.487 70.496 383.471 70.6507 383.471 70.8C383.471 71.2693 383.637 71.6213 383.967 71.856C384.298 72.0907 384.762 72.208 385.359 72.208C386.213 72.208 387.173 71.984 388.239 71.536L389.023 67.584H390.159ZM392.874 72.112C392.863 72.1867 392.858 72.2987 392.858 72.448C392.858 73.3013 393.098 73.952 393.578 74.4C394.069 74.848 394.794 75.072 395.754 75.072C396.309 75.072 396.826 74.9813 397.306 74.8C397.797 74.608 398.197 74.3467 398.506 74.016L399.018 74.832C398.623 75.2267 398.127 75.536 397.53 75.76C396.943 75.9733 396.319 76.08 395.658 76.08C394.442 76.08 393.482 75.76 392.778 75.12C392.085 74.48 391.738 73.6053 391.738 72.496C391.738 71.5573 391.935 70.7093 392.33 69.952C392.735 69.1947 393.29 68.6027 393.994 68.176C394.709 67.7387 395.509 67.52 396.394 67.52C397.514 67.52 398.405 67.84 399.066 68.48C399.727 69.1093 400.058 69.9787 400.058 71.088C400.058 71.3973 400.021 71.7387 399.946 72.112H392.874ZM396.362 68.48C395.519 68.48 394.799 68.7307 394.202 69.232C393.605 69.7333 393.199 70.4107 392.986 71.264H398.986C398.997 71.1893 399.002 71.088 399.002 70.96C399.002 70.1707 398.762 69.5627 398.282 69.136C397.802 68.6987 397.162 68.48 396.362 68.48ZM410.063 67.584L408.367 76H407.231L408.703 68.592H404.687L404.175 70.672C403.844 71.952 403.524 72.9867 403.215 73.776C402.905 74.5547 402.553 75.1413 402.159 75.536C401.775 75.92 401.321 76.112 400.799 76.112C400.585 76.112 400.308 76.0693 399.967 75.984L400.239 75.008C400.431 75.0507 400.559 75.072 400.623 75.072C401.167 75.072 401.625 74.7147 401.999 74C402.383 73.2747 402.772 72.128 403.167 70.56L403.903 67.584H410.063ZM415.452 76.08C414.684 76.08 414.012 75.936 413.436 75.648C412.86 75.3493 412.412 74.9333 412.092 74.4C411.783 73.856 411.628 73.2267 411.628 72.512C411.628 71.5627 411.836 70.7093 412.252 69.952C412.668 69.1947 413.244 68.6027 413.98 68.176C414.727 67.7387 415.564 67.52 416.492 67.52C417.665 67.52 418.593 67.84 419.276 68.48C419.969 69.12 420.316 69.984 420.316 71.072C420.316 72.0213 420.108 72.88 419.692 73.648C419.276 74.4053 418.695 75.0027 417.948 75.44C417.212 75.8667 416.38 76.08 415.452 76.08ZM415.532 75.072C416.225 75.072 416.849 74.9067 417.404 74.576C417.959 74.2347 418.391 73.7653 418.7 73.168C419.02 72.56 419.18 71.8827 419.18 71.136C419.18 70.3147 418.935 69.6747 418.444 69.216C417.964 68.7467 417.287 68.512 416.412 68.512C415.719 68.512 415.095 68.6827 414.54 69.024C413.985 69.3653 413.548 69.84 413.228 70.448C412.919 71.0453 412.764 71.7173 412.764 72.464C412.764 73.2853 413.004 73.9253 413.484 74.384C413.975 74.8427 414.657 75.072 415.532 75.072ZM428.085 71.664C429.013 71.888 429.477 72.4587 429.477 73.376C429.477 74.1973 429.146 74.8427 428.485 75.312C427.834 75.7707 426.933 76 425.781 76H421.893L423.589 67.584H427.253C428.138 67.584 428.81 67.744 429.269 68.064C429.728 68.384 429.957 68.848 429.957 69.456C429.957 69.9893 429.792 70.448 429.461 70.832C429.13 71.216 428.672 71.4933 428.085 71.664ZM423.941 71.328H426.453C427.157 71.328 427.722 71.1733 428.149 70.864C428.586 70.5547 428.805 70.1493 428.805 69.648C428.805 68.8693 428.218 68.48 427.045 68.48H424.517L423.941 71.328ZM425.845 75.104C426.634 75.104 427.248 74.9493 427.685 74.64C428.133 74.3307 428.357 73.8987 428.357 73.344C428.357 72.928 428.218 72.6293 427.941 72.448C427.674 72.2667 427.226 72.176 426.597 72.176H423.781L423.189 75.104H425.845ZM432.811 72.112C432.801 72.1867 432.795 72.2987 432.795 72.448C432.795 73.3013 433.035 73.952 433.515 74.4C434.006 74.848 434.731 75.072 435.691 75.072C436.246 75.072 436.763 74.9813 437.243 74.8C437.734 74.608 438.134 74.3467 438.443 74.016L438.955 74.832C438.561 75.2267 438.065 75.536 437.467 75.76C436.881 75.9733 436.257 76.08 435.595 76.08C434.379 76.08 433.419 75.76 432.715 75.12C432.022 74.48 431.675 73.6053 431.675 72.496C431.675 71.5573 431.873 70.7093 432.267 69.952C432.673 69.1947 433.227 68.6027 433.931 68.176C434.646 67.7387 435.446 67.52 436.331 67.52C437.451 67.52 438.342 67.84 439.003 68.48C439.665 69.1093 439.995 69.9787 439.995 71.088C439.995 71.3973 439.958 71.7387 439.883 72.112H432.811ZM436.299 68.48C435.457 68.48 434.737 68.7307 434.139 69.232C433.542 69.7333 433.137 70.4107 432.923 71.264H438.923C438.934 71.1893 438.939 71.088 438.939 70.96C438.939 70.1707 438.699 69.5627 438.219 69.136C437.739 68.6987 437.099 68.48 436.299 68.48ZM446.364 71.728L449.068 76H447.772L445.468 72.256H443.484L442.732 76H441.596L443.292 67.584H444.428L443.676 71.28H445.548L449.276 67.584H450.556L446.364 71.728ZM460.053 67.584L458.373 76H457.285L457.557 74.672C457.152 75.12 456.672 75.4667 456.117 75.712C455.562 75.9573 454.949 76.08 454.277 76.08C453.562 76.08 452.928 75.936 452.373 75.648C451.818 75.36 451.386 74.9493 451.077 74.416C450.768 73.872 450.613 73.2373 450.613 72.512C450.613 71.5627 450.816 70.7093 451.221 69.952C451.637 69.1947 452.208 68.6027 452.933 68.176C453.658 67.7387 454.469 67.52 455.365 67.52C456.165 67.52 456.837 67.68 457.381 68C457.925 68.3093 458.32 68.7573 458.565 69.344L458.917 67.584H460.053ZM454.517 75.072C455.21 75.072 455.834 74.9067 456.389 74.576C456.944 74.2347 457.376 73.7653 457.685 73.168C458.005 72.56 458.165 71.8827 458.165 71.136C458.165 70.3147 457.92 69.6747 457.429 69.216C456.949 68.7467 456.272 68.512 455.397 68.512C454.704 68.512 454.08 68.6827 453.525 69.024C452.97 69.3653 452.533 69.84 452.213 70.448C451.904 71.0453 451.749 71.7173 451.749 72.464C451.749 73.2853 451.989 73.9253 452.469 74.384C452.96 74.8427 453.642 75.072 454.517 75.072ZM461.884 74.336C462.119 74.336 462.311 74.416 462.46 74.576C462.62 74.736 462.7 74.9333 462.7 75.168C462.7 75.3067 462.673 75.4347 462.62 75.552C462.577 75.6693 462.503 75.824 462.396 76.016L461.18 78.336H460.412L461.436 75.984C461.297 75.92 461.185 75.824 461.1 75.696C461.025 75.5573 460.988 75.408 460.988 75.248C460.988 74.992 461.073 74.7787 461.244 74.608C461.425 74.4267 461.639 74.336 461.884 74.336ZM470.87 67.584H472.006L470.646 74.384L477.558 67.584H478.646L476.966 76H475.798L477.19 69.2L470.278 76H469.174L470.87 67.584ZM488.297 76.08C487.508 76.08 486.82 75.936 486.233 75.648C485.647 75.3493 485.193 74.9333 484.873 74.4C484.564 73.856 484.409 73.2267 484.409 72.512C484.409 71.5627 484.617 70.7093 485.033 69.952C485.449 69.1947 486.031 68.6027 486.777 68.176C487.524 67.7387 488.367 67.52 489.305 67.52C490.084 67.52 490.751 67.664 491.305 67.952C491.871 68.2293 492.308 68.6453 492.617 69.2L491.657 69.76C491.177 68.928 490.361 68.512 489.209 68.512C488.516 68.512 487.887 68.6827 487.321 69.024C486.767 69.3653 486.329 69.8347 486.009 70.432C485.7 71.0293 485.545 71.7067 485.545 72.464C485.545 73.2853 485.785 73.9253 486.265 74.384C486.756 74.8427 487.449 75.072 488.345 75.072C488.889 75.072 489.391 74.9707 489.849 74.768C490.319 74.5547 490.703 74.2507 491.001 73.856L491.817 74.48C491.444 74.9813 490.943 75.376 490.313 75.664C489.695 75.9413 489.023 76.08 488.297 76.08ZM500.848 68.592H497.648L496.176 76H495.04L496.512 68.592H493.344L493.536 67.584H501.056L500.848 68.592ZM506.794 67.52C507.509 67.52 508.144 67.664 508.698 67.952C509.264 68.24 509.701 68.6507 510.01 69.184C510.32 69.7173 510.474 70.3467 510.474 71.072C510.474 72.0213 510.266 72.88 509.85 73.648C509.445 74.4053 508.88 75.0027 508.154 75.44C507.429 75.8667 506.613 76.08 505.706 76.08C504.906 76.08 504.234 75.9253 503.69 75.616C503.146 75.296 502.752 74.8373 502.506 74.24L501.546 79.104H500.41L502.698 67.584H503.786L503.514 68.928C503.92 68.4693 504.4 68.1227 504.954 67.888C505.509 67.6427 506.122 67.52 506.794 67.52ZM505.69 75.072C506.384 75.072 507.002 74.9067 507.546 74.576C508.101 74.2347 508.533 73.7653 508.842 73.168C509.162 72.5707 509.322 71.8933 509.322 71.136C509.322 70.3147 509.077 69.6747 508.586 69.216C508.106 68.7467 507.429 68.512 506.554 68.512C505.861 68.512 505.237 68.6827 504.682 69.024C504.138 69.3547 503.706 69.824 503.386 70.432C503.077 71.0293 502.922 71.7067 502.922 72.464C502.922 73.2853 503.162 73.9253 503.642 74.384C504.133 74.8427 504.816 75.072 505.69 75.072ZM513.233 72.112C513.223 72.1867 513.217 72.2987 513.217 72.448C513.217 73.3013 513.457 73.952 513.937 74.4C514.428 74.848 515.153 75.072 516.113 75.072C516.668 75.072 517.185 74.9813 517.665 74.8C518.156 74.608 518.556 74.3467 518.865 74.016L519.377 74.832C518.983 75.2267 518.487 75.536 517.889 75.76C517.303 75.9733 516.679 76.08 516.017 76.08C514.801 76.08 513.841 75.76 513.137 75.12C512.444 74.48 512.097 73.6053 512.097 72.496C512.097 71.5573 512.295 70.7093 512.689 69.952C513.095 69.1947 513.649 68.6027 514.353 68.176C515.068 67.7387 515.868 67.52 516.753 67.52C517.873 67.52 518.764 67.84 519.425 68.48C520.087 69.1093 520.417 69.9787 520.417 71.088C520.417 71.3973 520.38 71.7387 520.305 72.112H513.233ZM516.721 68.48C515.879 68.48 515.159 68.7307 514.561 69.232C513.964 69.7333 513.559 70.4107 513.345 71.264H519.345C519.356 71.1893 519.361 71.088 519.361 70.96C519.361 70.1707 519.121 69.5627 518.641 69.136C518.161 68.6987 517.521 68.48 516.721 68.48ZM533.106 67.584L531.426 76H530.386L531.714 69.344L527.186 74.976H526.674L524.402 69.28L523.058 76H522.018L523.698 67.584H524.834L527.186 73.648L532.034 67.584H533.106ZM536.339 67.584H537.475L536.115 74.384L543.027 67.584H544.115L542.435 76H541.267L542.659 69.2L535.747 76H534.643L536.339 67.584ZM556.747 67.584L555.067 76H554.027L555.355 69.344L550.827 74.976H550.315L548.043 69.28L546.699 76H545.659L547.339 67.584H548.475L550.827 73.648L555.675 67.584H556.747ZM562.204 76.08C561.414 76.08 560.726 75.936 560.14 75.648C559.553 75.3493 559.1 74.9333 558.78 74.4C558.47 73.856 558.316 73.2267 558.316 72.512C558.316 71.5627 558.524 70.7093 558.94 69.952C559.356 69.1947 559.937 68.6027 560.684 68.176C561.43 67.7387 562.273 67.52 563.212 67.52C563.99 67.52 564.657 67.664 565.212 67.952C565.777 68.2293 566.214 68.6453 566.524 69.2L565.564 69.76C565.084 68.928 564.268 68.512 563.116 68.512C562.422 68.512 561.793 68.6827 561.228 69.024C560.673 69.3653 560.236 69.8347 559.916 70.432C559.606 71.0293 559.452 71.7067 559.452 72.464C559.452 73.2853 559.692 73.9253 560.172 74.384C560.662 74.8427 561.356 75.072 562.252 75.072C562.796 75.072 563.297 74.9707 563.756 74.768C564.225 74.5547 564.609 74.2507 564.908 73.856L565.724 74.48C565.35 74.9813 564.849 75.376 564.22 75.664C563.601 75.9413 562.929 76.08 562.204 76.08ZM575.381 67.584L573.717 76H572.677L573.237 73.168H570.645H570.341L567.829 76H566.533L569.285 72.992C568.186 72.6613 567.637 71.9307 567.637 70.8C567.637 69.7973 568.01 69.0133 568.757 68.448C569.504 67.872 570.522 67.584 571.813 67.584H575.381ZM574.149 68.576H571.733C570.805 68.576 570.085 68.768 569.573 69.152C569.061 69.536 568.805 70.08 568.805 70.784C568.805 71.8187 569.477 72.336 570.821 72.336H573.413L574.149 68.576ZM585.047 76.08C584.258 76.08 583.57 75.936 582.983 75.648C582.397 75.3493 581.943 74.9333 581.623 74.4C581.314 73.856 581.159 73.2267 581.159 72.512C581.159 71.5627 581.367 70.7093 581.783 69.952C582.199 69.1947 582.781 68.6027 583.527 68.176C584.274 67.7387 585.117 67.52 586.055 67.52C586.834 67.52 587.501 67.664 588.055 67.952C588.621 68.2293 589.058 68.6453 589.367 69.2L588.407 69.76C587.927 68.928 587.111 68.512 585.959 68.512C585.266 68.512 584.637 68.6827 584.071 69.024C583.517 69.3653 583.079 69.8347 582.759 70.432C582.45 71.0293 582.295 71.7067 582.295 72.464C582.295 73.2853 582.535 73.9253 583.015 74.384C583.506 74.8427 584.199 75.072 585.095 75.072C585.639 75.072 586.141 74.9707 586.599 74.768C587.069 74.5547 587.453 74.2507 587.751 73.856L588.567 74.48C588.194 74.9813 587.693 75.376 587.063 75.664C586.445 75.9413 585.773 76.08 585.047 76.08ZM597.169 75.008H598.481L597.889 78.032H596.817L597.217 76H589.681L589.281 78.032H588.209L588.801 75.008H589.233C589.798 74.976 590.273 74.5493 590.657 73.728C591.041 72.9067 591.414 71.7813 591.777 70.352L592.449 67.584H598.641L597.169 75.008ZM592.801 70.512C592.492 71.7387 592.193 72.72 591.905 73.456C591.617 74.192 591.26 74.7093 590.833 75.008H596.033L597.313 68.592H593.265L592.801 70.512ZM601.655 72.112C601.644 72.1867 601.639 72.2987 601.639 72.448C601.639 73.3013 601.879 73.952 602.359 74.4C602.85 74.848 603.575 75.072 604.535 75.072C605.09 75.072 605.607 74.9813 606.087 74.8C606.578 74.608 606.978 74.3467 607.287 74.016L607.799 74.832C607.404 75.2267 606.908 75.536 606.311 75.76C605.724 75.9733 605.1 76.08 604.439 76.08C603.223 76.08 602.263 75.76 601.559 75.12C600.866 74.48 600.519 73.6053 600.519 72.496C600.519 71.5573 600.716 70.7093 601.111 69.952C601.516 69.1947 602.071 68.6027 602.775 68.176C603.49 67.7387 604.29 67.52 605.175 67.52C606.295 67.52 607.186 67.84 607.847 68.48C608.508 69.1093 608.839 69.9787 608.839 71.088C608.839 71.3973 608.802 71.7387 608.727 72.112H601.655ZM605.143 68.48C604.3 68.48 603.58 68.7307 602.983 69.232C602.386 69.7333 601.98 70.4107 601.767 71.264H607.767C607.778 71.1893 607.783 71.088 607.783 70.96C607.783 70.1707 607.543 69.5627 607.063 69.136C606.583 68.6987 605.943 68.48 605.143 68.48ZM618.844 67.584L617.148 76H616.012L617.484 68.592H613.468L612.956 70.672C612.625 71.952 612.305 72.9867 611.996 73.776C611.687 74.5547 611.335 75.1413 610.94 75.536C610.556 75.92 610.103 76.112 609.58 76.112C609.367 76.112 609.089 76.0693 608.748 75.984L609.02 75.008C609.212 75.0507 609.34 75.072 609.404 75.072C609.948 75.072 610.407 74.7147 610.78 74C611.164 73.2747 611.553 72.128 611.948 70.56L612.684 67.584H618.844ZM629.865 67.584L628.185 76H627.097L627.369 74.672C626.964 75.12 626.484 75.4667 625.929 75.712C625.375 75.9573 624.761 76.08 624.089 76.08C623.375 76.08 622.74 75.936 622.185 75.648C621.631 75.36 621.199 74.9493 620.889 74.416C620.58 73.872 620.425 73.2373 620.425 72.512C620.425 71.5627 620.628 70.7093 621.033 69.952C621.449 69.1947 622.02 68.6027 622.745 68.176C623.471 67.7387 624.281 67.52 625.177 67.52C625.977 67.52 626.649 67.68 627.193 68C627.737 68.3093 628.132 68.7573 628.377 69.344L628.729 67.584H629.865ZM624.329 75.072C625.023 75.072 625.647 74.9067 626.201 74.576C626.756 74.2347 627.188 73.7653 627.497 73.168C627.817 72.56 627.977 71.8827 627.977 71.136C627.977 70.3147 627.732 69.6747 627.241 69.216C626.761 68.7467 626.084 68.512 625.209 68.512C624.516 68.512 623.892 68.6827 623.337 69.024C622.783 69.3653 622.345 69.84 622.025 70.448C621.716 71.0453 621.561 71.7173 621.561 72.464C621.561 73.2853 621.801 73.9253 622.281 74.384C622.772 74.8427 623.455 75.072 624.329 75.072ZM638.817 68.592H635.617L634.145 76H633.009L634.481 68.592H631.313L631.505 67.584H639.025L638.817 68.592ZM643.579 70.544C645.467 70.544 646.411 71.296 646.411 72.8C646.411 73.44 646.246 74.0053 645.915 74.496C645.595 74.976 645.136 75.3493 644.539 75.616C643.952 75.872 643.27 76 642.491 76H638.971L640.651 67.616H641.787L641.211 70.544H643.579ZM642.491 75.136C643.323 75.136 643.995 74.9333 644.507 74.528C645.019 74.112 645.275 73.568 645.275 72.896C645.275 72.3947 645.104 72.0213 644.763 71.776C644.432 71.52 643.926 71.392 643.243 71.392H641.035L640.299 75.136H642.491ZM34 91.584L32.32 100H31.184L32.64 92.592H27.36L25.904 100H24.768L26.448 91.584H34ZM39.4536 100.08C38.6643 100.08 37.9763 99.936 37.3896 99.648C36.803 99.3493 36.3496 98.9333 36.0296 98.4C35.7203 97.856 35.5656 97.2267 35.5656 96.512C35.5656 95.5627 35.7736 94.7093 36.1896 93.952C36.6056 93.1947 37.187 92.6027 37.9336 92.176C38.6803 91.7387 39.523 91.52 40.4616 91.52C41.2403 91.52 41.907 91.664 42.4616 91.952C43.027 92.2293 43.4643 92.6453 43.7736 93.2L42.8136 93.76C42.3336 92.928 41.5176 92.512 40.3656 92.512C39.6723 92.512 39.043 92.6827 38.4776 93.024C37.923 93.3653 37.4856 93.8347 37.1656 94.432C36.8563 95.0293 36.7016 95.7067 36.7016 96.464C36.7016 97.2853 36.9416 97.9253 37.4216 98.384C37.9123 98.8427 38.6056 99.072 39.5016 99.072C40.0456 99.072 40.547 98.9707 41.0056 98.768C41.475 98.5547 41.859 98.2507 42.1576 97.856L42.9736 98.48C42.6003 98.9813 42.099 99.376 41.4696 99.664C40.851 99.9413 40.179 100.08 39.4536 100.08ZM46.4484 91.584H47.5844L46.2244 98.384L53.1364 91.584H54.2244L52.5444 100H51.3764L52.7684 93.2L45.8564 100H44.7524L46.4484 91.584ZM59.832 95.728L62.312 100H61.096L59.096 96.496L55.72 100H54.376L58.616 95.648L56.28 91.584H57.48L59.368 94.88L62.536 91.584H63.848L59.832 95.728ZM67.749 100.08C66.981 100.08 66.309 99.936 65.733 99.648C65.157 99.3493 64.709 98.9333 64.389 98.4C64.0797 97.856 63.925 97.2267 63.925 96.512C63.925 95.5627 64.133 94.7093 64.549 93.952C64.965 93.1947 65.541 92.6027 66.277 92.176C67.0237 91.7387 67.861 91.52 68.789 91.52C69.9623 91.52 70.8903 91.84 71.573 92.48C72.2663 93.12 72.613 93.984 72.613 95.072C72.613 96.0213 72.405 96.88 71.989 97.648C71.573 98.4053 70.9917 99.0027 70.245 99.44C69.509 99.8667 68.677 100.08 67.749 100.08ZM67.829 99.072C68.5223 99.072 69.1463 98.9067 69.701 98.576C70.2557 98.2347 70.6877 97.7653 70.997 97.168C71.317 96.56 71.477 95.8827 71.477 95.136C71.477 94.3147 71.2317 93.6747 70.741 93.216C70.261 92.7467 69.5837 92.512 68.709 92.512C68.0157 92.512 67.3917 92.6827 66.837 93.024C66.2823 93.3653 65.845 93.84 65.525 94.448C65.2157 95.0453 65.061 95.7173 65.061 96.464C65.061 97.2853 65.301 97.9253 65.781 98.384C66.2717 98.8427 66.9543 99.072 67.829 99.072ZM81.2854 92.592H78.0854L76.6134 100H75.4774L76.9494 92.592H73.7814L73.9734 91.584H81.4934L81.2854 92.592ZM82.2333 96.112C82.2226 96.1867 82.2173 96.2987 82.2173 96.448C82.2173 97.3013 82.4573 97.952 82.9373 98.4C83.4279 98.848 84.1533 99.072 85.1133 99.072C85.6679 99.072 86.1853 98.9813 86.6653 98.8C87.1559 98.608 87.5559 98.3467 87.8653 98.016L88.3773 98.832C87.9826 99.2267 87.4866 99.536 86.8893 99.76C86.3026 99.9733 85.6786 100.08 85.0173 100.08C83.8013 100.08 82.8413 99.76 82.1373 99.12C81.4439 98.48 81.0973 97.6053 81.0973 96.496C81.0973 95.5573 81.2946 94.7093 81.6893 93.952C82.0946 93.1947 82.6493 92.6027 83.3533 92.176C84.0679 91.7387 84.8679 91.52 85.7533 91.52C86.8733 91.52 87.7639 91.84 88.4253 92.48C89.0866 93.1093 89.4173 93.9787 89.4173 95.088C89.4173 95.3973 89.3799 95.7387 89.3053 96.112H82.2333ZM85.7213 92.48C84.8786 92.48 84.1586 92.7307 83.5613 93.232C82.9639 93.7333 82.5586 94.4107 82.3453 95.264H88.3453C88.3559 95.1893 88.3612 95.088 88.3612 94.96C88.3612 94.1707 88.1212 93.5627 87.6413 93.136C87.1613 92.6987 86.5213 92.48 85.7213 92.48ZM96.81 91.52C97.5247 91.52 98.1593 91.664 98.714 91.952C99.2793 92.24 99.7167 92.6507 100.026 93.184C100.335 93.7173 100.49 94.3467 100.49 95.072C100.49 96.0213 100.282 96.88 99.866 97.648C99.4607 98.4053 98.8953 99.0027 98.17 99.44C97.4447 99.8667 96.6287 100.08 95.722 100.08C94.922 100.08 94.25 99.9253 93.706 99.616C93.162 99.296 92.7673 98.8373 92.522 98.24L91.562 103.104H90.426L92.714 91.584H93.802L93.53 92.928C93.9353 92.4693 94.4153 92.1227 94.97 91.888C95.5247 91.6427 96.138 91.52 96.81 91.52ZM95.706 99.072C96.3993 99.072 97.018 98.9067 97.562 98.576C98.1167 98.2347 98.5487 97.7653 98.858 97.168C99.178 96.5707 99.338 95.8933 99.338 95.136C99.338 94.3147 99.0927 93.6747 98.602 93.216C98.122 92.7467 97.4447 92.512 96.57 92.512C95.8767 92.512 95.2527 92.6827 94.698 93.024C94.154 93.3547 93.722 93.824 93.402 94.432C93.0927 95.0293 92.938 95.7067 92.938 96.464C92.938 97.2853 93.178 97.9253 93.658 98.384C94.1487 98.8427 94.8313 99.072 95.706 99.072ZM111.553 91.584L109.873 100H108.785L109.057 98.672C108.652 99.12 108.172 99.4667 107.617 99.712C107.062 99.9573 106.449 100.08 105.777 100.08C105.062 100.08 104.428 99.936 103.873 99.648C103.318 99.36 102.886 98.9493 102.577 98.416C102.268 97.872 102.113 97.2373 102.113 96.512C102.113 95.5627 102.316 94.7093 102.721 93.952C103.137 93.1947 103.708 92.6027 104.433 92.176C105.158 91.7387 105.969 91.52 106.865 91.52C107.665 91.52 108.337 91.68 108.881 92C109.425 92.3093 109.82 92.7573 110.065 93.344L110.417 91.584H111.553ZM106.017 99.072C106.71 99.072 107.334 98.9067 107.889 98.576C108.444 98.2347 108.876 97.7653 109.185 97.168C109.505 96.56 109.665 95.8827 109.665 95.136C109.665 94.3147 109.42 93.6747 108.929 93.216C108.449 92.7467 107.772 92.512 106.897 92.512C106.204 92.512 105.58 92.6827 105.025 93.024C104.47 93.3653 104.033 93.84 103.713 94.448C103.404 95.0453 103.249 95.7173 103.249 96.464C103.249 97.2853 103.489 97.9253 103.969 98.384C104.46 98.8427 105.142 99.072 106.017 99.072ZM122.328 91.584L120.648 100H119.512L120.968 92.592H115.688L114.232 100H113.096L114.776 91.584H122.328ZM125.558 91.584H126.694L125.334 98.384L132.246 91.584H133.334L131.654 100H130.486L131.878 93.2L124.966 100H123.862L125.558 91.584ZM143.517 91.52C144.659 91.52 145.571 91.84 146.253 92.48C146.936 93.12 147.277 93.9787 147.277 95.056C147.277 96.0053 147.069 96.864 146.653 97.632C146.248 98.3893 145.677 98.9867 144.941 99.424C144.205 99.8613 143.379 100.08 142.461 100.08C141.704 100.08 141.043 99.936 140.477 99.648C139.912 99.3493 139.475 98.9333 139.165 98.4C138.856 97.856 138.701 97.232 138.701 96.528V96.256H136.781L136.029 100H134.893L136.573 91.584H137.709L136.989 95.216H138.845C139.016 94.4907 139.32 93.8507 139.757 93.296C140.205 92.7307 140.749 92.2933 141.389 91.984C142.04 91.6747 142.749 91.52 143.517 91.52ZM142.557 99.072C143.24 99.072 143.848 98.9067 144.381 98.576C144.925 98.2347 145.352 97.7653 145.661 97.168C145.971 96.56 146.125 95.8773 146.125 95.12C146.125 94.2987 145.891 93.6587 145.421 93.2C144.952 92.7413 144.291 92.512 143.437 92.512C142.755 92.512 142.141 92.6827 141.597 93.024C141.053 93.3653 140.627 93.84 140.317 94.448C140.008 95.0453 139.853 95.7227 139.853 96.48C139.853 97.3013 140.088 97.9413 140.557 98.4C141.027 98.848 141.693 99.072 142.557 99.072ZM158.713 92.032C159.78 92.032 160.612 92.3307 161.209 92.928C161.817 93.5147 162.121 94.3253 162.121 95.36C162.121 96.256 161.908 97.0667 161.481 97.792C161.055 98.5173 160.468 99.088 159.721 99.504C158.975 99.92 158.137 100.128 157.209 100.128C156.004 100.128 155.065 99.7707 154.393 99.056C153.732 98.3413 153.401 97.3173 153.401 95.984C153.401 94.8213 153.636 93.7333 154.105 92.72C154.575 91.7067 155.225 90.8533 156.057 90.16C156.9 89.4667 157.865 89.0027 158.953 88.768L162.857 87.952L162.889 88.944L159.209 89.712C158.089 89.9467 157.145 90.4373 156.377 91.184C155.62 91.92 155.081 92.8587 154.761 94C155.263 93.36 155.844 92.8747 156.505 92.544C157.177 92.2027 157.913 92.032 158.713 92.032ZM157.273 99.232C157.945 99.232 158.559 99.072 159.113 98.752C159.668 98.4213 160.105 97.9787 160.425 97.424C160.745 96.8587 160.905 96.2347 160.905 95.552C160.905 94.752 160.681 94.1387 160.233 93.712C159.796 93.2747 159.167 93.056 158.345 93.056C157.695 93.056 157.071 93.2107 156.473 93.52C155.887 93.8293 155.412 94.24 155.049 94.752C154.697 95.2533 154.521 95.7813 154.521 96.336C154.521 97.232 154.767 97.9413 155.257 98.464C155.748 98.976 156.42 99.232 157.273 99.232ZM164.874 96.112C164.863 96.1867 164.858 96.2987 164.858 96.448C164.858 97.3013 165.098 97.952 165.578 98.4C166.069 98.848 166.794 99.072 167.754 99.072C168.309 99.072 168.826 98.9813 169.306 98.8C169.797 98.608 170.197 98.3467 170.506 98.016L171.018 98.832C170.623 99.2267 170.127 99.536 169.53 99.76C168.943 99.9733 168.319 100.08 167.658 100.08C166.442 100.08 165.482 99.76 164.778 99.12C164.085 98.48 163.738 97.6053 163.738 96.496C163.738 95.5573 163.935 94.7093 164.33 93.952C164.735 93.1947 165.29 92.6027 165.994 92.176C166.709 91.7387 167.509 91.52 168.394 91.52C169.514 91.52 170.405 91.84 171.066 92.48C171.727 93.1093 172.058 93.9787 172.058 95.088C172.058 95.3973 172.021 95.7387 171.946 96.112H164.874ZM168.362 92.48C167.519 92.48 166.799 92.7307 166.202 93.232C165.605 93.7333 165.199 94.4107 164.986 95.264H170.986C170.997 95.1893 171.002 95.088 171.002 94.96C171.002 94.1707 170.762 93.5627 170.282 93.136C169.802 92.6987 169.162 92.48 168.362 92.48ZM178.16 95.648C178.694 95.7867 179.099 96.0107 179.376 96.32C179.654 96.6187 179.792 96.992 179.792 97.44C179.792 97.9413 179.616 98.3947 179.264 98.8C178.923 99.2053 178.443 99.5253 177.824 99.76C177.216 99.984 176.534 100.096 175.776 100.096C174.464 100.096 173.392 99.7387 172.56 99.024L173.04 98.224C173.35 98.512 173.744 98.7307 174.224 98.88C174.704 99.0293 175.227 99.104 175.792 99.104C176.336 99.104 176.827 99.0293 177.264 98.88C177.702 98.7307 178.043 98.5227 178.288 98.256C178.534 97.9893 178.656 97.6907 178.656 97.36C178.656 96.9547 178.475 96.64 178.112 96.416C177.76 96.192 177.27 96.08 176.64 96.08H175.248L175.376 95.216H176.576C177.302 95.216 177.883 95.0827 178.32 94.816C178.768 94.5493 178.992 94.1973 178.992 93.76C178.992 93.3547 178.816 93.04 178.464 92.816C178.112 92.592 177.627 92.48 177.008 92.48C176.208 92.48 175.318 92.7093 174.336 93.168L174.016 92.224C175.04 91.7333 176.07 91.488 177.104 91.488C178.022 91.488 178.758 91.68 179.312 92.064C179.878 92.4373 180.16 92.944 180.16 93.584C180.16 94.0747 179.984 94.5013 179.632 94.864C179.28 95.2267 178.79 95.488 178.16 95.648ZM185.687 100.08C184.919 100.08 184.247 99.936 183.671 99.648C183.095 99.3493 182.647 98.9333 182.327 98.4C182.017 97.856 181.863 97.2267 181.863 96.512C181.863 95.5627 182.071 94.7093 182.487 93.952C182.903 93.1947 183.479 92.6027 184.215 92.176C184.961 91.7387 185.799 91.52 186.727 91.52C187.9 91.52 188.828 91.84 189.51 92.48C190.204 93.12 190.551 93.984 190.551 95.072C190.551 96.0213 190.343 96.88 189.927 97.648C189.511 98.4053 188.929 99.0027 188.183 99.44C187.447 99.8667 186.615 100.08 185.687 100.08ZM185.766 99.072C186.46 99.072 187.084 98.9067 187.639 98.576C188.193 98.2347 188.625 97.7653 188.935 97.168C189.255 96.56 189.415 95.8827 189.415 95.136C189.415 94.3147 189.169 93.6747 188.679 93.216C188.199 92.7467 187.521 92.512 186.647 92.512C185.953 92.512 185.329 92.6827 184.775 93.024C184.22 93.3653 183.783 93.84 183.463 94.448C183.153 95.0453 182.999 95.7173 182.999 96.464C182.999 97.2853 183.239 97.9253 183.719 98.384C184.209 98.8427 184.892 99.072 185.766 99.072ZM201.359 91.584L199.679 100H198.543L199.999 92.592H194.719L193.263 100H192.127L193.807 91.584H201.359ZM212.381 91.584L210.701 100H209.613L209.885 98.672C209.48 99.12 209 99.4667 208.445 99.712C207.89 99.9573 207.277 100.08 206.605 100.08C205.89 100.08 205.256 99.936 204.701 99.648C204.146 99.36 203.714 98.9493 203.405 98.416C203.096 97.872 202.941 97.2373 202.941 96.512C202.941 95.5627 203.144 94.7093 203.549 93.952C203.965 93.1947 204.536 92.6027 205.261 92.176C205.986 91.7387 206.797 91.52 207.693 91.52C208.493 91.52 209.165 91.68 209.709 92C210.253 92.3093 210.648 92.7573 210.893 93.344L211.245 91.584H212.381ZM206.845 99.072C207.538 99.072 208.162 98.9067 208.717 98.576C209.272 98.2347 209.704 97.7653 210.013 97.168C210.333 96.56 210.493 95.8827 210.493 95.136C210.493 94.3147 210.248 93.6747 209.757 93.216C209.277 92.7467 208.6 92.512 207.725 92.512C207.032 92.512 206.408 92.6827 205.853 93.024C205.298 93.3653 204.861 93.84 204.541 94.448C204.232 95.0453 204.077 95.7173 204.077 96.464C204.077 97.2853 204.317 97.9253 204.797 98.384C205.288 98.8427 205.97 99.072 206.845 99.072ZM217.844 100.08C217.055 100.08 216.367 99.936 215.78 99.648C215.194 99.3493 214.74 98.9333 214.42 98.4C214.111 97.856 213.956 97.2267 213.956 96.512C213.956 95.5627 214.164 94.7093 214.58 93.952C214.996 93.1947 215.578 92.6027 216.324 92.176C217.071 91.7387 217.914 91.52 218.852 91.52C219.631 91.52 220.298 91.664 220.852 91.952C221.418 92.2293 221.855 92.6453 222.164 93.2L221.204 93.76C220.724 92.928 219.908 92.512 218.756 92.512C218.063 92.512 217.434 92.6827 216.868 93.024C216.314 93.3653 215.876 93.8347 215.556 94.432C215.247 95.0293 215.092 95.7067 215.092 96.464C215.092 97.2853 215.332 97.9253 215.812 98.384C216.303 98.8427 216.996 99.072 217.892 99.072C218.436 99.072 218.938 98.9707 219.396 98.768C219.866 98.5547 220.25 98.2507 220.548 97.856L221.364 98.48C220.991 98.9813 220.49 99.376 219.86 99.664C219.242 99.9413 218.57 100.08 217.844 100.08ZM224.823 91.584H225.959L225.223 95.312H230.503L231.255 91.584H232.391L230.711 100H229.575L230.311 96.288H225.031L224.279 100H223.143L224.823 91.584ZM237.78 100.08C237.012 100.08 236.34 99.936 235.764 99.648C235.188 99.3493 234.74 98.9333 234.42 98.4C234.111 97.856 233.956 97.2267 233.956 96.512C233.956 95.5627 234.164 94.7093 234.58 93.952C234.996 93.1947 235.572 92.6027 236.308 92.176C237.055 91.7387 237.892 91.52 238.82 91.52C239.994 91.52 240.922 91.84 241.604 92.48C242.298 93.12 242.644 93.984 242.644 95.072C242.644 96.0213 242.436 96.88 242.02 97.648C241.604 98.4053 241.023 99.0027 240.276 99.44C239.54 99.8667 238.708 100.08 237.78 100.08ZM237.86 99.072C238.554 99.072 239.178 98.9067 239.732 98.576C240.287 98.2347 240.719 97.7653 241.028 97.168C241.348 96.56 241.508 95.8827 241.508 95.136C241.508 94.3147 241.263 93.6747 240.772 93.216C240.292 92.7467 239.615 92.512 238.74 92.512C238.047 92.512 237.423 92.6827 236.868 93.024C236.314 93.3653 235.876 93.84 235.556 94.448C235.247 95.0453 235.092 95.7173 235.092 96.464C235.092 97.2853 235.332 97.9253 235.812 98.384C236.303 98.8427 236.986 99.072 237.86 99.072ZM245.917 91.584H247.053L245.693 98.384L252.605 91.584H253.693L252.013 100H250.845L252.237 93.2L245.325 100H244.221L245.917 91.584ZM250.061 90.352C249.41 90.352 248.898 90.208 248.525 89.92C248.152 89.6213 247.965 89.2213 247.965 88.72C247.965 88.5813 247.981 88.4427 248.013 88.304H248.797C248.786 88.368 248.781 88.4533 248.781 88.56C248.781 88.9013 248.898 89.1787 249.133 89.392C249.378 89.5947 249.709 89.696 250.125 89.696C250.584 89.696 250.978 89.5733 251.309 89.328C251.64 89.072 251.858 88.7307 251.965 88.304H252.765C252.626 88.9547 252.317 89.4613 251.837 89.824C251.368 90.176 250.776 90.352 250.061 90.352ZM255.525 98.336C255.759 98.336 255.951 98.416 256.101 98.576C256.261 98.736 256.341 98.9333 256.341 99.168C256.341 99.3067 256.314 99.4347 256.261 99.552C256.218 99.6693 256.143 99.824 256.037 100.016L254.821 102.336H254.053L255.077 99.984C254.938 99.92 254.826 99.824 254.741 99.696C254.666 99.5573 254.629 99.408 254.629 99.248C254.629 98.992 254.714 98.7787 254.885 98.608C255.066 98.4267 255.279 98.336 255.525 98.336ZM271.599 91.584L265.455 101.088C264.943 101.877 264.463 102.421 264.015 102.72C263.567 103.029 263.034 103.184 262.415 103.184C262.01 103.184 261.626 103.115 261.263 102.976C260.9 102.848 260.618 102.667 260.415 102.432L261.023 101.6C261.407 102.005 261.903 102.208 262.511 102.208C262.884 102.208 263.22 102.107 263.519 101.904C263.818 101.701 264.127 101.349 264.447 100.848L265.039 99.952L262.943 91.584H264.095L265.839 98.752L270.431 91.584H271.599ZM278.466 99.008H279.778L279.186 102.032H278.114L278.514 100H270.978L270.578 102.032H269.506L270.098 99.008H270.53C271.095 98.976 271.57 98.5493 271.954 97.728C272.338 96.9067 272.711 95.7813 273.074 94.352L273.746 91.584H279.938L278.466 99.008ZM274.098 94.512C273.788 95.7387 273.49 96.72 273.202 97.456C272.914 98.192 272.556 98.7093 272.13 99.008H277.33L278.61 92.592H274.562L274.098 94.512ZM285.624 100.08C284.856 100.08 284.184 99.936 283.608 99.648C283.032 99.3493 282.584 98.9333 282.264 98.4C281.955 97.856 281.8 97.2267 281.8 96.512C281.8 95.5627 282.008 94.7093 282.424 93.952C282.84 93.1947 283.416 92.6027 284.152 92.176C284.899 91.7387 285.736 91.52 286.664 91.52C287.837 91.52 288.765 91.84 289.448 92.48C290.141 93.12 290.488 93.984 290.488 95.072C290.488 96.0213 290.28 96.88 289.864 97.648C289.448 98.4053 288.867 99.0027 288.12 99.44C287.384 99.8667 286.552 100.08 285.624 100.08ZM285.704 99.072C286.397 99.072 287.021 98.9067 287.576 98.576C288.131 98.2347 288.563 97.7653 288.872 97.168C289.192 96.56 289.352 95.8827 289.352 95.136C289.352 94.3147 289.107 93.6747 288.616 93.216C288.136 92.7467 287.459 92.512 286.584 92.512C285.891 92.512 285.267 92.6827 284.712 93.024C284.157 93.3653 283.72 93.84 283.4 94.448C283.091 95.0453 282.936 95.7173 282.936 96.464C282.936 97.2853 283.176 97.9253 283.656 98.384C284.147 98.8427 284.829 99.072 285.704 99.072ZM297.729 92.032C298.796 92.032 299.628 92.3307 300.225 92.928C300.833 93.5147 301.137 94.3253 301.137 95.36C301.137 96.256 300.924 97.0667 300.497 97.792C300.07 98.5173 299.484 99.088 298.737 99.504C297.99 99.92 297.153 100.128 296.225 100.128C295.02 100.128 294.081 99.7707 293.409 99.056C292.748 98.3413 292.417 97.3173 292.417 95.984C292.417 94.8213 292.652 93.7333 293.121 92.72C293.59 91.7067 294.241 90.8533 295.073 90.16C295.916 89.4667 296.881 89.0027 297.969 88.768L301.873 87.952L301.905 88.944L298.225 89.712C297.105 89.9467 296.161 90.4373 295.393 91.184C294.636 91.92 294.097 92.8587 293.777 94C294.278 93.36 294.86 92.8747 295.521 92.544C296.193 92.2027 296.929 92.032 297.729 92.032ZM296.289 99.232C296.961 99.232 297.574 99.072 298.129 98.752C298.684 98.4213 299.121 97.9787 299.441 97.424C299.761 96.8587 299.921 96.2347 299.921 95.552C299.921 94.752 299.697 94.1387 299.249 93.712C298.812 93.2747 298.182 93.056 297.361 93.056C296.71 93.056 296.086 93.2107 295.489 93.52C294.902 93.8293 294.428 94.24 294.065 94.752C293.713 95.2533 293.537 95.7813 293.537 96.336C293.537 97.232 293.782 97.9413 294.273 98.464C294.764 98.976 295.436 99.232 296.289 99.232ZM304.386 91.584H305.522L304.786 95.312H310.066L310.818 91.584H311.954L310.274 100H309.138L309.874 96.288H304.594L303.842 100H302.706L304.386 91.584ZM317.343 100.08C316.575 100.08 315.903 99.936 315.327 99.648C314.751 99.3493 314.303 98.9333 313.983 98.4C313.673 97.856 313.519 97.2267 313.519 96.512C313.519 95.5627 313.727 94.7093 314.143 93.952C314.559 93.1947 315.135 92.6027 315.871 92.176C316.617 91.7387 317.455 91.52 318.383 91.52C319.556 91.52 320.484 91.84 321.167 92.48C321.86 93.12 322.207 93.984 322.207 95.072C322.207 96.0213 321.999 96.88 321.583 97.648C321.167 98.4053 320.585 99.0027 319.839 99.44C319.103 99.8667 318.271 100.08 317.343 100.08ZM317.423 99.072C318.116 99.072 318.74 98.9067 319.295 98.576C319.849 98.2347 320.281 97.7653 320.591 97.168C320.911 96.56 321.071 95.8827 321.071 95.136C321.071 94.3147 320.825 93.6747 320.335 93.216C319.855 92.7467 319.177 92.512 318.303 92.512C317.609 92.512 316.985 92.6827 316.431 93.024C315.876 93.3653 315.439 93.84 315.119 94.448C314.809 95.0453 314.655 95.7173 314.655 96.464C314.655 97.2853 314.895 97.9253 315.375 98.384C315.865 98.8427 316.548 99.072 317.423 99.072ZM325.48 91.584H326.616L325.256 98.384L332.168 91.584H333.256L331.576 100H330.408L331.8 93.2L324.888 100H323.784L325.48 91.584ZM329.624 90.352C328.973 90.352 328.461 90.208 328.088 89.92C327.714 89.6213 327.528 89.2213 327.528 88.72C327.528 88.5813 327.544 88.4427 327.576 88.304H328.36C328.349 88.368 328.344 88.4533 328.344 88.56C328.344 88.9013 328.461 89.1787 328.696 89.392C328.941 89.5947 329.272 89.696 329.688 89.696C330.146 89.696 330.541 89.5733 330.872 89.328C331.202 89.072 331.421 88.7307 331.528 88.304H332.328C332.189 88.9547 331.88 89.4613 331.4 89.824C330.93 90.176 330.338 90.352 329.624 90.352ZM340.683 91.584H341.819L340.459 98.384L347.371 91.584H348.459L346.779 100H345.611L347.003 93.2L340.091 100H338.987L340.683 91.584ZM361.294 99.008H362.606L362.014 102.032H360.942L361.342 100H353.806L353.406 102.032H352.334L352.926 99.008H353.358C353.923 98.976 354.398 98.5493 354.782 97.728C355.166 96.9067 355.539 95.7813 355.902 94.352L356.574 91.584H362.766L361.294 99.008ZM356.926 94.512C356.617 95.7387 356.318 96.72 356.03 97.456C355.742 98.192 355.385 98.7093 354.958 99.008H360.158L361.438 92.592H357.39L356.926 94.512ZM368.452 100.08C367.684 100.08 367.012 99.936 366.436 99.648C365.86 99.3493 365.412 98.9333 365.092 98.4C364.783 97.856 364.628 97.2267 364.628 96.512C364.628 95.5627 364.836 94.7093 365.252 93.952C365.668 93.1947 366.244 92.6027 366.98 92.176C367.727 91.7387 368.564 91.52 369.492 91.52C370.665 91.52 371.593 91.84 372.276 92.48C372.969 93.12 373.316 93.984 373.316 95.072C373.316 96.0213 373.108 96.88 372.692 97.648C372.276 98.4053 371.695 99.0027 370.948 99.44C370.212 99.8667 369.38 100.08 368.452 100.08ZM368.532 99.072C369.225 99.072 369.849 98.9067 370.404 98.576C370.959 98.2347 371.391 97.7653 371.7 97.168C372.02 96.56 372.18 95.8827 372.18 95.136C372.18 94.3147 371.935 93.6747 371.444 93.216C370.964 92.7467 370.287 92.512 369.412 92.512C368.719 92.512 368.095 92.6827 367.54 93.024C366.985 93.3653 366.548 93.84 366.228 94.448C365.919 95.0453 365.764 95.7173 365.764 96.464C365.764 97.2853 366.004 97.9253 366.484 98.384C366.975 98.8427 367.657 99.072 368.532 99.072ZM378.813 100.08C378.024 100.08 377.336 99.936 376.749 99.648C376.162 99.3493 375.709 98.9333 375.389 98.4C375.08 97.856 374.925 97.2267 374.925 96.512C374.925 95.5627 375.133 94.7093 375.549 93.952C375.965 93.1947 376.546 92.6027 377.293 92.176C378.04 91.7387 378.882 91.52 379.821 91.52C380.6 91.52 381.266 91.664 381.821 91.952C382.386 92.2293 382.824 92.6453 383.133 93.2L382.173 93.76C381.693 92.928 380.877 92.512 379.725 92.512C379.032 92.512 378.402 92.6827 377.837 93.024C377.282 93.3653 376.845 93.8347 376.525 94.432C376.216 95.0293 376.061 95.7067 376.061 96.464C376.061 97.2853 376.301 97.9253 376.781 98.384C377.272 98.8427 377.965 99.072 378.861 99.072C379.405 99.072 379.906 98.9707 380.365 98.768C380.834 98.5547 381.218 98.2507 381.517 97.856L382.333 98.48C381.96 98.9813 381.458 99.376 380.829 99.664C380.21 99.9413 379.538 100.08 378.813 100.08ZM391.364 92.592H388.164L386.692 100H385.556L387.028 92.592H383.86L384.052 91.584H391.572L391.364 92.592ZM400.333 91.584L394.189 101.088C393.677 101.877 393.197 102.421 392.749 102.72C392.301 103.029 391.768 103.184 391.149 103.184C390.744 103.184 390.36 103.115 389.997 102.976C389.635 102.848 389.352 102.667 389.149 102.432L389.757 101.6C390.141 102.005 390.637 102.208 391.245 102.208C391.619 102.208 391.955 102.107 392.253 101.904C392.552 101.701 392.861 101.349 393.181 100.848L393.773 99.952L391.677 91.584H392.829L394.573 98.752L399.165 91.584H400.333ZM409.703 91.584L408.023 100H406.887L408.343 92.592H403.063L401.607 100H400.471L402.151 91.584H409.703ZM412.917 91.584H414.053L413.317 95.312H418.597L419.349 91.584H420.485L418.805 100H417.669L418.405 96.288H413.125L412.373 100H411.237L412.917 91.584ZM425.874 100.08C425.106 100.08 424.434 99.936 423.858 99.648C423.282 99.3493 422.834 98.9333 422.514 98.4C422.205 97.856 422.05 97.2267 422.05 96.512C422.05 95.5627 422.258 94.7093 422.674 93.952C423.09 93.1947 423.666 92.6027 424.402 92.176C425.149 91.7387 425.986 91.52 426.914 91.52C428.087 91.52 429.015 91.84 429.698 92.48C430.391 93.12 430.738 93.984 430.738 95.072C430.738 96.0213 430.53 96.88 430.114 97.648C429.698 98.4053 429.117 99.0027 428.37 99.44C427.634 99.8667 426.802 100.08 425.874 100.08ZM425.954 99.072C426.647 99.072 427.271 98.9067 427.826 98.576C428.381 98.2347 428.813 97.7653 429.122 97.168C429.442 96.56 429.602 95.8827 429.602 95.136C429.602 94.3147 429.357 93.6747 428.866 93.216C428.386 92.7467 427.709 92.512 426.834 92.512C426.141 92.512 425.517 92.6827 424.962 93.024C424.407 93.3653 423.97 93.84 423.65 94.448C423.341 95.0453 423.186 95.7173 423.186 96.464C423.186 97.2853 423.426 97.9253 423.906 98.384C424.397 98.8427 425.079 99.072 425.954 99.072ZM434.011 91.584H435.147L433.787 98.384L440.699 91.584H441.787L440.107 100H438.939L440.331 93.2L433.419 100H432.315L434.011 91.584ZM438.155 90.352C437.504 90.352 436.992 90.208 436.619 89.92C436.246 89.6213 436.059 89.2213 436.059 88.72C436.059 88.5813 436.075 88.4427 436.107 88.304H436.891C436.88 88.368 436.875 88.4533 436.875 88.56C436.875 88.9013 436.992 89.1787 437.227 89.392C437.472 89.5947 437.803 89.696 438.219 89.696C438.678 89.696 439.072 89.5733 439.403 89.328C439.734 89.072 439.952 88.7307 440.059 88.304H440.859C440.72 88.9547 440.411 89.4613 439.931 89.824C439.462 90.176 438.87 90.352 438.155 90.352ZM452.286 95.728L454.99 100H453.694L451.39 96.256H449.406L448.654 100H447.518L449.214 91.584H450.35L449.598 95.28H451.47L455.198 91.584H456.478L452.286 95.728ZM465.975 91.584L464.295 100H463.207L463.479 98.672C463.073 99.12 462.593 99.4667 462.039 99.712C461.484 99.9573 460.871 100.08 460.199 100.08C459.484 100.08 458.849 99.936 458.295 99.648C457.74 99.36 457.308 98.9493 456.999 98.416C456.689 97.872 456.535 97.2373 456.535 96.512C456.535 95.5627 456.737 94.7093 457.143 93.952C457.559 93.1947 458.129 92.6027 458.855 92.176C459.58 91.7387 460.391 91.52 461.287 91.52C462.087 91.52 462.759 91.68 463.303 92C463.847 92.3093 464.241 92.7573 464.487 93.344L464.839 91.584H465.975ZM460.439 99.072C461.132 99.072 461.756 98.9067 462.311 98.576C462.865 98.2347 463.297 97.7653 463.607 97.168C463.927 96.56 464.087 95.8827 464.087 95.136C464.087 94.3147 463.841 93.6747 463.351 93.216C462.871 92.7467 462.193 92.512 461.319 92.512C460.625 92.512 460.001 92.6827 459.447 93.024C458.892 93.3653 458.455 93.84 458.135 94.448C457.825 95.0453 457.671 95.7173 457.671 96.464C457.671 97.2853 457.911 97.9253 458.391 98.384C458.881 98.8427 459.564 99.072 460.439 99.072ZM476.654 95.76L478.846 100H477.518L475.662 96.224H473.854L473.086 100H471.95L472.702 96.224H470.926L467.598 100H466.174L470.094 95.632L468.126 91.584H469.326L471.07 95.296H472.894L473.63 91.584H474.782L474.03 95.296H475.822L479.054 91.584H480.334L476.654 95.76ZM487.856 99.008H489.168L488.576 102.032H487.504L487.904 100H480.368L479.968 102.032H478.896L479.488 99.008H479.92C480.486 98.976 480.96 98.5493 481.344 97.728C481.728 96.9067 482.102 95.7813 482.464 94.352L483.136 91.584H489.328L487.856 99.008ZM483.488 94.512C483.179 95.7387 482.88 96.72 482.592 97.456C482.304 98.192 481.947 98.7093 481.52 99.008H486.72L488 92.592H483.952L483.488 94.512ZM495.015 100.08C494.247 100.08 493.575 99.936 492.999 99.648C492.423 99.3493 491.975 98.9333 491.655 98.4C491.345 97.856 491.191 97.2267 491.191 96.512C491.191 95.5627 491.399 94.7093 491.815 93.952C492.231 93.1947 492.807 92.6027 493.543 92.176C494.289 91.7387 495.127 91.52 496.055 91.52C497.228 91.52 498.156 91.84 498.839 92.48C499.532 93.12 499.879 93.984 499.879 95.072C499.879 96.0213 499.671 96.88 499.255 97.648C498.839 98.4053 498.257 99.0027 497.511 99.44C496.775 99.8667 495.943 100.08 495.015 100.08ZM495.095 99.072C495.788 99.072 496.412 98.9067 496.967 98.576C497.521 98.2347 497.953 97.7653 498.263 97.168C498.583 96.56 498.743 95.8827 498.743 95.136C498.743 94.3147 498.497 93.6747 498.007 93.216C497.527 92.7467 496.849 92.512 495.975 92.512C495.281 92.512 494.657 92.6827 494.103 93.024C493.548 93.3653 493.111 93.84 492.791 94.448C492.481 95.0453 492.327 95.7173 492.327 96.464C492.327 97.2853 492.567 97.9253 493.047 98.384C493.537 98.8427 494.22 99.072 495.095 99.072ZM512.544 91.584L510.864 100H509.824L511.152 93.344L506.624 98.976H506.112L503.84 93.28L502.496 100H501.456L503.136 91.584H504.272L506.624 97.648L511.472 91.584H512.544ZM522.865 91.584L516.721 101.088C516.209 101.877 515.729 102.421 515.281 102.72C514.833 103.029 514.299 103.184 513.681 103.184C513.275 103.184 512.891 103.115 512.528 102.976C512.166 102.848 511.883 102.667 511.68 102.432L512.288 101.6C512.672 102.005 513.168 102.208 513.777 102.208C514.15 102.208 514.486 102.107 514.785 101.904C515.083 101.701 515.393 101.349 515.713 100.848L516.305 99.952L514.209 91.584H515.361L517.105 98.752L521.697 91.584H522.865Z" fill="#333333"/>
<path d="M32.976 129.6H27.776L26.784 132H24.128L29.12 120.8H31.68L36.688 132H33.968L32.976 129.6ZM32.16 127.632L30.384 123.344L28.608 127.632H32.16ZM37.9813 123.392H40.4613V126.752H44.2053V123.392H46.7013V132H44.2053V128.784H40.4613V132H37.9813V123.392ZM52.4346 123.264C53.768 123.264 54.792 123.584 55.5066 124.224C56.2213 124.853 56.5786 125.808 56.5786 127.088V132H54.2426V130.928C53.7733 131.728 52.8986 132.128 51.6186 132.128C50.9573 132.128 50.3813 132.016 49.8906 131.792C49.4106 131.568 49.0426 131.259 48.7866 130.864C48.5306 130.469 48.4026 130.021 48.4026 129.52C48.4026 128.72 48.7013 128.091 49.2986 127.632C49.9066 127.173 50.84 126.944 52.0986 126.944H54.0826C54.0826 126.4 53.9173 125.984 53.5866 125.696C53.256 125.397 52.76 125.248 52.0986 125.248C51.64 125.248 51.1866 125.323 50.7386 125.472C50.3013 125.611 49.928 125.803 49.6186 126.048L48.7226 124.304C49.192 123.973 49.752 123.717 50.4026 123.536C51.064 123.355 51.7413 123.264 52.4346 123.264ZM52.2426 130.448C52.6693 130.448 53.048 130.352 53.3786 130.16C53.7093 129.957 53.944 129.664 54.0826 129.28V128.4H52.3706C51.3466 128.4 50.8346 128.736 50.8346 129.408C50.8346 129.728 50.9573 129.984 51.2026 130.176C51.4586 130.357 51.8053 130.448 52.2426 130.448ZM67.8061 127.488H66.0141V132H63.4381V120.8H66.0141V125.328H67.8701L70.8141 120.8H73.5501L69.8861 126.208L73.6621 132H70.7181L67.8061 127.488ZM79.9595 123.264C80.7595 123.264 81.4848 123.451 82.1355 123.824C82.7968 124.187 83.3142 124.704 83.6875 125.376C84.0608 126.037 84.2475 126.811 84.2475 127.696C84.2475 128.581 84.0608 129.36 83.6875 130.032C83.3142 130.693 82.7968 131.211 82.1355 131.584C81.4848 131.947 80.7595 132.128 79.9595 132.128C78.8608 132.128 77.9968 131.781 77.3675 131.088V135.104H74.8715V123.392H77.2555V124.384C77.8742 123.637 78.7755 123.264 79.9595 123.264ZM79.5275 130.08C80.1675 130.08 80.6902 129.867 81.0955 129.44C81.5115 129.003 81.7195 128.421 81.7195 127.696C81.7195 126.971 81.5115 126.395 81.0955 125.968C80.6902 125.531 80.1675 125.312 79.5275 125.312C78.8875 125.312 78.3595 125.531 77.9435 125.968C77.5382 126.395 77.3355 126.971 77.3355 127.696C77.3355 128.421 77.5382 129.003 77.9435 129.44C78.3595 129.867 78.8875 130.08 79.5275 130.08ZM90.5249 126.144C91.6449 126.155 92.4929 126.405 93.0689 126.896C93.6449 127.387 93.9329 128.091 93.9329 129.008C93.9329 129.968 93.6075 130.709 92.9569 131.232C92.3062 131.755 91.3835 132.016 90.1889 132.016L85.9969 132V123.392H88.4769V126.144H90.5249ZM94.8609 123.392H97.3409V132H94.8609V123.392ZM89.9649 130.24C90.4449 130.251 90.8129 130.149 91.0689 129.936C91.3249 129.723 91.4529 129.403 91.4529 128.976C91.4529 128.56 91.3249 128.256 91.0689 128.064C90.8235 127.872 90.4555 127.771 89.9649 127.76L88.4769 127.744V130.24H89.9649ZM108.147 132V126.848L105.571 131.168H104.515L102.003 126.832V132H99.7469V123.392H102.355L105.107 128.368L108.035 123.392H110.371L110.403 132H108.147ZM116.89 132.128C115.972 132.128 115.146 131.941 114.41 131.568C113.684 131.184 113.114 130.656 112.698 129.984C112.292 129.312 112.09 128.549 112.09 127.696C112.09 126.843 112.292 126.08 112.698 125.408C113.114 124.736 113.684 124.213 114.41 123.84C115.146 123.456 115.972 123.264 116.89 123.264C117.796 123.264 118.586 123.456 119.258 123.84C119.94 124.213 120.436 124.752 120.746 125.456L118.81 126.496C118.362 125.707 117.716 125.312 116.874 125.312C116.223 125.312 115.684 125.525 115.258 125.952C114.831 126.379 114.618 126.96 114.618 127.696C114.618 128.432 114.831 129.013 115.258 129.44C115.684 129.867 116.223 130.08 116.874 130.08C117.727 130.08 118.372 129.685 118.81 128.896L120.746 129.952C120.436 130.635 119.94 131.168 119.258 131.552C118.586 131.936 117.796 132.128 116.89 132.128ZM126.055 128.736H124.759V132H122.263V123.392H124.759V126.736H126.103L128.439 123.392H131.095L128.087 127.52L131.303 132H128.359L126.055 128.736ZM135.716 123.264C137.049 123.264 138.073 123.584 138.788 124.224C139.503 124.853 139.86 125.808 139.86 127.088V132H137.524V130.928C137.055 131.728 136.18 132.128 134.9 132.128C134.239 132.128 133.663 132.016 133.172 131.792C132.692 131.568 132.324 131.259 132.068 130.864C131.812 130.469 131.684 130.021 131.684 129.52C131.684 128.72 131.983 128.091 132.58 127.632C133.188 127.173 134.121 126.944 135.38 126.944H137.364C137.364 126.4 137.199 125.984 136.868 125.696C136.537 125.397 136.041 125.248 135.38 125.248C134.921 125.248 134.468 125.323 134.02 125.472C133.583 125.611 133.209 125.803 132.9 126.048L132.004 124.304C132.473 123.973 133.033 123.717 133.684 123.536C134.345 123.355 135.023 123.264 135.716 123.264ZM135.524 130.448C135.951 130.448 136.329 130.352 136.66 130.16C136.991 129.957 137.225 129.664 137.364 129.28V128.4H135.652C134.628 128.4 134.116 128.736 134.116 129.408C134.116 129.728 134.239 129.984 134.484 130.176C134.74 130.357 135.087 130.448 135.524 130.448ZM149.676 123.392V132H147.452V129.536H145.612L143.98 132H141.324L143.292 129.184C142.695 128.949 142.236 128.613 141.916 128.176C141.607 127.728 141.452 127.189 141.452 126.56C141.452 125.547 141.815 124.768 142.54 124.224C143.276 123.669 144.284 123.392 145.564 123.392H149.676ZM145.612 125.424C145.079 125.424 144.673 125.52 144.396 125.712C144.129 125.904 143.996 126.213 143.996 126.64C143.996 127.067 144.124 127.381 144.38 127.584C144.647 127.776 145.047 127.872 145.58 127.872H147.452V125.424H145.612Z" fill="#333333"/>
</svg>
