<svg width="374" height="218" viewBox="0 0 374 218" fill="none" xmlns="http://www.w3.org/2000/svg">
<rect width="374" height="218" rx="16" fill="#F3F7FE"/>
<path opacity="0.06" d="M27.0813 31.3529C27.8607 32.2941 28.4538 33.5 28.8604 34.9706C29.2671 36.3824 29.4704 37.9706 29.4704 39.7353C29.4704 43.3824 28.7757 46.3529 27.3863 48.6471C25.9969 50.8824 24.2856 52 22.2523 52C20.3885 52 18.8805 51.0294 17.7283 49.0882C16.5761 47.1471 16 44.6176 16 41.5C16 39.9118 16.1694 38.3824 16.5083 36.9118C16.8472 35.4412 17.4741 33.5588 18.3891 31.2647L24.3872 16H31.5037L27.0813 31.3529ZM41.8225 31.3529C42.602 32.2941 43.195 33.5 43.6016 34.9706C44.0083 36.3824 44.2116 37.9706 44.2116 39.7353C44.2116 43.3824 43.5169 46.3529 42.1275 48.6471C40.7381 50.8824 39.0268 52 36.9935 52C35.1297 52 33.6217 51.0294 32.4695 49.0882C31.3173 47.1471 30.7412 44.6176 30.7412 41.5C30.7412 39.9118 30.9107 38.3824 31.2495 36.9118C31.5884 35.4412 32.2153 33.5588 33.1303 31.2647L39.1285 16H46.2449L41.8225 31.3529Z" fill="#333333"/>
<path d="M30.928 32.8L28.688 44H27.552L29.328 35.12L23.536 42.576H22.976L19.984 34.976L18.192 44H17.056L19.296 32.8H20.256L23.488 41.12L29.888 32.8H30.928ZM42.0463 35.584H43.1823L41.5023 44H40.3663L42.0463 35.584ZM36.7183 38.544C38.6063 38.544 39.5503 39.296 39.5503 40.8C39.5503 41.44 39.3849 42.0053 39.0543 42.496C38.7343 42.976 38.2756 43.3493 37.6783 43.616C37.0916 43.872 36.4089 44 35.6302 44H32.1743L33.8543 35.616H34.9903L34.4143 38.544H36.7183ZM35.6302 43.136C36.4623 43.136 37.1343 42.9333 37.6463 42.528C38.1583 42.112 38.4143 41.568 38.4143 40.896C38.4143 40.3947 38.2436 40.0213 37.9023 39.776C37.5716 39.52 37.0649 39.392 36.3823 39.392H34.2383L33.5023 43.136H35.6302ZM53.6446 39.648C54.178 39.7867 54.5833 40.0107 54.8606 40.32C55.138 40.6187 55.2766 40.992 55.2766 41.44C55.2766 41.9413 55.1006 42.3947 54.7486 42.8C54.4073 43.2053 53.9273 43.5253 53.3086 43.76C52.7006 43.984 52.018 44.096 51.2606 44.096C49.9486 44.096 48.8766 43.7387 48.0446 43.024L48.5246 42.224C48.834 42.512 49.2286 42.7307 49.7086 42.88C50.1886 43.0293 50.7113 43.104 51.2766 43.104C51.8206 43.104 52.3113 43.0293 52.7486 42.88C53.186 42.7307 53.5273 42.5227 53.7726 42.256C54.018 41.9893 54.1406 41.6907 54.1406 41.36C54.1406 40.9547 53.9593 40.64 53.5966 40.416C53.2446 40.192 52.754 40.08 52.1246 40.08H50.7326L50.8606 39.216H52.0606C52.786 39.216 53.3673 39.0827 53.8046 38.816C54.2526 38.5493 54.4766 38.1973 54.4766 37.76C54.4766 37.3547 54.3006 37.04 53.9486 36.816C53.5966 36.592 53.1113 36.48 52.4926 36.48C51.6926 36.48 50.802 36.7093 49.8206 37.168L49.5006 36.224C50.5246 35.7333 51.554 35.488 52.5886 35.488C53.506 35.488 54.242 35.68 54.7966 36.064C55.362 36.4373 55.6446 36.944 55.6446 37.584C55.6446 38.0747 55.4686 38.5013 55.1166 38.864C54.7646 39.2267 54.274 39.488 53.6446 39.648ZM58.9949 35.584H60.1309L59.3949 39.312H64.6749L65.4269 35.584H66.5629L64.8829 44H63.7469L64.4829 40.288H59.2029L58.4509 44H57.3149L58.9949 35.584ZM77.5841 35.584L75.9041 44H74.8161L75.0881 42.672C74.6828 43.12 74.2028 43.4667 73.6481 43.712C73.0935 43.9573 72.4801 44.08 71.8081 44.08C71.0935 44.08 70.4588 43.936 69.9041 43.648C69.3495 43.36 68.9175 42.9493 68.6081 42.416C68.2988 41.872 68.1441 41.2373 68.1441 40.512C68.1441 39.5627 68.3468 38.7093 68.7521 37.952C69.1681 37.1947 69.7388 36.6027 70.4641 36.176C71.1895 35.7387 72.0001 35.52 72.8961 35.52C73.6961 35.52 74.3681 35.68 74.9121 36C75.4561 36.3093 75.8508 36.7573 76.0961 37.344L76.4481 35.584H77.5841ZM72.0481 43.072C72.7415 43.072 73.3655 42.9067 73.9201 42.576C74.4748 42.2347 74.9068 41.7653 75.2161 41.168C75.5361 40.56 75.6961 39.8827 75.6961 39.136C75.6961 38.3147 75.4508 37.6747 74.9601 37.216C74.4801 36.7467 73.8028 36.512 72.9281 36.512C72.2348 36.512 71.6108 36.6827 71.0561 37.024C70.5015 37.3653 70.0641 37.84 69.7441 38.448C69.4348 39.0453 69.2801 39.7173 69.2801 40.464C69.2801 41.2853 69.5201 41.9253 70.0001 42.384C70.4908 42.8427 71.1735 43.072 72.0481 43.072ZM80.3114 40.112C80.3007 40.1867 80.2954 40.2987 80.2954 40.448C80.2954 41.3013 80.5354 41.952 81.0154 42.4C81.506 42.848 82.2314 43.072 83.1914 43.072C83.746 43.072 84.2634 42.9813 84.7434 42.8C85.234 42.608 85.634 42.3467 85.9434 42.016L86.4554 42.832C86.0607 43.2267 85.5647 43.536 84.9674 43.76C84.3807 43.9733 83.7567 44.08 83.0954 44.08C81.8794 44.08 80.9194 43.76 80.2154 43.12C79.522 42.48 79.1754 41.6053 79.1754 40.496C79.1754 39.5573 79.3727 38.7093 79.7674 37.952C80.1727 37.1947 80.7274 36.6027 81.4314 36.176C82.146 35.7387 82.946 35.52 83.8314 35.52C84.9514 35.52 85.842 35.84 86.5034 36.48C87.1647 37.1093 87.4954 37.9787 87.4954 39.088C87.4954 39.3973 87.458 39.7387 87.3834 40.112H80.3114ZM83.7994 36.48C82.9567 36.48 82.2367 36.7307 81.6394 37.232C81.042 37.7333 80.6367 38.4107 80.4234 39.264H86.4234C86.434 39.1893 86.4394 39.088 86.4394 38.96C86.4394 38.1707 86.1994 37.5627 85.7194 37.136C85.2394 36.6987 84.5994 36.48 83.7994 36.48ZM100.184 35.584L98.5041 44H97.4641L98.7921 37.344L94.2641 42.976H93.7521L91.4801 37.28L90.1361 44H89.0961L90.7761 35.584H91.9121L94.2641 41.648L99.1121 35.584H100.184ZM102.009 42.336C102.244 42.336 102.436 42.416 102.585 42.576C102.745 42.736 102.825 42.9333 102.825 43.168C102.825 43.3067 102.798 43.4347 102.745 43.552C102.702 43.6693 102.628 43.824 102.521 44.016L101.305 46.336H100.537L101.561 43.984C101.422 43.92 101.31 43.824 101.225 43.696C101.15 43.5573 101.113 43.408 101.113 43.248C101.113 42.992 101.198 42.7787 101.369 42.608C101.55 42.4267 101.764 42.336 102.009 42.336ZM117.331 35.584L115.651 44H114.515L115.203 40.528C114.179 40.9333 113.209 41.136 112.291 41.136C111.406 41.136 110.713 40.96 110.211 40.608C109.721 40.2453 109.475 39.7173 109.475 39.024C109.475 38.8427 109.502 38.608 109.555 38.32L110.099 35.584H111.235L110.691 38.336C110.659 38.496 110.643 38.6507 110.643 38.8C110.643 39.2693 110.809 39.6213 111.139 39.856C111.47 40.0907 111.934 40.208 112.531 40.208C113.385 40.208 114.345 39.984 115.411 39.536L116.195 35.584H117.331ZM126.27 36.592H123.07L121.598 44H120.462L121.934 36.592H118.766L118.958 35.584H126.478L126.27 36.592ZM129.89 44.08C129.122 44.08 128.45 43.936 127.874 43.648C127.298 43.3493 126.85 42.9333 126.53 42.4C126.22 41.856 126.066 41.2267 126.066 40.512C126.066 39.5627 126.274 38.7093 126.69 37.952C127.106 37.1947 127.682 36.6027 128.418 36.176C129.164 35.7387 130.002 35.52 130.93 35.52C132.103 35.52 133.031 35.84 133.714 36.48C134.407 37.12 134.754 37.984 134.754 39.072C134.754 40.0213 134.546 40.88 134.13 41.648C133.714 42.4053 133.132 43.0027 132.386 43.44C131.65 43.8667 130.818 44.08 129.89 44.08ZM129.97 43.072C130.663 43.072 131.287 42.9067 131.842 42.576C132.396 42.2347 132.828 41.7653 133.138 41.168C133.458 40.56 133.618 39.8827 133.618 39.136C133.618 38.3147 133.372 37.6747 132.882 37.216C132.402 36.7467 131.724 36.512 130.85 36.512C130.156 36.512 129.532 36.6827 128.978 37.024C128.423 37.3653 127.986 37.84 127.666 38.448C127.356 39.0453 127.202 39.7173 127.202 40.464C127.202 41.2853 127.442 41.9253 127.922 42.384C128.412 42.8427 129.095 43.072 129.97 43.072ZM142.198 35.584H143.334L142.598 39.312H147.878L148.63 35.584H149.766L148.086 44H146.95L147.686 40.288H142.406L141.654 44H140.518L142.198 35.584ZM160.083 35.584L153.939 45.088C153.427 45.8773 152.947 46.4213 152.499 46.72C152.051 47.0293 151.518 47.184 150.899 47.184C150.494 47.184 150.11 47.1147 149.747 46.976C149.385 46.848 149.102 46.6667 148.899 46.432L149.507 45.6C149.891 46.0053 150.387 46.208 150.995 46.208C151.369 46.208 151.705 46.1067 152.003 45.904C152.302 45.7013 152.611 45.3493 152.931 44.848L153.523 43.952L151.427 35.584H152.579L154.323 42.752L158.915 35.584H160.083ZM168.873 39.76L171.065 44H169.737L167.881 40.224H166.073L165.305 44H164.169L164.921 40.224H163.145L159.817 44H158.393L162.313 39.632L160.345 35.584H161.545L163.289 39.296H165.113L165.849 35.584H167.001L166.249 39.296H168.041L171.273 35.584H172.553L168.873 39.76ZM180.075 43.008H181.387L180.795 46.032H179.723L180.123 44H172.587L172.187 46.032H171.115L171.707 43.008H172.139C172.704 42.976 173.179 42.5493 173.563 41.728C173.947 40.9067 174.32 39.7813 174.683 38.352L175.355 35.584H181.547L180.075 43.008ZM175.707 38.512C175.398 39.7387 175.099 40.72 174.811 41.456C174.523 42.192 174.166 42.7093 173.739 43.008H178.939L180.219 36.592H176.171L175.707 38.512ZM192.865 35.584L191.185 44H190.097L190.369 42.672C189.964 43.12 189.484 43.4667 188.929 43.712C188.375 43.9573 187.761 44.08 187.089 44.08C186.375 44.08 185.74 43.936 185.185 43.648C184.631 43.36 184.199 42.9493 183.889 42.416C183.58 41.872 183.425 41.2373 183.425 40.512C183.425 39.5627 183.628 38.7093 184.033 37.952C184.449 37.1947 185.02 36.6027 185.745 36.176C186.471 35.7387 187.281 35.52 188.177 35.52C188.977 35.52 189.649 35.68 190.193 36C190.737 36.3093 191.132 36.7573 191.377 37.344L191.729 35.584H192.865ZM187.329 43.072C188.023 43.072 188.647 42.9067 189.201 42.576C189.756 42.2347 190.188 41.7653 190.497 41.168C190.817 40.56 190.977 39.8827 190.977 39.136C190.977 38.3147 190.732 37.6747 190.241 37.216C189.761 36.7467 189.084 36.512 188.209 36.512C187.516 36.512 186.892 36.6827 186.337 37.024C185.783 37.3653 185.345 37.84 185.025 38.448C184.716 39.0453 184.561 39.7173 184.561 40.464C184.561 41.2853 184.801 41.9253 185.281 42.384C185.772 42.8427 186.455 43.072 187.329 43.072ZM201.817 36.592H198.617L197.145 44H196.009L197.481 36.592H194.313L194.505 35.584H202.025L201.817 36.592ZM206.579 38.544C208.467 38.544 209.411 39.296 209.411 40.8C209.411 41.44 209.246 42.0053 208.915 42.496C208.595 42.976 208.136 43.3493 207.539 43.616C206.952 43.872 206.27 44 205.491 44H201.971L203.651 35.616H204.787L204.211 38.544H206.579ZM205.491 43.136C206.323 43.136 206.995 42.9333 207.507 42.528C208.019 42.112 208.275 41.568 208.275 40.896C208.275 40.3947 208.104 40.0213 207.763 39.776C207.432 39.52 206.926 39.392 206.243 39.392H204.035L203.299 43.136H205.491ZM214.876 44.08C214.086 44.08 213.398 43.936 212.812 43.648C212.225 43.3493 211.772 42.9333 211.452 42.4C211.142 41.856 210.988 41.2267 210.988 40.512C210.988 39.5627 211.196 38.7093 211.612 37.952C212.028 37.1947 212.609 36.6027 213.356 36.176C214.102 35.7387 214.945 35.52 215.884 35.52C216.662 35.52 217.329 35.664 217.884 35.952C218.449 36.2293 218.886 36.6453 219.196 37.2L218.236 37.76C217.756 36.928 216.94 36.512 215.788 36.512C215.094 36.512 214.465 36.6827 213.9 37.024C213.345 37.3653 212.908 37.8347 212.588 38.432C212.278 39.0293 212.124 39.7067 212.124 40.464C212.124 41.2853 212.364 41.9253 212.844 42.384C213.334 42.8427 214.028 43.072 214.924 43.072C215.468 43.072 215.969 42.9707 216.428 42.768C216.897 42.5547 217.281 42.2507 217.58 41.856L218.396 42.48C218.022 42.9813 217.521 43.376 216.892 43.664C216.273 43.9413 215.601 44.08 214.876 44.08ZM228.053 35.584L226.389 44H225.349L225.909 41.168H223.317H223.013L220.501 44H219.205L221.957 40.992C220.858 40.6613 220.309 39.9307 220.309 38.8C220.309 37.7973 220.682 37.0133 221.429 36.448C222.176 35.872 223.194 35.584 224.485 35.584H228.053ZM226.821 36.576H224.405C223.477 36.576 222.757 36.768 222.245 37.152C221.733 37.536 221.477 38.08 221.477 38.784C221.477 39.8187 222.149 40.336 223.493 40.336H226.085L226.821 36.576ZM239.991 39.664C240.919 39.888 241.383 40.4587 241.383 41.376C241.383 42.1973 241.053 42.8427 240.391 43.312C239.741 43.7707 238.839 44 237.687 44H233.799L235.495 35.584H239.159C240.045 35.584 240.717 35.744 241.175 36.064C241.634 36.384 241.863 36.848 241.863 37.456C241.863 37.9893 241.698 38.448 241.367 38.832C241.037 39.216 240.578 39.4933 239.991 39.664ZM235.847 39.328H238.359C239.063 39.328 239.629 39.1733 240.055 38.864C240.493 38.5547 240.711 38.1493 240.711 37.648C240.711 36.8693 240.125 36.48 238.951 36.48H236.423L235.847 39.328ZM237.751 43.104C238.541 43.104 239.154 42.9493 239.591 42.64C240.039 42.3307 240.263 41.8987 240.263 41.344C240.263 40.928 240.125 40.6293 239.847 40.448C239.581 40.2667 239.133 40.176 238.503 40.176H235.687L235.095 43.104H237.751ZM256.953 35.584L255.273 44H254.137L255.593 36.592H250.313L248.857 44H247.721L249.401 35.584H256.953ZM262.343 44.08C261.575 44.08 260.903 43.936 260.327 43.648C259.751 43.3493 259.303 42.9333 258.983 42.4C258.673 41.856 258.519 41.2267 258.519 40.512C258.519 39.5627 258.727 38.7093 259.143 37.952C259.559 37.1947 260.135 36.6027 260.871 36.176C261.617 35.7387 262.455 35.52 263.383 35.52C264.556 35.52 265.484 35.84 266.167 36.48C266.86 37.12 267.207 37.984 267.207 39.072C267.207 40.0213 266.999 40.88 266.583 41.648C266.167 42.4053 265.585 43.0027 264.839 43.44C264.103 43.8667 263.271 44.08 262.343 44.08ZM262.423 43.072C263.116 43.072 263.74 42.9067 264.295 42.576C264.849 42.2347 265.281 41.7653 265.591 41.168C265.911 40.56 266.071 39.8827 266.071 39.136C266.071 38.3147 265.825 37.6747 265.335 37.216C264.855 36.7467 264.177 36.512 263.303 36.512C262.609 36.512 261.985 36.6827 261.431 37.024C260.876 37.3653 260.439 37.84 260.119 38.448C259.809 39.0453 259.655 39.7173 259.655 40.464C259.655 41.2853 259.895 41.9253 260.375 42.384C260.865 42.8427 261.548 43.072 262.423 43.072ZM279.872 35.584L278.192 44H277.152L278.48 37.344L273.952 42.976H273.44L271.168 37.28L269.824 44H268.784L270.464 35.584H271.6L273.952 41.648L278.8 35.584H279.872ZM285.265 44.08C284.497 44.08 283.825 43.936 283.249 43.648C282.673 43.3493 282.225 42.9333 281.905 42.4C281.595 41.856 281.441 41.2267 281.441 40.512C281.441 39.5627 281.649 38.7093 282.065 37.952C282.481 37.1947 283.057 36.6027 283.793 36.176C284.539 35.7387 285.377 35.52 286.305 35.52C287.478 35.52 288.406 35.84 289.089 36.48C289.782 37.12 290.129 37.984 290.129 39.072C290.129 40.0213 289.921 40.88 289.505 41.648C289.089 42.4053 288.507 43.0027 287.761 43.44C287.025 43.8667 286.193 44.08 285.265 44.08ZM285.345 43.072C286.038 43.072 286.662 42.9067 287.217 42.576C287.771 42.2347 288.203 41.7653 288.513 41.168C288.833 40.56 288.993 39.8827 288.993 39.136C288.993 38.3147 288.747 37.6747 288.257 37.216C287.777 36.7467 287.099 36.512 286.225 36.512C285.531 36.512 284.907 36.6827 284.353 37.024C283.798 37.3653 283.361 37.84 283.041 38.448C282.731 39.0453 282.577 39.7173 282.577 40.464C282.577 41.2853 282.817 41.9253 283.297 42.384C283.787 42.8427 284.47 43.072 285.345 43.072ZM305.018 35.584L303.322 44H291.706L293.386 35.584H294.522L293.066 43.008H297.178L298.65 35.584H299.786L298.314 43.008H302.41L303.882 35.584H305.018ZM304.81 43.008L304.234 45.84H303.162L303.53 44H302.122L302.33 43.008H304.81ZM308.542 35.584H309.678L308.318 42.384L315.23 35.584H316.318L314.638 44H313.47L314.862 37.2L307.95 44H306.846L308.542 35.584ZM323.745 35.584H324.881L323.521 42.384L330.433 35.584H331.521L329.841 44H328.673L330.065 37.2L323.153 44H322.049L323.745 35.584ZM26 59.584L24.32 68H23.184L24.64 60.592H19.36L17.904 68H16.768L18.448 59.584H26ZM31.3896 68.08C30.6216 68.08 29.9496 67.936 29.3736 67.648C28.7976 67.3493 28.3496 66.9333 28.0296 66.4C27.7203 65.856 27.5656 65.2267 27.5656 64.512C27.5656 63.5627 27.7736 62.7093 28.1896 61.952C28.6056 61.1947 29.1816 60.6027 29.9176 60.176C30.6643 59.7387 31.5016 59.52 32.4296 59.52C33.603 59.52 34.531 59.84 35.2136 60.48C35.907 61.12 36.2536 61.984 36.2536 63.072C36.2536 64.0213 36.0456 64.88 35.6296 65.648C35.2136 66.4053 34.6323 67.0027 33.8856 67.44C33.1496 67.8667 32.3176 68.08 31.3896 68.08ZM31.4696 67.072C32.163 67.072 32.787 66.9067 33.3416 66.576C33.8963 66.2347 34.3283 65.7653 34.6376 65.168C34.9576 64.56 35.1176 63.8827 35.1176 63.136C35.1176 62.3147 34.8723 61.6747 34.3816 61.216C33.9016 60.7467 33.2243 60.512 32.3496 60.512C31.6563 60.512 31.0323 60.6827 30.4776 61.024C29.923 61.3653 29.4856 61.84 29.1656 62.448C28.8563 63.0453 28.7016 63.7173 28.7016 64.464C28.7016 65.2853 28.9416 65.9253 29.4216 66.384C29.9123 66.8427 30.595 67.072 31.4696 67.072ZM44.8876 67.008H46.1996L45.6076 70.032H44.5356L44.9356 68H37.3996L36.9996 70.032H35.9276L36.5196 67.008H36.9516C37.517 66.976 37.9916 66.5493 38.3756 65.728C38.7596 64.9067 39.133 63.7813 39.4956 62.352L40.1676 59.584H46.3596L44.8876 67.008ZM40.5196 62.512C40.2103 63.7387 39.9116 64.72 39.6236 65.456C39.3356 66.192 38.9783 66.7093 38.5516 67.008H43.7516L45.0316 60.592H40.9836L40.5196 62.512ZM55.2939 67.008H56.6059L56.0139 70.032H54.9419L55.3419 68H47.8059L47.4059 70.032H46.3339L46.9259 67.008H47.3579C47.9232 66.976 48.3979 66.5493 48.7819 65.728C49.1659 64.9067 49.5392 63.7813 49.9019 62.352L50.5739 59.584H56.7659L55.2939 67.008ZM50.9259 62.512C50.6165 63.7387 50.3179 64.72 50.0299 65.456C49.7419 66.192 49.3845 66.7093 48.9579 67.008H54.1579L55.4379 60.592H51.3899L50.9259 62.512ZM59.7801 64.112C59.7695 64.1867 59.7641 64.2987 59.7641 64.448C59.7641 65.3013 60.0041 65.952 60.4841 66.4C60.9748 66.848 61.7001 67.072 62.6601 67.072C63.2148 67.072 63.7321 66.9813 64.2121 66.8C64.7028 66.608 65.1028 66.3467 65.4121 66.016L65.9241 66.832C65.5295 67.2267 65.0335 67.536 64.4361 67.76C63.8495 67.9733 63.2255 68.08 62.5641 68.08C61.3481 68.08 60.3881 67.76 59.6841 67.12C58.9908 66.48 58.6441 65.6053 58.6441 64.496C58.6441 63.5573 58.8415 62.7093 59.2361 61.952C59.6415 61.1947 60.1961 60.6027 60.9001 60.176C61.6148 59.7387 62.4148 59.52 63.3001 59.52C64.4201 59.52 65.3108 59.84 65.9721 60.48C66.6335 61.1093 66.9641 61.9787 66.9641 63.088C66.9641 63.3973 66.9268 63.7387 66.8521 64.112H59.7801ZM63.2681 60.48C62.4255 60.48 61.7055 60.7307 61.1081 61.232C60.5108 61.7333 60.1055 62.4107 59.8921 63.264H65.8921C65.9028 63.1893 65.9081 63.088 65.9081 62.96C65.9081 62.1707 65.6681 61.5627 65.1881 61.136C64.7081 60.6987 64.0681 60.48 63.2681 60.48ZM74.3569 59.52C75.0715 59.52 75.7062 59.664 76.2609 59.952C76.8262 60.24 77.2635 60.6507 77.5729 61.184C77.8822 61.7173 78.0369 62.3467 78.0369 63.072C78.0369 64.0213 77.8289 64.88 77.4129 65.648C77.0075 66.4053 76.4422 67.0027 75.7169 67.44C74.9915 67.8667 74.1755 68.08 73.2689 68.08C72.4689 68.08 71.7969 67.9253 71.2529 67.616C70.7089 67.296 70.3142 66.8373 70.0689 66.24L69.1089 71.104H67.9729L70.2609 59.584H71.3489L71.0769 60.928C71.4822 60.4693 71.9622 60.1227 72.5169 59.888C73.0715 59.6427 73.6849 59.52 74.3569 59.52ZM73.2529 67.072C73.9462 67.072 74.5649 66.9067 75.1089 66.576C75.6635 66.2347 76.0955 65.7653 76.4049 65.168C76.7249 64.5707 76.8849 63.8933 76.8849 63.136C76.8849 62.3147 76.6395 61.6747 76.1489 61.216C75.6689 60.7467 74.9915 60.512 74.1169 60.512C73.4235 60.512 72.7995 60.6827 72.2449 61.024C71.7009 61.3547 71.2689 61.824 70.9489 62.432C70.6395 63.0293 70.4849 63.7067 70.4849 64.464C70.4849 65.2853 70.7249 65.9253 71.2049 66.384C71.6955 66.8427 72.3782 67.072 73.2529 67.072ZM88.4509 63.76L90.6429 68H89.3149L87.4589 64.224H85.6509L84.8829 68H83.7469L84.4989 64.224H82.7229L79.3949 68H77.9709L81.8909 63.632L79.9229 59.584H81.1229L82.8669 63.296H84.6909L85.4269 59.584H86.5789L85.8269 63.296H87.6189L90.8509 59.584H92.1309L88.4509 63.76ZM97.3173 63.728L100.021 68H98.7253L96.4213 64.256H94.4373L93.6853 68H92.5493L94.2453 59.584H95.3813L94.6293 63.28H96.5013L100.229 59.584H101.509L97.3173 63.728ZM102.702 64.112C102.691 64.1867 102.686 64.2987 102.686 64.448C102.686 65.3013 102.926 65.952 103.406 66.4C103.897 66.848 104.622 67.072 105.582 67.072C106.137 67.072 106.654 66.9813 107.134 66.8C107.625 66.608 108.025 66.3467 108.334 66.016L108.846 66.832C108.451 67.2267 107.955 67.536 107.358 67.76C106.771 67.9733 106.147 68.08 105.486 68.08C104.27 68.08 103.31 67.76 102.606 67.12C101.913 66.48 101.566 65.6053 101.566 64.496C101.566 63.5573 101.763 62.7093 102.158 61.952C102.563 61.1947 103.118 60.6027 103.822 60.176C104.537 59.7387 105.337 59.52 106.222 59.52C107.342 59.52 108.233 59.84 108.894 60.48C109.555 61.1093 109.886 61.9787 109.886 63.088C109.886 63.3973 109.849 63.7387 109.774 64.112H102.702ZM106.19 60.48C105.347 60.48 104.627 60.7307 104.03 61.232C103.433 61.7333 103.027 62.4107 102.814 63.264H108.814C108.825 63.1893 108.83 63.088 108.83 62.96C108.83 62.1707 108.59 61.5627 108.11 61.136C107.63 60.6987 106.99 60.48 106.19 60.48ZM121.866 63.664C122.794 63.888 123.258 64.4587 123.258 65.376C123.258 66.1973 122.928 66.8427 122.266 67.312C121.616 67.7707 120.714 68 119.562 68H115.674L117.37 59.584H121.034C121.92 59.584 122.592 59.744 123.05 60.064C123.509 60.384 123.738 60.848 123.738 61.456C123.738 61.9893 123.573 62.448 123.242 62.832C122.912 63.216 122.453 63.4933 121.866 63.664ZM117.722 63.328H120.234C120.938 63.328 121.504 63.1733 121.93 62.864C122.368 62.5547 122.586 62.1493 122.586 61.648C122.586 60.8693 122 60.48 120.826 60.48H118.298L117.722 63.328ZM119.626 67.104C120.416 67.104 121.029 66.9493 121.466 66.64C121.914 66.3307 122.138 65.8987 122.138 65.344C122.138 64.928 122 64.6293 121.722 64.448C121.456 64.2667 121.008 64.176 120.378 64.176H117.562L116.97 67.104H119.626ZM137.004 60.592H133.804L132.332 68H131.196L132.668 60.592H129.5L129.692 59.584H137.212L137.004 60.592ZM142.951 59.52C143.665 59.52 144.3 59.664 144.855 59.952C145.42 60.24 145.857 60.6507 146.167 61.184C146.476 61.7173 146.631 62.3467 146.631 63.072C146.631 64.0213 146.423 64.88 146.007 65.648C145.601 66.4053 145.036 67.0027 144.311 67.44C143.585 67.8667 142.769 68.08 141.863 68.08C141.063 68.08 140.391 67.9253 139.847 67.616C139.303 67.296 138.908 66.8373 138.663 66.24L137.703 71.104H136.567L138.855 59.584H139.943L139.671 60.928C140.076 60.4693 140.556 60.1227 141.111 59.888C141.665 59.6427 142.279 59.52 142.951 59.52ZM141.847 67.072C142.54 67.072 143.159 66.9067 143.703 66.576C144.257 66.2347 144.689 65.7653 144.999 65.168C145.319 64.5707 145.479 63.8933 145.479 63.136C145.479 62.3147 145.233 61.6747 144.743 61.216C144.263 60.7467 143.585 60.512 142.711 60.512C142.017 60.512 141.393 60.6827 140.839 61.024C140.295 61.3547 139.863 61.824 139.543 62.432C139.233 63.0293 139.079 63.7067 139.079 64.464C139.079 65.2853 139.319 65.9253 139.799 66.384C140.289 66.8427 140.972 67.072 141.847 67.072ZM156.755 59.584L150.611 69.088C150.099 69.8773 149.619 70.4213 149.171 70.72C148.723 71.0293 148.19 71.184 147.571 71.184C147.166 71.184 146.782 71.1147 146.419 70.976C146.056 70.848 145.774 70.6667 145.571 70.432L146.179 69.6C146.563 70.0053 147.059 70.208 147.667 70.208C148.04 70.208 148.376 70.1067 148.675 69.904C148.974 69.7013 149.283 69.3493 149.603 68.848L150.195 67.952L148.099 59.584H149.251L150.995 66.752L155.587 59.584H156.755ZM163.622 67.008H164.934L164.342 70.032H163.27L163.67 68H156.134L155.734 70.032H154.662L155.254 67.008H155.686C156.251 66.976 156.726 66.5493 157.11 65.728C157.494 64.9067 157.867 63.7813 158.23 62.352L158.902 59.584H165.094L163.622 67.008ZM159.254 62.512C158.945 63.7387 158.646 64.72 158.358 65.456C158.07 66.192 157.713 66.7093 157.286 67.008H162.486L163.766 60.592H159.718L159.254 62.512ZM168.604 59.584H169.74L169.004 63.312H174.284L175.036 59.584H176.172L174.492 68H173.356L174.092 64.288H168.812L168.06 68H166.924L168.604 59.584ZM187.578 59.584H188.714L187.034 68H185.898L187.578 59.584ZM182.25 62.544C184.138 62.544 185.082 63.296 185.082 64.8C185.082 65.44 184.916 66.0053 184.586 66.496C184.266 66.976 183.807 67.3493 183.21 67.616C182.623 67.872 181.94 68 181.161 68H177.706L179.386 59.616H180.522L179.946 62.544H182.25ZM181.161 67.136C181.994 67.136 182.666 66.9333 183.178 66.528C183.69 66.112 183.946 65.568 183.946 64.896C183.946 64.3947 183.775 64.0213 183.434 63.776C183.103 63.52 182.596 63.392 181.914 63.392H179.77L179.034 67.136H181.161ZM191.436 64.112C191.426 64.1867 191.42 64.2987 191.42 64.448C191.42 65.3013 191.66 65.952 192.14 66.4C192.631 66.848 193.356 67.072 194.316 67.072C194.871 67.072 195.388 66.9813 195.868 66.8C196.359 66.608 196.759 66.3467 197.068 66.016L197.58 66.832C197.186 67.2267 196.69 67.536 196.092 67.76C195.506 67.9733 194.882 68.08 194.22 68.08C193.004 68.08 192.044 67.76 191.34 67.12C190.647 66.48 190.3 65.6053 190.3 64.496C190.3 63.5573 190.498 62.7093 190.892 61.952C191.298 61.1947 191.852 60.6027 192.556 60.176C193.271 59.7387 194.071 59.52 194.956 59.52C196.076 59.52 196.967 59.84 197.628 60.48C198.29 61.1093 198.62 61.9787 198.62 63.088C198.62 63.3973 198.583 63.7387 198.508 64.112H191.436ZM194.924 60.48C194.082 60.48 193.362 60.7307 192.764 61.232C192.167 61.7333 191.762 62.4107 191.548 63.264H197.548C197.559 63.1893 197.564 63.088 197.564 62.96C197.564 62.1707 197.324 61.5627 196.844 61.136C196.364 60.6987 195.724 60.48 194.924 60.48ZM213.641 59.584L211.961 68H210.825L212.281 60.592H207.001L205.545 68H204.409L206.089 59.584H213.641ZM216.358 64.112C216.348 64.1867 216.342 64.2987 216.342 64.448C216.342 65.3013 216.582 65.952 217.062 66.4C217.553 66.848 218.278 67.072 219.238 67.072C219.793 67.072 220.31 66.9813 220.79 66.8C221.281 66.608 221.681 66.3467 221.99 66.016L222.502 66.832C222.108 67.2267 221.612 67.536 221.014 67.76C220.428 67.9733 219.804 68.08 219.142 68.08C217.926 68.08 216.966 67.76 216.262 67.12C215.569 66.48 215.222 65.6053 215.222 64.496C215.222 63.5573 215.42 62.7093 215.814 61.952C216.22 61.1947 216.774 60.6027 217.478 60.176C218.193 59.7387 218.993 59.52 219.878 59.52C220.998 59.52 221.889 59.84 222.55 60.48C223.212 61.1093 223.542 61.9787 223.542 63.088C223.542 63.3973 223.505 63.7387 223.43 64.112H216.358ZM219.846 60.48C219.004 60.48 218.284 60.7307 217.686 61.232C217.089 61.7333 216.684 62.4107 216.47 63.264H222.47C222.481 63.1893 222.486 63.088 222.486 62.96C222.486 62.1707 222.246 61.5627 221.766 61.136C221.286 60.6987 220.646 60.48 219.846 60.48ZM230.935 59.52C231.65 59.52 232.284 59.664 232.839 59.952C233.404 60.24 233.842 60.6507 234.151 61.184C234.46 61.7173 234.615 62.3467 234.615 63.072C234.615 64.0213 234.407 64.88 233.991 65.648C233.586 66.4053 233.02 67.0027 232.295 67.44C231.57 67.8667 230.754 68.08 229.847 68.08C229.047 68.08 228.375 67.9253 227.831 67.616C227.287 67.296 226.892 66.8373 226.647 66.24L225.687 71.104H224.551L226.839 59.584H227.927L227.655 60.928C228.06 60.4693 228.54 60.1227 229.095 59.888C229.65 59.6427 230.263 59.52 230.935 59.52ZM229.831 67.072C230.524 67.072 231.143 66.9067 231.687 66.576C232.242 66.2347 232.674 65.7653 232.983 65.168C233.303 64.5707 233.463 63.8933 233.463 63.136C233.463 62.3147 233.218 61.6747 232.727 61.216C232.247 60.7467 231.57 60.512 230.695 60.512C230.002 60.512 229.378 60.6827 228.823 61.024C228.279 61.3547 227.847 61.824 227.527 62.432C227.218 63.0293 227.063 63.7067 227.063 64.464C227.063 65.2853 227.303 65.9253 227.783 66.384C228.274 66.8427 228.956 67.072 229.831 67.072ZM237.886 59.584H239.022L237.662 66.384L244.574 59.584H245.662L243.982 68H242.814L244.206 61.2L237.294 68H236.19L237.886 59.584ZM251.062 68.08C250.294 68.08 249.622 67.936 249.046 67.648C248.47 67.3493 248.022 66.9333 247.702 66.4C247.392 65.856 247.238 65.2267 247.238 64.512C247.238 63.5627 247.446 62.7093 247.862 61.952C248.278 61.1947 248.854 60.6027 249.59 60.176C250.336 59.7387 251.174 59.52 252.102 59.52C253.275 59.52 254.203 59.84 254.885 60.48C255.579 61.12 255.926 61.984 255.926 63.072C255.926 64.0213 255.718 64.88 255.302 65.648C254.886 66.4053 254.304 67.0027 253.558 67.44C252.822 67.8667 251.99 68.08 251.062 68.08ZM251.141 67.072C251.835 67.072 252.459 66.9067 253.014 66.576C253.568 66.2347 254 65.7653 254.31 65.168C254.63 64.56 254.79 63.8827 254.79 63.136C254.79 62.3147 254.544 61.6747 254.054 61.216C253.574 60.7467 252.896 60.512 252.022 60.512C251.328 60.512 250.704 60.6827 250.15 61.024C249.595 61.3653 249.158 61.84 248.838 62.448C248.528 63.0453 248.374 63.7173 248.374 64.464C248.374 65.2853 248.614 65.9253 249.094 66.384C249.584 66.8427 250.267 67.072 251.141 67.072ZM264.56 67.008H265.872L265.28 70.032H264.208L264.608 68H257.072L256.671 70.032H255.599L256.191 67.008H256.623C257.189 66.976 257.664 66.5493 258.048 65.728C258.432 64.9067 258.805 63.7813 259.168 62.352L259.84 59.584H266.032L264.56 67.008ZM260.192 62.512C259.882 63.7387 259.584 64.72 259.296 65.456C259.008 66.192 258.65 66.7093 258.224 67.008H263.424L264.704 60.592H260.656L260.192 62.512ZM277.734 59.584H278.87L277.19 68H276.054L277.734 59.584ZM272.406 62.544C274.294 62.544 275.238 63.296 275.238 64.8C275.238 65.44 275.072 66.0053 274.742 66.496C274.422 66.976 273.963 67.3493 273.366 67.616C272.779 67.872 272.096 68 271.318 68H267.862L269.542 59.616H270.678L270.102 62.544H272.406ZM271.318 67.136C272.15 67.136 272.822 66.9333 273.334 66.528C273.846 66.112 274.102 65.568 274.102 64.896C274.102 64.3947 273.931 64.0213 273.59 63.776C273.259 63.52 272.752 63.392 272.07 63.392H269.926L269.19 67.136H271.318ZM293.732 63.76L295.924 68H294.596L292.74 64.224H290.932L290.164 68H289.028L289.78 64.224H288.004L284.676 68H283.252L287.172 63.632L285.204 59.584H286.404L288.148 63.296H289.972L290.708 59.584H291.86L291.108 63.296H292.9L296.132 59.584H297.412L293.732 63.76ZM299.527 59.584H300.663L299.303 66.384L306.215 59.584H307.303L305.623 68H304.455L305.847 61.2L298.935 68H297.831L299.527 59.584ZM313.41 63.648C313.944 63.7867 314.349 64.0107 314.626 64.32C314.904 64.6187 315.042 64.992 315.042 65.44C315.042 65.9413 314.866 66.3947 314.514 66.8C314.173 67.2053 313.693 67.5253 313.074 67.76C312.466 67.984 311.784 68.096 311.026 68.096C309.714 68.096 308.642 67.7387 307.81 67.024L308.29 66.224C308.6 66.512 308.994 66.7307 309.474 66.88C309.954 67.0293 310.477 67.104 311.042 67.104C311.586 67.104 312.077 67.0293 312.514 66.88C312.952 66.7307 313.293 66.5227 313.538 66.256C313.784 65.9893 313.906 65.6907 313.906 65.36C313.906 64.9547 313.725 64.64 313.362 64.416C313.01 64.192 312.52 64.08 311.89 64.08H310.498L310.626 63.216H311.826C312.552 63.216 313.133 63.0827 313.57 62.816C314.018 62.5493 314.242 62.1973 314.242 61.76C314.242 61.3547 314.066 61.04 313.714 60.816C313.362 60.592 312.877 60.48 312.258 60.48C311.458 60.48 310.568 60.7093 309.586 61.168L309.266 60.224C310.29 59.7333 311.32 59.488 312.354 59.488C313.272 59.488 314.008 59.68 314.562 60.064C315.128 60.4373 315.41 60.944 315.41 61.584C315.41 62.0747 315.234 62.5013 314.882 62.864C314.53 63.2267 314.04 63.488 313.41 63.648ZM318.761 59.584H319.897L319.161 63.312H324.441L325.193 59.584H326.329L324.649 68H323.513L324.249 64.288H318.969L318.217 68H317.081L318.761 59.584ZM329.558 59.584H330.694L329.334 66.384L336.246 59.584H337.334L335.654 68H334.486L335.878 61.2L328.966 68H327.862L329.558 59.584ZM26.256 83.584L24.576 92H23.488L23.76 90.672C23.3547 91.12 22.8747 91.4667 22.32 91.712C21.7653 91.9573 21.152 92.08 20.48 92.08C19.7653 92.08 19.1307 91.936 18.576 91.648C18.0213 91.36 17.5893 90.9493 17.28 90.416C16.9707 89.872 16.816 89.2373 16.816 88.512C16.816 87.5627 17.0187 86.7093 17.424 85.952C17.84 85.1947 18.4107 84.6027 19.136 84.176C19.8613 83.7387 20.672 83.52 21.568 83.52C22.368 83.52 23.04 83.68 23.584 84C24.128 84.3093 24.5227 84.7573 24.768 85.344L25.12 83.584H26.256ZM20.72 91.072C21.4133 91.072 22.0373 90.9067 22.592 90.576C23.1467 90.2347 23.5787 89.7653 23.888 89.168C24.208 88.56 24.368 87.8827 24.368 87.136C24.368 86.3147 24.1227 85.6747 23.632 85.216C23.152 84.7467 22.4747 84.512 21.6 84.512C20.9067 84.512 20.2827 84.6827 19.728 85.024C19.1733 85.3653 18.736 85.84 18.416 86.448C18.1067 87.0453 17.952 87.7173 17.952 88.464C17.952 89.2853 18.192 89.9253 18.672 90.384C19.1627 90.8427 19.8453 91.072 20.72 91.072ZM33.4633 84.032C34.5299 84.032 35.3619 84.3307 35.9593 84.928C36.5673 85.5147 36.8713 86.3253 36.8713 87.36C36.8713 88.256 36.6579 89.0667 36.2313 89.792C35.8046 90.5173 35.2179 91.088 34.4713 91.504C33.7246 91.92 32.8873 92.128 31.9593 92.128C30.7539 92.128 29.8153 91.7707 29.1432 91.056C28.4819 90.3413 28.1513 89.3173 28.1513 87.984C28.1513 86.8213 28.3859 85.7333 28.8553 84.72C29.3246 83.7067 29.9753 82.8533 30.8073 82.16C31.6499 81.4667 32.6153 81.0027 33.7033 80.768L37.6073 79.952L37.6393 80.944L33.9593 81.712C32.8393 81.9467 31.8953 82.4373 31.1273 83.184C30.3699 83.92 29.8313 84.8587 29.5113 86C30.0126 85.36 30.5939 84.8747 31.2552 84.544C31.9273 84.2027 32.6633 84.032 33.4633 84.032ZM32.0233 91.232C32.6953 91.232 33.3086 91.072 33.8633 90.752C34.4179 90.4213 34.8553 89.9787 35.1753 89.424C35.4953 88.8587 35.6553 88.2347 35.6553 87.552C35.6553 86.752 35.4313 86.1387 34.9833 85.712C34.5459 85.2747 33.9166 85.056 33.0953 85.056C32.4446 85.056 31.8206 85.2107 31.2233 85.52C30.6366 85.8293 30.1619 86.24 29.7993 86.752C29.4473 87.2533 29.2713 87.7813 29.2713 88.336C29.2713 89.232 29.5166 89.9413 30.0073 90.464C30.4979 90.976 31.1699 91.232 32.0233 91.232ZM42.3599 92.08C41.5705 92.08 40.8825 91.936 40.2959 91.648C39.7092 91.3493 39.2559 90.9333 38.9359 90.4C38.6265 89.856 38.4719 89.2267 38.4719 88.512C38.4719 87.5627 38.6799 86.7093 39.0959 85.952C39.5119 85.1947 40.0932 84.6027 40.8399 84.176C41.5865 83.7387 42.4292 83.52 43.3679 83.52C44.1465 83.52 44.8132 83.664 45.3679 83.952C45.9332 84.2293 46.3705 84.6453 46.6799 85.2L45.7199 85.76C45.2399 84.928 44.4239 84.512 43.2719 84.512C42.5785 84.512 41.9492 84.6827 41.3839 85.024C40.8292 85.3653 40.3919 85.8347 40.0719 86.432C39.7625 87.0293 39.6079 87.7067 39.6079 88.464C39.6079 89.2853 39.8479 89.9253 40.3279 90.384C40.8185 90.8427 41.5119 91.072 42.4079 91.072C42.9519 91.072 43.4532 90.9707 43.9119 90.768C44.3812 90.5547 44.7652 90.2507 45.0639 89.856L45.8799 90.48C45.5065 90.9813 45.0052 91.376 44.3759 91.664C43.7572 91.9413 43.0852 92.08 42.3599 92.08ZM51.374 92.08C50.606 92.08 49.934 91.936 49.358 91.648C48.782 91.3493 48.334 90.9333 48.014 90.4C47.7047 89.856 47.55 89.2267 47.55 88.512C47.55 87.5627 47.758 86.7093 48.174 85.952C48.59 85.1947 49.166 84.6027 49.902 84.176C50.6487 83.7387 51.486 83.52 52.414 83.52C53.5873 83.52 54.5153 83.84 55.198 84.48C55.8913 85.12 56.238 85.984 56.238 87.072C56.238 88.0213 56.03 88.88 55.614 89.648C55.198 90.4053 54.6167 91.0027 53.87 91.44C53.134 91.8667 52.302 92.08 51.374 92.08ZM51.454 91.072C52.1473 91.072 52.7713 90.9067 53.326 90.576C53.8807 90.2347 54.3127 89.7653 54.622 89.168C54.942 88.56 55.102 87.8827 55.102 87.136C55.102 86.3147 54.8567 85.6747 54.366 85.216C53.886 84.7467 53.2087 84.512 52.334 84.512C51.6407 84.512 51.0167 84.6827 50.462 85.024C49.9073 85.3653 49.47 85.84 49.15 86.448C48.8407 87.0453 48.686 87.7173 48.686 88.464C48.686 89.2853 48.926 89.9253 49.406 90.384C49.8967 90.8427 50.5793 91.072 51.454 91.072ZM66.344 83.584L64.648 92H63.512L64.984 84.592H60.968L60.456 86.672C60.1253 87.952 59.8053 88.9867 59.496 89.776C59.1867 90.5547 58.8347 91.1413 58.44 91.536C58.056 91.92 57.6027 92.112 57.08 92.112C56.8667 92.112 56.5893 92.0693 56.248 91.984L56.52 91.008C56.712 91.0507 56.84 91.072 56.904 91.072C57.448 91.072 57.9067 90.7147 58.28 90C58.664 89.2747 59.0533 88.128 59.448 86.56L60.184 83.584H66.344ZM76.5174 83.52C77.6587 83.52 78.5707 83.84 79.2534 84.48C79.936 85.12 80.2774 85.9787 80.2774 87.056C80.2774 88.0053 80.0694 88.864 79.6534 89.632C79.248 90.3893 78.6774 90.9867 77.9414 91.424C77.2054 91.8613 76.3787 92.08 75.4614 92.08C74.704 92.08 74.0427 91.936 73.4774 91.648C72.912 91.3493 72.4747 90.9333 72.1654 90.4C71.856 89.856 71.7014 89.232 71.7014 88.528V88.256H69.7814L69.0294 92H67.8934L69.5734 83.584H70.7094L69.9894 87.216H71.8454C72.016 86.4907 72.32 85.8507 72.7574 85.296C73.2054 84.7307 73.7494 84.2933 74.3894 83.984C75.04 83.6747 75.7494 83.52 76.5174 83.52ZM75.5574 91.072C76.24 91.072 76.848 90.9067 77.3814 90.576C77.9254 90.2347 78.352 89.7653 78.6614 89.168C78.9707 88.56 79.1254 87.8773 79.1254 87.12C79.1254 86.2987 78.8907 85.6587 78.4214 85.2C77.952 84.7413 77.2907 84.512 76.4374 84.512C75.7547 84.512 75.1414 84.6827 74.5974 85.024C74.0534 85.3653 73.6267 85.84 73.3174 86.448C73.008 87.0453 72.8534 87.7227 72.8534 88.48C72.8534 89.3013 73.088 89.9413 73.5574 90.4C74.0267 90.848 74.6934 91.072 75.5574 91.072ZM88.9573 84.592H85.7573L84.2853 92H83.1493L84.6213 84.592H81.4533L81.6453 83.584H89.1653L88.9573 84.592ZM90.7918 83.584H91.9278L91.1918 87.312H96.4718L97.2238 83.584H98.3598L96.6798 92H95.5438L96.2798 88.288H90.9998L90.2478 92H89.1118L90.7918 83.584ZM103.749 92.08C102.981 92.08 102.309 91.936 101.733 91.648C101.157 91.3493 100.709 90.9333 100.389 90.4C100.08 89.856 99.925 89.2267 99.925 88.512C99.925 87.5627 100.133 86.7093 100.549 85.952C100.965 85.1947 101.541 84.6027 102.277 84.176C103.024 83.7387 103.861 83.52 104.789 83.52C105.962 83.52 106.89 83.84 107.573 84.48C108.266 85.12 108.613 85.984 108.613 87.072C108.613 88.0213 108.405 88.88 107.989 89.648C107.573 90.4053 106.992 91.0027 106.245 91.44C105.509 91.8667 104.677 92.08 103.749 92.08ZM103.829 91.072C104.522 91.072 105.146 90.9067 105.701 90.576C106.256 90.2347 106.688 89.7653 106.997 89.168C107.317 88.56 107.477 87.8827 107.477 87.136C107.477 86.3147 107.232 85.6747 106.741 85.216C106.261 84.7467 105.584 84.512 104.709 84.512C104.016 84.512 103.392 84.6827 102.837 85.024C102.282 85.3653 101.845 85.84 101.525 86.448C101.216 87.0453 101.061 87.7173 101.061 88.464C101.061 89.2853 101.301 89.9253 101.781 90.384C102.272 90.8427 102.954 91.072 103.829 91.072ZM116.057 83.584H117.193L116.457 87.312H121.737L122.489 83.584H123.625L121.945 92H120.809L121.545 88.288H116.265L115.513 92H114.377L116.057 83.584ZM129.015 92.08C128.247 92.08 127.575 91.936 126.999 91.648C126.423 91.3493 125.975 90.9333 125.655 90.4C125.345 89.856 125.191 89.2267 125.191 88.512C125.191 87.5627 125.399 86.7093 125.815 85.952C126.231 85.1947 126.807 84.6027 127.543 84.176C128.289 83.7387 129.127 83.52 130.055 83.52C131.228 83.52 132.156 83.84 132.839 84.48C133.532 85.12 133.879 85.984 133.879 87.072C133.879 88.0213 133.671 88.88 133.255 89.648C132.839 90.4053 132.257 91.0027 131.511 91.44C130.775 91.8667 129.943 92.08 129.015 92.08ZM129.095 91.072C129.788 91.072 130.412 90.9067 130.967 90.576C131.521 90.2347 131.953 89.7653 132.263 89.168C132.583 88.56 132.743 87.8827 132.743 87.136C132.743 86.3147 132.497 85.6747 132.007 85.216C131.527 84.7467 130.849 84.512 129.975 84.512C129.281 84.512 128.657 84.6827 128.103 85.024C127.548 85.3653 127.111 85.84 126.791 86.448C126.481 87.0453 126.327 87.7173 126.327 88.464C126.327 89.2853 126.567 89.9253 127.047 90.384C127.537 90.8427 128.22 91.072 129.095 91.072ZM141.248 83.52C141.962 83.52 142.597 83.664 143.152 83.952C143.717 84.24 144.154 84.6507 144.464 85.184C144.773 85.7173 144.928 86.3467 144.928 87.072C144.928 88.0213 144.72 88.88 144.304 89.648C143.898 90.4053 143.333 91.0027 142.608 91.44C141.882 91.8667 141.066 92.08 140.16 92.08C139.36 92.08 138.688 91.9253 138.144 91.616C137.6 91.296 137.205 90.8373 136.96 90.24L136 95.104H134.864L137.152 83.584H138.24L137.968 84.928C138.373 84.4693 138.853 84.1227 139.408 83.888C139.962 83.6427 140.576 83.52 141.248 83.52ZM140.144 91.072C140.837 91.072 141.456 90.9067 142 90.576C142.554 90.2347 142.986 89.7653 143.296 89.168C143.616 88.5707 143.776 87.8933 143.776 87.136C143.776 86.3147 143.53 85.6747 143.04 85.216C142.56 84.7467 141.882 84.512 141.008 84.512C140.314 84.512 139.69 84.6827 139.136 85.024C138.592 85.3547 138.16 85.824 137.84 86.432C137.53 87.0293 137.376 87.7067 137.376 88.464C137.376 89.2853 137.616 89.9253 138.096 90.384C138.586 90.8427 139.269 91.072 140.144 91.072ZM157.59 83.584L155.91 92H154.87L156.198 85.344L151.67 90.976H151.158L148.886 85.28L147.542 92H146.502L148.182 83.584H149.318L151.67 89.648L156.518 83.584H157.59ZM168.615 83.584L166.935 92H165.847L166.119 90.672C165.714 91.12 165.234 91.4667 164.679 91.712C164.125 91.9573 163.511 92.08 162.839 92.08C162.125 92.08 161.49 91.936 160.935 91.648C160.381 91.36 159.949 90.9493 159.639 90.416C159.33 89.872 159.175 89.2373 159.175 88.512C159.175 87.5627 159.378 86.7093 159.783 85.952C160.199 85.1947 160.77 84.6027 161.495 84.176C162.221 83.7387 163.031 83.52 163.927 83.52C164.727 83.52 165.399 83.68 165.943 84C166.487 84.3093 166.882 84.7573 167.127 85.344L167.479 83.584H168.615ZM163.079 91.072C163.773 91.072 164.397 90.9067 164.951 90.576C165.506 90.2347 165.938 89.7653 166.247 89.168C166.567 88.56 166.727 87.8827 166.727 87.136C166.727 86.3147 166.482 85.6747 165.991 85.216C165.511 84.7467 164.834 84.512 163.959 84.512C163.266 84.512 162.642 84.6827 162.087 85.024C161.533 85.3653 161.095 85.84 160.775 86.448C160.466 87.0453 160.311 87.7173 160.311 88.464C160.311 89.2853 160.551 89.9253 161.031 90.384C161.522 90.8427 162.205 91.072 163.079 91.072ZM178.735 83.584L177.039 92H175.903L177.375 84.592H173.359L172.847 86.672C172.516 87.952 172.196 88.9867 171.887 89.776C171.577 90.5547 171.225 91.1413 170.831 91.536C170.447 91.92 169.993 92.112 169.471 92.112C169.257 92.112 168.98 92.0693 168.639 91.984L168.911 91.008C169.103 91.0507 169.231 91.072 169.295 91.072C169.839 91.072 170.297 90.7147 170.671 90C171.055 89.2747 171.444 88.128 171.839 86.56L172.575 83.584H178.735ZM184.876 86.544C186.764 86.544 187.708 87.296 187.708 88.8C187.708 89.44 187.543 90.0053 187.212 90.496C186.892 90.976 186.433 91.3493 185.836 91.616C185.249 91.872 184.567 92 183.788 92H180.268L181.948 83.616H183.084L182.508 86.544H184.876ZM183.788 91.136C184.62 91.136 185.292 90.9333 185.804 90.528C186.316 90.112 186.572 89.568 186.572 88.896C186.572 88.3947 186.401 88.0213 186.06 87.776C185.729 87.52 185.223 87.392 184.54 87.392H182.332L181.596 91.136H183.788ZM190.932 83.584H192.068L191.332 87.312H196.612L197.364 83.584H198.5L196.82 92H195.684L196.42 88.288H191.14L190.388 92H189.252L190.932 83.584ZM203.89 92.08C203.122 92.08 202.45 91.936 201.874 91.648C201.298 91.3493 200.85 90.9333 200.53 90.4C200.22 89.856 200.066 89.2267 200.066 88.512C200.066 87.5627 200.274 86.7093 200.69 85.952C201.106 85.1947 201.682 84.6027 202.418 84.176C203.164 83.7387 204.002 83.52 204.93 83.52C206.103 83.52 207.031 83.84 207.714 84.48C208.407 85.12 208.754 85.984 208.754 87.072C208.754 88.0213 208.546 88.88 208.13 89.648C207.714 90.4053 207.132 91.0027 206.386 91.44C205.65 91.8667 204.818 92.08 203.89 92.08ZM203.97 91.072C204.663 91.072 205.287 90.9067 205.842 90.576C206.396 90.2347 206.828 89.7653 207.138 89.168C207.458 88.56 207.618 87.8827 207.618 87.136C207.618 86.3147 207.372 85.6747 206.882 85.216C206.402 84.7467 205.724 84.512 204.85 84.512C204.156 84.512 203.532 84.6827 202.978 85.024C202.423 85.3653 201.986 85.84 201.666 86.448C201.356 87.0453 201.202 87.7173 201.202 88.464C201.202 89.2853 201.442 89.9253 201.922 90.384C202.412 90.8427 203.095 91.072 203.97 91.072ZM221.622 91.008H222.934L222.342 94.032H221.27L221.67 92H214.134L213.734 94.032H212.662L213.254 91.008H213.686C214.251 90.976 214.726 90.5493 215.11 89.728C215.494 88.9067 215.867 87.7813 216.23 86.352L216.902 83.584H223.094L221.622 91.008ZM217.254 86.512C216.945 87.7387 216.646 88.72 216.358 89.456C216.07 90.192 215.713 90.7093 215.286 91.008H220.486L221.766 84.592H217.718L217.254 86.512ZM233.5 83.584L231.804 92H230.668L232.14 84.592H228.124L227.612 86.672C227.282 87.952 226.962 88.9867 226.652 89.776C226.343 90.5547 225.991 91.1413 225.596 91.536C225.212 91.92 224.759 92.112 224.236 92.112C224.023 92.112 223.746 92.0693 223.404 91.984L223.676 91.008C223.868 91.0507 223.996 91.072 224.06 91.072C224.604 91.072 225.063 90.7147 225.436 90C225.82 89.2747 226.21 88.128 226.604 86.56L227.34 83.584H233.5ZM243.194 83.584L241.53 92H240.49L241.05 89.168H238.458H238.154L235.642 92H234.346L237.098 88.992C235.999 88.6613 235.45 87.9307 235.45 86.8C235.45 85.7973 235.823 85.0133 236.57 84.448C237.316 83.872 238.335 83.584 239.626 83.584H243.194ZM241.962 84.576H239.546C238.618 84.576 237.898 84.768 237.386 85.152C236.874 85.536 236.618 86.08 236.618 86.784C236.618 87.8187 237.29 88.336 238.634 88.336H241.226L241.962 84.576ZM257.516 83.584L255.82 92H254.684L256.156 84.592H252.14L251.628 86.672C251.297 87.952 250.977 88.9867 250.668 89.776C250.359 90.5547 250.007 91.1413 249.612 91.536C249.228 91.92 248.775 92.112 248.252 92.112C248.039 92.112 247.761 92.0693 247.42 91.984L247.692 91.008C247.884 91.0507 248.012 91.072 248.076 91.072C248.62 91.072 249.079 90.7147 249.452 90C249.836 89.2747 250.225 88.128 250.62 86.56L251.356 83.584H257.516ZM267.689 83.52C268.831 83.52 269.743 83.84 270.425 84.48C271.108 85.12 271.449 85.9787 271.449 87.056C271.449 88.0053 271.241 88.864 270.825 89.632C270.42 90.3893 269.849 90.9867 269.113 91.424C268.377 91.8613 267.551 92.08 266.633 92.08C265.876 92.08 265.215 91.936 264.649 91.648C264.084 91.3493 263.647 90.9333 263.337 90.4C263.028 89.856 262.873 89.232 262.873 88.528V88.256H260.953L260.201 92H259.065L260.745 83.584H261.881L261.161 87.216H263.017C263.188 86.4907 263.492 85.8507 263.929 85.296C264.377 84.7307 264.921 84.2933 265.561 83.984C266.212 83.6747 266.921 83.52 267.689 83.52ZM266.729 91.072C267.412 91.072 268.02 90.9067 268.553 90.576C269.097 90.2347 269.524 89.7653 269.833 89.168C270.143 88.56 270.297 87.8773 270.297 87.12C270.297 86.2987 270.063 85.6587 269.593 85.2C269.124 84.7413 268.463 84.512 267.609 84.512C266.927 84.512 266.313 84.6827 265.769 85.024C265.225 85.3653 264.799 85.84 264.489 86.448C264.18 87.0453 264.025 87.7227 264.025 88.48C264.025 89.3013 264.26 89.9413 264.729 90.4C265.199 90.848 265.865 91.072 266.729 91.072ZM278.698 84.032C279.764 84.032 280.596 84.3307 281.194 84.928C281.802 85.5147 282.106 86.3253 282.106 87.36C282.106 88.256 281.892 89.0667 281.466 89.792C281.039 90.5173 280.452 91.088 279.706 91.504C278.959 91.92 278.122 92.128 277.194 92.128C275.988 92.128 275.05 91.7707 274.378 91.056C273.716 90.3413 273.386 89.3173 273.386 87.984C273.386 86.8213 273.62 85.7333 274.09 84.72C274.559 83.7067 275.21 82.8533 276.042 82.16C276.884 81.4667 277.85 81.0027 278.938 80.768L282.842 79.952L282.874 80.944L279.194 81.712C278.074 81.9467 277.13 82.4373 276.362 83.184C275.604 83.92 275.066 84.8587 274.746 86C275.247 85.36 275.828 84.8747 276.49 84.544C277.162 84.2027 277.898 84.032 278.698 84.032ZM277.258 91.232C277.93 91.232 278.543 91.072 279.098 90.752C279.652 90.4213 280.09 89.9787 280.41 89.424C280.73 88.8587 280.89 88.2347 280.89 87.552C280.89 86.752 280.666 86.1387 280.218 85.712C279.78 85.2747 279.151 85.056 278.33 85.056C277.679 85.056 277.055 85.2107 276.458 85.52C275.871 85.8293 275.396 86.24 275.034 86.752C274.682 87.2533 274.506 87.7813 274.506 88.336C274.506 89.232 274.751 89.9413 275.242 90.464C275.732 90.976 276.404 91.232 277.258 91.232ZM287.53 92.08C286.762 92.08 286.09 91.936 285.514 91.648C284.938 91.3493 284.49 90.9333 284.17 90.4C283.861 89.856 283.706 89.2267 283.706 88.512C283.706 87.5627 283.914 86.7093 284.33 85.952C284.746 85.1947 285.322 84.6027 286.058 84.176C286.805 83.7387 287.642 83.52 288.57 83.52C289.744 83.52 290.672 83.84 291.354 84.48C292.048 85.12 292.394 85.984 292.394 87.072C292.394 88.0213 292.186 88.88 291.77 89.648C291.354 90.4053 290.773 91.0027 290.026 91.44C289.29 91.8667 288.458 92.08 287.53 92.08ZM287.61 91.072C288.304 91.072 288.928 90.9067 289.482 90.576C290.037 90.2347 290.469 89.7653 290.778 89.168C291.098 88.56 291.258 87.8827 291.258 87.136C291.258 86.3147 291.013 85.6747 290.522 85.216C290.042 84.7467 289.365 84.512 288.49 84.512C287.797 84.512 287.173 84.6827 286.618 85.024C286.064 85.3653 285.626 85.84 285.306 86.448C284.997 87.0453 284.842 87.7173 284.842 88.464C284.842 89.2853 285.082 89.9253 285.562 90.384C286.053 90.8427 286.736 91.072 287.61 91.072ZM301.411 84.592H296.563L295.107 92H293.971L295.651 83.584H301.619L301.411 84.592ZM305.03 92.08C304.262 92.08 303.59 91.936 303.014 91.648C302.438 91.3493 301.99 90.9333 301.67 90.4C301.361 89.856 301.206 89.2267 301.206 88.512C301.206 87.5627 301.414 86.7093 301.83 85.952C302.246 85.1947 302.822 84.6027 303.558 84.176C304.305 83.7387 305.142 83.52 306.07 83.52C307.244 83.52 308.172 83.84 308.854 84.48C309.548 85.12 309.894 85.984 309.894 87.072C309.894 88.0213 309.686 88.88 309.27 89.648C308.854 90.4053 308.273 91.0027 307.526 91.44C306.79 91.8667 305.958 92.08 305.03 92.08ZM305.11 91.072C305.804 91.072 306.428 90.9067 306.982 90.576C307.537 90.2347 307.969 89.7653 308.278 89.168C308.598 88.56 308.758 87.8827 308.758 87.136C308.758 86.3147 308.513 85.6747 308.022 85.216C307.542 84.7467 306.865 84.512 305.99 84.512C305.297 84.512 304.673 84.6827 304.118 85.024C303.564 85.3653 303.126 85.84 302.806 86.448C302.497 87.0453 302.342 87.7173 302.342 88.464C302.342 89.2853 302.582 89.9253 303.062 90.384C303.553 90.8427 304.236 91.072 305.11 91.072ZM24.8 107.584L23.12 116H21.984L22.672 112.528C21.648 112.933 20.6773 113.136 19.76 113.136C18.8747 113.136 18.1813 112.96 17.68 112.608C17.1893 112.245 16.944 111.717 16.944 111.024C16.944 110.843 16.9707 110.608 17.024 110.32L17.568 107.584H18.704L18.16 110.336C18.128 110.496 18.112 110.651 18.112 110.8C18.112 111.269 18.2773 111.621 18.608 111.856C18.9387 112.091 19.4027 112.208 20 112.208C20.8533 112.208 21.8133 111.984 22.88 111.536L23.664 107.584H24.8ZM27.5145 112.112C27.5038 112.187 27.4985 112.299 27.4985 112.448C27.4985 113.301 27.7385 113.952 28.2185 114.4C28.7092 114.848 29.4345 115.072 30.3945 115.072C30.9492 115.072 31.4665 114.981 31.9465 114.8C32.4372 114.608 32.8372 114.347 33.1465 114.016L33.6585 114.832C33.2638 115.227 32.7678 115.536 32.1705 115.76C31.5838 115.973 30.9598 116.08 30.2985 116.08C29.0825 116.08 28.1225 115.76 27.4185 115.12C26.7252 114.48 26.3785 113.605 26.3785 112.496C26.3785 111.557 26.5758 110.709 26.9705 109.952C27.3758 109.195 27.9305 108.603 28.6345 108.176C29.3492 107.739 30.1492 107.52 31.0345 107.52C32.1545 107.52 33.0452 107.84 33.7065 108.48C34.3678 109.109 34.6985 109.979 34.6985 111.088C34.6985 111.397 34.6612 111.739 34.5865 112.112H27.5145ZM31.0025 108.48C30.1598 108.48 29.4398 108.731 28.8425 109.232C28.2452 109.733 27.8398 110.411 27.6265 111.264H33.6265C33.6372 111.189 33.6425 111.088 33.6425 110.96C33.6425 110.171 33.4025 109.563 32.9225 109.136C32.4425 108.699 31.8025 108.48 31.0025 108.48ZM44.7034 107.584L43.0074 116H41.8714L43.3434 108.592H39.3274L38.8154 110.672C38.4847 111.952 38.1647 112.987 37.8554 113.776C37.546 114.555 37.194 115.141 36.7994 115.536C36.4154 115.92 35.962 116.112 35.4394 116.112C35.226 116.112 34.9487 116.069 34.6074 115.984L34.8794 115.008C35.0714 115.051 35.1994 115.072 35.2634 115.072C35.8074 115.072 36.266 114.715 36.6394 114C37.0234 113.275 37.4127 112.128 37.8074 110.56L38.5434 107.584H44.7034ZM50.0928 116.08C49.3248 116.08 48.6528 115.936 48.0768 115.648C47.5008 115.349 47.0528 114.933 46.7328 114.4C46.4234 113.856 46.2688 113.227 46.2688 112.512C46.2688 111.563 46.4768 110.709 46.8928 109.952C47.3088 109.195 47.8848 108.603 48.6208 108.176C49.3674 107.739 50.2048 107.52 51.1328 107.52C52.3061 107.52 53.2341 107.84 53.9167 108.48C54.6101 109.12 54.9568 109.984 54.9568 111.072C54.9568 112.021 54.7488 112.88 54.3328 113.648C53.9168 114.405 53.3354 115.003 52.5888 115.44C51.8528 115.867 51.0208 116.08 50.0928 116.08ZM50.1727 115.072C50.8661 115.072 51.4901 114.907 52.0448 114.576C52.5994 114.235 53.0314 113.765 53.3408 113.168C53.6608 112.56 53.8208 111.883 53.8208 111.136C53.8208 110.315 53.5754 109.675 53.0848 109.216C52.6048 108.747 51.9274 108.512 51.0528 108.512C50.3594 108.512 49.7354 108.683 49.1808 109.024C48.6261 109.365 48.1888 109.84 47.8688 110.448C47.5594 111.045 47.4048 111.717 47.4048 112.464C47.4048 113.285 47.6448 113.925 48.1248 114.384C48.6154 114.843 49.2981 115.072 50.1727 115.072ZM62.7256 111.664C63.6536 111.888 64.1176 112.459 64.1176 113.376C64.1176 114.197 63.787 114.843 63.1256 115.312C62.475 115.771 61.5736 116 60.4216 116H56.5336L58.2296 107.584H61.8936C62.779 107.584 63.451 107.744 63.9096 108.064C64.3683 108.384 64.5976 108.848 64.5976 109.456C64.5976 109.989 64.4323 110.448 64.1016 110.832C63.771 111.216 63.3123 111.493 62.7256 111.664ZM58.5816 111.328H61.0936C61.7976 111.328 62.363 111.173 62.7896 110.864C63.227 110.555 63.4456 110.149 63.4456 109.648C63.4456 108.869 62.859 108.48 61.6856 108.48H59.1576L58.5816 111.328ZM60.4856 115.104C61.275 115.104 61.8883 114.949 62.3256 114.64C62.7736 114.331 62.9976 113.899 62.9976 113.344C62.9976 112.928 62.859 112.629 62.5816 112.448C62.315 112.267 61.867 112.176 61.2376 112.176H58.4216L57.8296 115.104H60.4856ZM67.452 112.112C67.4413 112.187 67.436 112.299 67.436 112.448C67.436 113.301 67.676 113.952 68.156 114.4C68.6467 114.848 69.372 115.072 70.332 115.072C70.8867 115.072 71.404 114.981 71.884 114.8C72.3747 114.608 72.7747 114.347 73.084 114.016L73.596 114.832C73.2013 115.227 72.7053 115.536 72.108 115.76C71.5213 115.973 70.8973 116.08 70.236 116.08C69.02 116.08 68.06 115.76 67.356 115.12C66.6627 114.48 66.316 113.605 66.316 112.496C66.316 111.557 66.5133 110.709 66.908 109.952C67.3133 109.195 67.868 108.603 68.572 108.176C69.2867 107.739 70.0867 107.52 70.972 107.52C72.092 107.52 72.9827 107.84 73.644 108.48C74.3053 109.109 74.636 109.979 74.636 111.088C74.636 111.397 74.5987 111.739 74.524 112.112H67.452ZM70.94 108.48C70.0973 108.48 69.3773 108.731 68.78 109.232C68.1827 109.733 67.7773 110.411 67.564 111.264H73.564C73.5747 111.189 73.58 111.088 73.58 110.96C73.58 110.171 73.34 109.563 72.86 109.136C72.38 108.699 71.74 108.48 70.94 108.48ZM81.0048 111.728L83.7088 116H82.4128L80.1088 112.256H78.1248L77.3728 116H76.2368L77.9328 107.584H79.0688L78.3168 111.28H80.1888L83.9167 107.584H85.1968L81.0048 111.728ZM94.6935 107.584L93.0135 116H91.9255L92.1975 114.672C91.7922 115.12 91.3122 115.467 90.7575 115.712C90.2028 115.957 89.5895 116.08 88.9175 116.08C88.2028 116.08 87.5682 115.936 87.0135 115.648C86.4588 115.36 86.0268 114.949 85.7175 114.416C85.4082 113.872 85.2535 113.237 85.2535 112.512C85.2535 111.563 85.4562 110.709 85.8615 109.952C86.2775 109.195 86.8482 108.603 87.5735 108.176C88.2988 107.739 89.1095 107.52 90.0055 107.52C90.8055 107.52 91.4775 107.68 92.0215 108C92.5655 108.309 92.9602 108.757 93.2055 109.344L93.5575 107.584H94.6935ZM89.1575 115.072C89.8508 115.072 90.4748 114.907 91.0295 114.576C91.5842 114.235 92.0162 113.765 92.3255 113.168C92.6455 112.56 92.8055 111.883 92.8055 111.136C92.8055 110.315 92.5602 109.675 92.0695 109.216C91.5895 108.747 90.9122 108.512 90.0375 108.512C89.3442 108.512 88.7202 108.683 88.1655 109.024C87.6108 109.365 87.1735 109.84 86.8535 110.448C86.5442 111.045 86.3895 111.717 86.3895 112.464C86.3895 113.285 86.6295 113.925 87.1095 114.384C87.6002 114.843 88.2828 115.072 89.1575 115.072ZM96.5247 114.336C96.7594 114.336 96.9514 114.416 97.1008 114.576C97.2608 114.736 97.3408 114.933 97.3408 115.168C97.3408 115.307 97.3141 115.435 97.2608 115.552C97.2181 115.669 97.1434 115.824 97.0368 116.016L95.8208 118.336H95.0527L96.0768 115.984C95.9381 115.92 95.8261 115.824 95.7408 115.696C95.6661 115.557 95.6288 115.408 95.6288 115.248C95.6288 114.992 95.7141 114.779 95.8848 114.608C96.0661 114.427 96.2794 114.336 96.5247 114.336ZM105.511 107.584H106.647L105.287 114.384L112.199 107.584H113.287L111.607 116H110.439L111.831 109.2L104.919 116H103.815L105.511 107.584ZM122.938 116.08C122.149 116.08 121.461 115.936 120.874 115.648C120.287 115.349 119.834 114.933 119.514 114.4C119.205 113.856 119.05 113.227 119.05 112.512C119.05 111.563 119.258 110.709 119.674 109.952C120.09 109.195 120.671 108.603 121.418 108.176C122.165 107.739 123.007 107.52 123.946 107.52C124.725 107.52 125.391 107.664 125.946 107.952C126.511 108.229 126.949 108.645 127.258 109.2L126.298 109.76C125.818 108.928 125.002 108.512 123.85 108.512C123.157 108.512 122.527 108.683 121.962 109.024C121.407 109.365 120.97 109.835 120.65 110.432C120.341 111.029 120.186 111.707 120.186 112.464C120.186 113.285 120.426 113.925 120.906 114.384C121.397 114.843 122.09 115.072 122.986 115.072C123.53 115.072 124.031 114.971 124.49 114.768C124.959 114.555 125.343 114.251 125.642 113.856L126.458 114.48C126.085 114.981 125.583 115.376 124.954 115.664C124.335 115.941 123.663 116.08 122.938 116.08ZM135.489 108.592H132.289L130.817 116H129.681L131.153 108.592H127.985L128.177 107.584H135.697L135.489 108.592ZM141.435 107.52C142.15 107.52 142.784 107.664 143.339 107.952C143.904 108.24 144.342 108.651 144.651 109.184C144.96 109.717 145.115 110.347 145.115 111.072C145.115 112.021 144.907 112.88 144.491 113.648C144.086 114.405 143.52 115.003 142.795 115.44C142.07 115.867 141.254 116.08 140.347 116.08C139.547 116.08 138.875 115.925 138.331 115.616C137.787 115.296 137.392 114.837 137.147 114.24L136.187 119.104H135.051L137.339 107.584H138.427L138.155 108.928C138.56 108.469 139.04 108.123 139.595 107.888C140.15 107.643 140.763 107.52 141.435 107.52ZM140.331 115.072C141.024 115.072 141.643 114.907 142.187 114.576C142.742 114.235 143.174 113.765 143.483 113.168C143.803 112.571 143.963 111.893 143.963 111.136C143.963 110.315 143.718 109.675 143.227 109.216C142.747 108.747 142.07 108.512 141.195 108.512C140.502 108.512 139.878 108.683 139.323 109.024C138.779 109.355 138.347 109.824 138.027 110.432C137.718 111.029 137.563 111.707 137.563 112.464C137.563 113.285 137.803 113.925 138.283 114.384C138.774 114.843 139.456 115.072 140.331 115.072ZM147.874 112.112C147.863 112.187 147.858 112.299 147.858 112.448C147.858 113.301 148.098 113.952 148.578 114.4C149.069 114.848 149.794 115.072 150.754 115.072C151.309 115.072 151.826 114.981 152.306 114.8C152.797 114.608 153.197 114.347 153.506 114.016L154.018 114.832C153.623 115.227 153.127 115.536 152.53 115.76C151.943 115.973 151.319 116.08 150.658 116.08C149.442 116.08 148.482 115.76 147.778 115.12C147.085 114.48 146.738 113.605 146.738 112.496C146.738 111.557 146.935 110.709 147.33 109.952C147.735 109.195 148.29 108.603 148.994 108.176C149.709 107.739 150.509 107.52 151.394 107.52C152.514 107.52 153.405 107.84 154.066 108.48C154.727 109.109 155.058 109.979 155.058 111.088C155.058 111.397 155.021 111.739 154.946 112.112H147.874ZM151.362 108.48C150.519 108.48 149.799 108.731 149.202 109.232C148.605 109.733 148.199 110.411 147.986 111.264H153.986C153.997 111.189 154.002 111.088 154.002 110.96C154.002 110.171 153.762 109.563 153.282 109.136C152.802 108.699 152.162 108.48 151.362 108.48ZM167.747 107.584L166.067 116H165.027L166.355 109.344L161.827 114.976H161.315L159.043 109.28L157.699 116H156.659L158.339 107.584H159.475L161.827 113.648L166.675 107.584H167.747ZM170.98 107.584H172.116L170.756 114.384L177.668 107.584H178.756L177.076 116H175.908L177.3 109.2L170.388 116H169.284L170.98 107.584ZM191.387 107.584L189.707 116H188.667L189.995 109.344L185.467 114.976H184.955L182.683 109.28L181.339 116H180.299L181.979 107.584H183.115L185.467 113.648L190.315 107.584H191.387ZM196.844 116.08C196.055 116.08 195.367 115.936 194.78 115.648C194.194 115.349 193.74 114.933 193.42 114.4C193.111 113.856 192.956 113.227 192.956 112.512C192.956 111.563 193.164 110.709 193.58 109.952C193.996 109.195 194.578 108.603 195.324 108.176C196.071 107.739 196.914 107.52 197.852 107.52C198.631 107.52 199.298 107.664 199.852 107.952C200.418 108.229 200.855 108.645 201.164 109.2L200.204 109.76C199.724 108.928 198.908 108.512 197.756 108.512C197.063 108.512 196.434 108.683 195.868 109.024C195.314 109.365 194.876 109.835 194.556 110.432C194.247 111.029 194.092 111.707 194.092 112.464C194.092 113.285 194.332 113.925 194.812 114.384C195.303 114.843 195.996 115.072 196.892 115.072C197.436 115.072 197.938 114.971 198.396 114.768C198.866 114.555 199.25 114.251 199.548 113.856L200.364 114.48C199.991 114.981 199.49 115.376 198.86 115.664C198.242 115.941 197.57 116.08 196.844 116.08ZM210.022 107.584L208.358 116H207.318L207.878 113.168H205.286H204.982L202.47 116H201.174L203.926 112.992C202.827 112.661 202.278 111.931 202.278 110.8C202.278 109.797 202.651 109.013 203.398 108.448C204.144 107.872 205.163 107.584 206.454 107.584H210.022ZM208.79 108.576H206.374C205.446 108.576 204.726 108.768 204.214 109.152C203.702 109.536 203.446 110.08 203.446 110.784C203.446 111.819 204.118 112.336 205.462 112.336H208.054L208.79 108.576ZM219.688 116.08C218.899 116.08 218.211 115.936 217.624 115.648C217.037 115.349 216.584 114.933 216.264 114.4C215.955 113.856 215.8 113.227 215.8 112.512C215.8 111.563 216.008 110.709 216.424 109.952C216.84 109.195 217.421 108.603 218.168 108.176C218.915 107.739 219.757 107.52 220.696 107.52C221.475 107.52 222.141 107.664 222.696 107.952C223.261 108.229 223.699 108.645 224.008 109.2L223.048 109.76C222.568 108.928 221.752 108.512 220.6 108.512C219.907 108.512 219.277 108.683 218.712 109.024C218.157 109.365 217.72 109.835 217.4 110.432C217.091 111.029 216.936 111.707 216.936 112.464C216.936 113.285 217.176 113.925 217.656 114.384C218.147 114.843 218.84 115.072 219.736 115.072C220.28 115.072 220.781 114.971 221.24 114.768C221.709 114.555 222.093 114.251 222.392 113.856L223.208 114.48C222.835 114.981 222.333 115.376 221.704 115.664C221.085 115.941 220.413 116.08 219.688 116.08ZM231.81 115.008H233.122L232.53 118.032H231.458L231.858 116H224.322L223.921 118.032H222.849L223.441 115.008H223.873C224.439 114.976 224.914 114.549 225.298 113.728C225.682 112.907 226.055 111.781 226.418 110.352L227.09 107.584H233.282L231.81 115.008ZM227.442 110.512C227.132 111.739 226.834 112.72 226.546 113.456C226.258 114.192 225.9 114.709 225.474 115.008H230.674L231.954 108.592H227.906L227.442 110.512ZM236.296 112.112C236.285 112.187 236.28 112.299 236.28 112.448C236.28 113.301 236.52 113.952 237 114.4C237.49 114.848 238.216 115.072 239.176 115.072C239.73 115.072 240.248 114.981 240.728 114.8C241.218 114.608 241.618 114.347 241.928 114.016L242.44 114.832C242.045 115.227 241.549 115.536 240.952 115.76C240.365 115.973 239.741 116.08 239.08 116.08C237.864 116.08 236.904 115.76 236.2 115.12C235.506 114.48 235.16 113.605 235.16 112.496C235.16 111.557 235.357 110.709 235.752 109.952C236.157 109.195 236.712 108.603 237.416 108.176C238.13 107.739 238.93 107.52 239.816 107.52C240.936 107.52 241.826 107.84 242.488 108.48C243.149 109.109 243.48 109.979 243.48 111.088C243.48 111.397 243.442 111.739 243.368 112.112H236.296ZM239.784 108.48C238.941 108.48 238.221 108.731 237.624 109.232C237.026 109.733 236.621 110.411 236.408 111.264H242.408C242.418 111.189 242.424 111.088 242.424 110.96C242.424 110.171 242.184 109.563 241.704 109.136C241.224 108.699 240.584 108.48 239.784 108.48ZM253.485 107.584L251.789 116H250.653L252.125 108.592H248.109L247.597 110.672C247.266 111.952 246.946 112.987 246.637 113.776C246.327 114.555 245.975 115.141 245.581 115.536C245.197 115.92 244.743 116.112 244.221 116.112C244.007 116.112 243.73 116.069 243.389 115.984L243.661 115.008C243.853 115.051 243.981 115.072 244.045 115.072C244.589 115.072 245.047 114.715 245.421 114C245.805 113.275 246.194 112.128 246.589 110.56L247.325 107.584H253.485ZM264.506 107.584L262.826 116H261.738L262.01 114.672C261.605 115.12 261.125 115.467 260.57 115.712C260.015 115.957 259.402 116.08 258.73 116.08C258.015 116.08 257.381 115.936 256.826 115.648C256.271 115.36 255.839 114.949 255.53 114.416C255.221 113.872 255.066 113.237 255.066 112.512C255.066 111.563 255.269 110.709 255.674 109.952C256.09 109.195 256.661 108.603 257.386 108.176C258.111 107.739 258.922 107.52 259.818 107.52C260.618 107.52 261.29 107.68 261.834 108C262.378 108.309 262.773 108.757 263.018 109.344L263.37 107.584H264.506ZM258.97 115.072C259.663 115.072 260.287 114.907 260.842 114.576C261.397 114.235 261.829 113.765 262.138 113.168C262.458 112.56 262.618 111.883 262.618 111.136C262.618 110.315 262.373 109.675 261.882 109.216C261.402 108.747 260.725 108.512 259.85 108.512C259.157 108.512 258.533 108.683 257.978 109.024C257.423 109.365 256.986 109.84 256.666 110.448C256.357 111.045 256.202 111.717 256.202 112.464C256.202 113.285 256.442 113.925 256.922 114.384C257.413 114.843 258.095 115.072 258.97 115.072ZM273.457 108.592H270.257L268.785 116H267.649L269.121 108.592H265.953L266.145 107.584H273.665L273.457 108.592ZM278.22 110.544C280.108 110.544 281.052 111.296 281.052 112.8C281.052 113.44 280.886 114.005 280.556 114.496C280.236 114.976 279.777 115.349 279.18 115.616C278.593 115.872 277.91 116 277.132 116H273.612L275.292 107.616H276.428L275.852 110.544H278.22ZM277.132 115.136C277.964 115.136 278.636 114.933 279.148 114.528C279.66 114.112 279.916 113.568 279.916 112.896C279.916 112.395 279.745 112.021 279.404 111.776C279.073 111.52 278.566 111.392 277.884 111.392H275.676L274.94 115.136H277.132ZM26 131.584L24.32 140H23.184L24.64 132.592H19.36L17.904 140H16.768L18.448 131.584H26ZM31.4536 140.08C30.6643 140.08 29.9763 139.936 29.3896 139.648C28.803 139.349 28.3496 138.933 28.0296 138.4C27.7203 137.856 27.5656 137.227 27.5656 136.512C27.5656 135.563 27.7736 134.709 28.1896 133.952C28.6056 133.195 29.187 132.603 29.9336 132.176C30.6803 131.739 31.523 131.52 32.4616 131.52C33.2403 131.52 33.907 131.664 34.4616 131.952C35.027 132.229 35.4643 132.645 35.7736 133.2L34.8136 133.76C34.3336 132.928 33.5176 132.512 32.3656 132.512C31.6723 132.512 31.043 132.683 30.4776 133.024C29.923 133.365 29.4856 133.835 29.1656 134.432C28.8563 135.029 28.7016 135.707 28.7016 136.464C28.7016 137.285 28.9416 137.925 29.4216 138.384C29.9123 138.843 30.6056 139.072 31.5016 139.072C32.0456 139.072 32.547 138.971 33.0056 138.768C33.475 138.555 33.859 138.251 34.1576 137.856L34.9736 138.48C34.6003 138.981 34.099 139.376 33.4696 139.664C32.851 139.941 32.179 140.08 31.4536 140.08ZM38.4484 131.584H39.5844L38.2244 138.384L45.1364 131.584H46.2244L44.5444 140H43.3764L44.7684 133.2L37.8564 140H36.7524L38.4484 131.584ZM51.832 135.728L54.312 140H53.096L51.096 136.496L47.72 140H46.376L50.616 135.648L48.28 131.584H49.48L51.368 134.88L54.536 131.584H55.848L51.832 135.728ZM59.749 140.08C58.981 140.08 58.309 139.936 57.733 139.648C57.157 139.349 56.709 138.933 56.389 138.4C56.0797 137.856 55.925 137.227 55.925 136.512C55.925 135.563 56.133 134.709 56.549 133.952C56.965 133.195 57.541 132.603 58.277 132.176C59.0237 131.739 59.861 131.52 60.789 131.52C61.9623 131.52 62.8903 131.84 63.573 132.48C64.2663 133.12 64.613 133.984 64.613 135.072C64.613 136.021 64.405 136.88 63.989 137.648C63.573 138.405 62.9917 139.003 62.245 139.44C61.509 139.867 60.677 140.08 59.749 140.08ZM59.829 139.072C60.5223 139.072 61.1463 138.907 61.701 138.576C62.2557 138.235 62.6877 137.765 62.997 137.168C63.317 136.56 63.477 135.883 63.477 135.136C63.477 134.315 63.2317 133.675 62.741 133.216C62.261 132.747 61.5837 132.512 60.709 132.512C60.0157 132.512 59.3917 132.683 58.837 133.024C58.2823 133.365 57.845 133.84 57.525 134.448C57.2157 135.045 57.061 135.717 57.061 136.464C57.061 137.285 57.301 137.925 57.781 138.384C58.2717 138.843 58.9543 139.072 59.829 139.072ZM73.2854 132.592H70.0854L68.6134 140H67.4774L68.9494 132.592H65.7814L65.9734 131.584H73.4934L73.2854 132.592ZM74.2333 136.112C74.2226 136.187 74.2173 136.299 74.2173 136.448C74.2173 137.301 74.4573 137.952 74.9373 138.4C75.4279 138.848 76.1533 139.072 77.1133 139.072C77.6679 139.072 78.1853 138.981 78.6653 138.8C79.1559 138.608 79.5559 138.347 79.8653 138.016L80.3773 138.832C79.9826 139.227 79.4866 139.536 78.8893 139.76C78.3026 139.973 77.6786 140.08 77.0173 140.08C75.8013 140.08 74.8413 139.76 74.1373 139.12C73.4439 138.48 73.0973 137.605 73.0973 136.496C73.0973 135.557 73.2946 134.709 73.6893 133.952C74.0946 133.195 74.6493 132.603 75.3533 132.176C76.0679 131.739 76.8679 131.52 77.7533 131.52C78.8733 131.52 79.7639 131.84 80.4253 132.48C81.0866 133.109 81.4173 133.979 81.4173 135.088C81.4173 135.397 81.3799 135.739 81.3053 136.112H74.2333ZM77.7213 132.48C76.8786 132.48 76.1586 132.731 75.5613 133.232C74.9639 133.733 74.5586 134.411 74.3453 135.264H80.3453C80.3559 135.189 80.3612 135.088 80.3612 134.96C80.3612 134.171 80.1212 133.563 79.6413 133.136C79.1613 132.699 78.5213 132.48 77.7213 132.48ZM88.81 131.52C89.5247 131.52 90.1593 131.664 90.714 131.952C91.2793 132.24 91.7167 132.651 92.026 133.184C92.3353 133.717 92.49 134.347 92.49 135.072C92.49 136.021 92.282 136.88 91.866 137.648C91.4607 138.405 90.8953 139.003 90.17 139.44C89.4447 139.867 88.6287 140.08 87.722 140.08C86.922 140.08 86.25 139.925 85.706 139.616C85.162 139.296 84.7673 138.837 84.522 138.24L83.562 143.104H82.426L84.714 131.584H85.802L85.53 132.928C85.9353 132.469 86.4153 132.123 86.97 131.888C87.5247 131.643 88.138 131.52 88.81 131.52ZM87.706 139.072C88.3993 139.072 89.018 138.907 89.562 138.576C90.1167 138.235 90.5487 137.765 90.858 137.168C91.178 136.571 91.338 135.893 91.338 135.136C91.338 134.315 91.0927 133.675 90.602 133.216C90.122 132.747 89.4447 132.512 88.57 132.512C87.8767 132.512 87.2527 132.683 86.698 133.024C86.154 133.355 85.722 133.824 85.402 134.432C85.0927 135.029 84.938 135.707 84.938 136.464C84.938 137.285 85.178 137.925 85.658 138.384C86.1487 138.843 86.8313 139.072 87.706 139.072ZM103.553 131.584L101.873 140H100.785L101.057 138.672C100.652 139.12 100.172 139.467 99.6169 139.712C99.0622 139.957 98.4489 140.08 97.7769 140.08C97.0622 140.08 96.4275 139.936 95.8729 139.648C95.3182 139.36 94.8862 138.949 94.5769 138.416C94.2675 137.872 94.1129 137.237 94.1129 136.512C94.1129 135.563 94.3155 134.709 94.7209 133.952C95.1369 133.195 95.7075 132.603 96.4329 132.176C97.1582 131.739 97.9689 131.52 98.8649 131.52C99.6649 131.52 100.337 131.68 100.881 132C101.425 132.309 101.82 132.757 102.065 133.344L102.417 131.584H103.553ZM98.0169 139.072C98.7102 139.072 99.3342 138.907 99.8889 138.576C100.444 138.235 100.876 137.765 101.185 137.168C101.505 136.56 101.665 135.883 101.665 135.136C101.665 134.315 101.42 133.675 100.929 133.216C100.449 132.747 99.7715 132.512 98.8969 132.512C98.2035 132.512 97.5795 132.683 97.0249 133.024C96.4702 133.365 96.0329 133.84 95.7129 134.448C95.4035 135.045 95.2489 135.717 95.2489 136.464C95.2489 137.285 95.4889 137.925 95.9689 138.384C96.4595 138.843 97.1422 139.072 98.0169 139.072ZM114.328 131.584L112.648 140H111.512L112.968 132.592H107.688L106.232 140H105.096L106.776 131.584H114.328ZM117.558 131.584H118.694L117.334 138.384L124.246 131.584H125.334L123.654 140H122.486L123.878 133.2L116.966 140H115.862L117.558 131.584ZM135.517 131.52C136.659 131.52 137.571 131.84 138.253 132.48C138.936 133.12 139.277 133.979 139.277 135.056C139.277 136.005 139.069 136.864 138.653 137.632C138.248 138.389 137.677 138.987 136.941 139.424C136.205 139.861 135.379 140.08 134.461 140.08C133.704 140.08 133.043 139.936 132.477 139.648C131.912 139.349 131.475 138.933 131.165 138.4C130.856 137.856 130.701 137.232 130.701 136.528V136.256H128.781L128.029 140H126.893L128.573 131.584H129.709L128.989 135.216H130.845C131.016 134.491 131.32 133.851 131.757 133.296C132.205 132.731 132.749 132.293 133.389 131.984C134.04 131.675 134.749 131.52 135.517 131.52ZM134.557 139.072C135.24 139.072 135.848 138.907 136.381 138.576C136.925 138.235 137.352 137.765 137.661 137.168C137.971 136.56 138.125 135.877 138.125 135.12C138.125 134.299 137.891 133.659 137.421 133.2C136.952 132.741 136.291 132.512 135.437 132.512C134.755 132.512 134.141 132.683 133.597 133.024C133.053 133.365 132.627 133.84 132.317 134.448C132.008 135.045 131.853 135.723 131.853 136.48C131.853 137.301 132.088 137.941 132.557 138.4C133.027 138.848 133.693 139.072 134.557 139.072ZM150.713 132.032C151.78 132.032 152.612 132.331 153.209 132.928C153.817 133.515 154.121 134.325 154.121 135.36C154.121 136.256 153.908 137.067 153.481 137.792C153.055 138.517 152.468 139.088 151.721 139.504C150.975 139.92 150.137 140.128 149.209 140.128C148.004 140.128 147.065 139.771 146.393 139.056C145.732 138.341 145.401 137.317 145.401 135.984C145.401 134.821 145.636 133.733 146.105 132.72C146.575 131.707 147.225 130.853 148.057 130.16C148.9 129.467 149.865 129.003 150.953 128.768L154.857 127.952L154.889 128.944L151.209 129.712C150.089 129.947 149.145 130.437 148.377 131.184C147.62 131.92 147.081 132.859 146.761 134C147.263 133.36 147.844 132.875 148.505 132.544C149.177 132.203 149.913 132.032 150.713 132.032ZM149.273 139.232C149.945 139.232 150.559 139.072 151.113 138.752C151.668 138.421 152.105 137.979 152.425 137.424C152.745 136.859 152.905 136.235 152.905 135.552C152.905 134.752 152.681 134.139 152.233 133.712C151.796 133.275 151.167 133.056 150.345 133.056C149.695 133.056 149.071 133.211 148.473 133.52C147.887 133.829 147.412 134.24 147.049 134.752C146.697 135.253 146.521 135.781 146.521 136.336C146.521 137.232 146.767 137.941 147.257 138.464C147.748 138.976 148.42 139.232 149.273 139.232ZM156.874 136.112C156.863 136.187 156.858 136.299 156.858 136.448C156.858 137.301 157.098 137.952 157.578 138.4C158.069 138.848 158.794 139.072 159.754 139.072C160.309 139.072 160.826 138.981 161.306 138.8C161.797 138.608 162.197 138.347 162.506 138.016L163.018 138.832C162.623 139.227 162.127 139.536 161.53 139.76C160.943 139.973 160.319 140.08 159.658 140.08C158.442 140.08 157.482 139.76 156.778 139.12C156.085 138.48 155.738 137.605 155.738 136.496C155.738 135.557 155.935 134.709 156.33 133.952C156.735 133.195 157.29 132.603 157.994 132.176C158.709 131.739 159.509 131.52 160.394 131.52C161.514 131.52 162.405 131.84 163.066 132.48C163.727 133.109 164.058 133.979 164.058 135.088C164.058 135.397 164.021 135.739 163.946 136.112H156.874ZM160.362 132.48C159.519 132.48 158.799 132.731 158.202 133.232C157.605 133.733 157.199 134.411 156.986 135.264H162.986C162.997 135.189 163.002 135.088 163.002 134.96C163.002 134.171 162.762 133.563 162.282 133.136C161.802 132.699 161.162 132.48 160.362 132.48ZM170.16 135.648C170.694 135.787 171.099 136.011 171.376 136.32C171.654 136.619 171.792 136.992 171.792 137.44C171.792 137.941 171.616 138.395 171.264 138.8C170.923 139.205 170.443 139.525 169.824 139.76C169.216 139.984 168.534 140.096 167.776 140.096C166.464 140.096 165.392 139.739 164.56 139.024L165.04 138.224C165.35 138.512 165.744 138.731 166.224 138.88C166.704 139.029 167.227 139.104 167.792 139.104C168.336 139.104 168.827 139.029 169.264 138.88C169.702 138.731 170.043 138.523 170.288 138.256C170.534 137.989 170.656 137.691 170.656 137.36C170.656 136.955 170.475 136.64 170.112 136.416C169.76 136.192 169.27 136.08 168.64 136.08H167.248L167.376 135.216H168.576C169.302 135.216 169.883 135.083 170.32 134.816C170.768 134.549 170.992 134.197 170.992 133.76C170.992 133.355 170.816 133.04 170.464 132.816C170.112 132.592 169.627 132.48 169.008 132.48C168.208 132.48 167.318 132.709 166.336 133.168L166.016 132.224C167.04 131.733 168.07 131.488 169.104 131.488C170.022 131.488 170.758 131.68 171.312 132.064C171.878 132.437 172.16 132.944 172.16 133.584C172.16 134.075 171.984 134.501 171.632 134.864C171.28 135.227 170.79 135.488 170.16 135.648ZM177.687 140.08C176.919 140.08 176.247 139.936 175.671 139.648C175.095 139.349 174.647 138.933 174.327 138.4C174.017 137.856 173.863 137.227 173.863 136.512C173.863 135.563 174.071 134.709 174.487 133.952C174.903 133.195 175.479 132.603 176.215 132.176C176.961 131.739 177.799 131.52 178.727 131.52C179.9 131.52 180.828 131.84 181.51 132.48C182.204 133.12 182.551 133.984 182.551 135.072C182.551 136.021 182.343 136.88 181.927 137.648C181.511 138.405 180.929 139.003 180.183 139.44C179.447 139.867 178.615 140.08 177.687 140.08ZM177.766 139.072C178.46 139.072 179.084 138.907 179.639 138.576C180.193 138.235 180.625 137.765 180.935 137.168C181.255 136.56 181.415 135.883 181.415 135.136C181.415 134.315 181.169 133.675 180.679 133.216C180.199 132.747 179.521 132.512 178.647 132.512C177.953 132.512 177.329 132.683 176.775 133.024C176.22 133.365 175.783 133.84 175.463 134.448C175.153 135.045 174.999 135.717 174.999 136.464C174.999 137.285 175.239 137.925 175.719 138.384C176.209 138.843 176.892 139.072 177.766 139.072ZM193.359 131.584L191.679 140H190.543L191.999 132.592H186.719L185.263 140H184.127L185.807 131.584H193.359ZM204.381 131.584L202.701 140H201.613L201.885 138.672C201.48 139.12 201 139.467 200.445 139.712C199.89 139.957 199.277 140.08 198.605 140.08C197.89 140.08 197.256 139.936 196.701 139.648C196.146 139.36 195.714 138.949 195.405 138.416C195.096 137.872 194.941 137.237 194.941 136.512C194.941 135.563 195.144 134.709 195.549 133.952C195.965 133.195 196.536 132.603 197.261 132.176C197.986 131.739 198.797 131.52 199.693 131.52C200.493 131.52 201.165 131.68 201.709 132C202.253 132.309 202.648 132.757 202.893 133.344L203.245 131.584H204.381ZM198.845 139.072C199.538 139.072 200.162 138.907 200.717 138.576C201.272 138.235 201.704 137.765 202.013 137.168C202.333 136.56 202.493 135.883 202.493 135.136C202.493 134.315 202.248 133.675 201.757 133.216C201.277 132.747 200.6 132.512 199.725 132.512C199.032 132.512 198.408 132.683 197.853 133.024C197.298 133.365 196.861 133.84 196.541 134.448C196.232 135.045 196.077 135.717 196.077 136.464C196.077 137.285 196.317 137.925 196.797 138.384C197.288 138.843 197.97 139.072 198.845 139.072ZM209.844 140.08C209.055 140.08 208.367 139.936 207.78 139.648C207.194 139.349 206.74 138.933 206.42 138.4C206.111 137.856 205.956 137.227 205.956 136.512C205.956 135.563 206.164 134.709 206.58 133.952C206.996 133.195 207.578 132.603 208.324 132.176C209.071 131.739 209.914 131.52 210.852 131.52C211.631 131.52 212.298 131.664 212.852 131.952C213.418 132.229 213.855 132.645 214.164 133.2L213.204 133.76C212.724 132.928 211.908 132.512 210.756 132.512C210.063 132.512 209.434 132.683 208.868 133.024C208.314 133.365 207.876 133.835 207.556 134.432C207.247 135.029 207.092 135.707 207.092 136.464C207.092 137.285 207.332 137.925 207.812 138.384C208.303 138.843 208.996 139.072 209.892 139.072C210.436 139.072 210.938 138.971 211.396 138.768C211.866 138.555 212.25 138.251 212.548 137.856L213.364 138.48C212.991 138.981 212.49 139.376 211.86 139.664C211.242 139.941 210.57 140.08 209.844 140.08ZM216.823 131.584H217.959L217.223 135.312H222.503L223.255 131.584H224.391L222.711 140H221.575L222.311 136.288H217.031L216.279 140H215.143L216.823 131.584ZM229.78 140.08C229.012 140.08 228.34 139.936 227.764 139.648C227.188 139.349 226.74 138.933 226.42 138.4C226.111 137.856 225.956 137.227 225.956 136.512C225.956 135.563 226.164 134.709 226.58 133.952C226.996 133.195 227.572 132.603 228.308 132.176C229.055 131.739 229.892 131.52 230.82 131.52C231.994 131.52 232.922 131.84 233.604 132.48C234.298 133.12 234.644 133.984 234.644 135.072C234.644 136.021 234.436 136.88 234.02 137.648C233.604 138.405 233.023 139.003 232.276 139.44C231.54 139.867 230.708 140.08 229.78 140.08ZM229.86 139.072C230.554 139.072 231.178 138.907 231.732 138.576C232.287 138.235 232.719 137.765 233.028 137.168C233.348 136.56 233.508 135.883 233.508 135.136C233.508 134.315 233.263 133.675 232.772 133.216C232.292 132.747 231.615 132.512 230.74 132.512C230.047 132.512 229.423 132.683 228.868 133.024C228.314 133.365 227.876 133.84 227.556 134.448C227.247 135.045 227.092 135.717 227.092 136.464C227.092 137.285 227.332 137.925 227.812 138.384C228.303 138.843 228.986 139.072 229.86 139.072ZM237.917 131.584H239.053L237.693 138.384L244.605 131.584H245.693L244.013 140H242.845L244.237 133.2L237.325 140H236.221L237.917 131.584ZM242.061 130.352C241.41 130.352 240.898 130.208 240.525 129.92C240.152 129.621 239.965 129.221 239.965 128.72C239.965 128.581 239.981 128.443 240.013 128.304H240.797C240.786 128.368 240.781 128.453 240.781 128.56C240.781 128.901 240.898 129.179 241.133 129.392C241.378 129.595 241.709 129.696 242.125 129.696C242.584 129.696 242.978 129.573 243.309 129.328C243.64 129.072 243.858 128.731 243.965 128.304H244.765C244.626 128.955 244.317 129.461 243.837 129.824C243.368 130.176 242.776 130.352 242.061 130.352ZM247.525 138.336C247.759 138.336 247.951 138.416 248.101 138.576C248.261 138.736 248.341 138.933 248.341 139.168C248.341 139.307 248.314 139.435 248.261 139.552C248.218 139.669 248.143 139.824 248.037 140.016L246.821 142.336H246.053L247.077 139.984C246.938 139.92 246.826 139.824 246.741 139.696C246.666 139.557 246.629 139.408 246.629 139.248C246.629 138.992 246.714 138.779 246.885 138.608C247.066 138.427 247.279 138.336 247.525 138.336ZM263.599 131.584L257.455 141.088C256.943 141.877 256.463 142.421 256.015 142.72C255.567 143.029 255.034 143.184 254.415 143.184C254.01 143.184 253.626 143.115 253.263 142.976C252.9 142.848 252.618 142.667 252.415 142.432L253.023 141.6C253.407 142.005 253.903 142.208 254.511 142.208C254.884 142.208 255.22 142.107 255.519 141.904C255.818 141.701 256.127 141.349 256.447 140.848L257.039 139.952L254.943 131.584H256.095L257.839 138.752L262.431 131.584H263.599ZM270.466 139.008H271.778L271.186 142.032H270.114L270.514 140H262.978L262.578 142.032H261.506L262.098 139.008H262.53C263.095 138.976 263.57 138.549 263.954 137.728C264.338 136.907 264.711 135.781 265.074 134.352L265.746 131.584H271.938L270.466 139.008ZM266.098 134.512C265.788 135.739 265.49 136.72 265.202 137.456C264.914 138.192 264.556 138.709 264.13 139.008H269.33L270.61 132.592H266.562L266.098 134.512ZM277.624 140.08C276.856 140.08 276.184 139.936 275.608 139.648C275.032 139.349 274.584 138.933 274.264 138.4C273.955 137.856 273.8 137.227 273.8 136.512C273.8 135.563 274.008 134.709 274.424 133.952C274.84 133.195 275.416 132.603 276.152 132.176C276.899 131.739 277.736 131.52 278.664 131.52C279.837 131.52 280.765 131.84 281.448 132.48C282.141 133.12 282.488 133.984 282.488 135.072C282.488 136.021 282.28 136.88 281.864 137.648C281.448 138.405 280.867 139.003 280.12 139.44C279.384 139.867 278.552 140.08 277.624 140.08ZM277.704 139.072C278.397 139.072 279.021 138.907 279.576 138.576C280.131 138.235 280.563 137.765 280.872 137.168C281.192 136.56 281.352 135.883 281.352 135.136C281.352 134.315 281.107 133.675 280.616 133.216C280.136 132.747 279.459 132.512 278.584 132.512C277.891 132.512 277.267 132.683 276.712 133.024C276.157 133.365 275.72 133.84 275.4 134.448C275.091 135.045 274.936 135.717 274.936 136.464C274.936 137.285 275.176 137.925 275.656 138.384C276.147 138.843 276.829 139.072 277.704 139.072ZM289.729 132.032C290.796 132.032 291.628 132.331 292.225 132.928C292.833 133.515 293.137 134.325 293.137 135.36C293.137 136.256 292.924 137.067 292.497 137.792C292.07 138.517 291.484 139.088 290.737 139.504C289.99 139.92 289.153 140.128 288.225 140.128C287.02 140.128 286.081 139.771 285.409 139.056C284.748 138.341 284.417 137.317 284.417 135.984C284.417 134.821 284.652 133.733 285.121 132.72C285.59 131.707 286.241 130.853 287.073 130.16C287.916 129.467 288.881 129.003 289.969 128.768L293.873 127.952L293.905 128.944L290.225 129.712C289.105 129.947 288.161 130.437 287.393 131.184C286.636 131.92 286.097 132.859 285.777 134C286.278 133.36 286.86 132.875 287.521 132.544C288.193 132.203 288.929 132.032 289.729 132.032ZM288.289 139.232C288.961 139.232 289.574 139.072 290.129 138.752C290.684 138.421 291.121 137.979 291.441 137.424C291.761 136.859 291.921 136.235 291.921 135.552C291.921 134.752 291.697 134.139 291.249 133.712C290.812 133.275 290.182 133.056 289.361 133.056C288.71 133.056 288.086 133.211 287.489 133.52C286.902 133.829 286.428 134.24 286.065 134.752C285.713 135.253 285.537 135.781 285.537 136.336C285.537 137.232 285.782 137.941 286.273 138.464C286.764 138.976 287.436 139.232 288.289 139.232ZM296.386 131.584H297.522L296.786 135.312H302.066L302.818 131.584H303.954L302.274 140H301.138L301.874 136.288H296.594L295.842 140H294.706L296.386 131.584ZM309.343 140.08C308.575 140.08 307.903 139.936 307.327 139.648C306.751 139.349 306.303 138.933 305.983 138.4C305.673 137.856 305.519 137.227 305.519 136.512C305.519 135.563 305.727 134.709 306.143 133.952C306.559 133.195 307.135 132.603 307.871 132.176C308.617 131.739 309.455 131.52 310.383 131.52C311.556 131.52 312.484 131.84 313.167 132.48C313.86 133.12 314.207 133.984 314.207 135.072C314.207 136.021 313.999 136.88 313.583 137.648C313.167 138.405 312.585 139.003 311.839 139.44C311.103 139.867 310.271 140.08 309.343 140.08ZM309.423 139.072C310.116 139.072 310.74 138.907 311.295 138.576C311.849 138.235 312.281 137.765 312.591 137.168C312.911 136.56 313.071 135.883 313.071 135.136C313.071 134.315 312.825 133.675 312.335 133.216C311.855 132.747 311.177 132.512 310.303 132.512C309.609 132.512 308.985 132.683 308.431 133.024C307.876 133.365 307.439 133.84 307.119 134.448C306.809 135.045 306.655 135.717 306.655 136.464C306.655 137.285 306.895 137.925 307.375 138.384C307.865 138.843 308.548 139.072 309.423 139.072ZM317.48 131.584H318.616L317.256 138.384L324.168 131.584H325.256L323.576 140H322.408L323.8 133.2L316.888 140H315.784L317.48 131.584ZM321.624 130.352C320.973 130.352 320.461 130.208 320.088 129.92C319.714 129.621 319.528 129.221 319.528 128.72C319.528 128.581 319.544 128.443 319.576 128.304H320.36C320.349 128.368 320.344 128.453 320.344 128.56C320.344 128.901 320.461 129.179 320.696 129.392C320.941 129.595 321.272 129.696 321.688 129.696C322.146 129.696 322.541 129.573 322.872 129.328C323.202 129.072 323.421 128.731 323.528 128.304H324.328C324.189 128.955 323.88 129.461 323.4 129.824C322.93 130.176 322.338 130.352 321.624 130.352ZM332.683 131.584H333.819L332.459 138.384L339.371 131.584H340.459L338.779 140H337.611L339.003 133.2L332.091 140H330.987L332.683 131.584ZM23.872 163.008H25.184L24.592 166.032H23.52L23.92 164H16.384L15.984 166.032H14.912L15.504 163.008H15.936C16.5013 162.976 16.976 162.549 17.36 161.728C17.744 160.907 18.1173 159.781 18.48 158.352L19.152 155.584H25.344L23.872 163.008ZM19.504 158.512C19.1947 159.739 18.896 160.72 18.608 161.456C18.32 162.192 17.9627 162.709 17.536 163.008H22.736L24.016 156.592H19.968L19.504 158.512ZM31.0303 164.08C30.2623 164.08 29.5903 163.936 29.0143 163.648C28.4383 163.349 27.9903 162.933 27.6703 162.4C27.3609 161.856 27.2063 161.227 27.2063 160.512C27.2063 159.563 27.4143 158.709 27.8303 157.952C28.2463 157.195 28.8223 156.603 29.5583 156.176C30.3049 155.739 31.1423 155.52 32.0703 155.52C33.2436 155.52 34.1716 155.84 34.8542 156.48C35.5476 157.12 35.8943 157.984 35.8943 159.072C35.8943 160.021 35.6863 160.88 35.2703 161.648C34.8543 162.405 34.2729 163.003 33.5263 163.44C32.7903 163.867 31.9583 164.08 31.0303 164.08ZM31.1102 163.072C31.8036 163.072 32.4276 162.907 32.9823 162.576C33.5369 162.235 33.9689 161.765 34.2783 161.168C34.5983 160.56 34.7583 159.883 34.7583 159.136C34.7583 158.315 34.5129 157.675 34.0223 157.216C33.5423 156.747 32.8649 156.512 31.9903 156.512C31.2969 156.512 30.6729 156.683 30.1183 157.024C29.5636 157.365 29.1263 157.84 28.8063 158.448C28.4969 159.045 28.3423 159.717 28.3423 160.464C28.3423 161.285 28.5823 161.925 29.0623 162.384C29.5529 162.843 30.2356 163.072 31.1102 163.072ZM41.3911 164.08C40.6018 164.08 39.9138 163.936 39.3271 163.648C38.7405 163.349 38.2871 162.933 37.9671 162.4C37.6578 161.856 37.5031 161.227 37.5031 160.512C37.5031 159.563 37.7111 158.709 38.1271 157.952C38.5431 157.195 39.1245 156.603 39.8711 156.176C40.6178 155.739 41.4605 155.52 42.3991 155.52C43.1778 155.52 43.8445 155.664 44.3991 155.952C44.9645 156.229 45.4018 156.645 45.7111 157.2L44.7511 157.76C44.2711 156.928 43.4551 156.512 42.3031 156.512C41.6098 156.512 40.9805 156.683 40.4151 157.024C39.8605 157.365 39.4231 157.835 39.1031 158.432C38.7938 159.029 38.6391 159.707 38.6391 160.464C38.6391 161.285 38.8791 161.925 39.3591 162.384C39.8498 162.843 40.5431 163.072 41.4391 163.072C41.9831 163.072 42.4845 162.971 42.9431 162.768C43.4125 162.555 43.7965 162.251 44.0951 161.856L44.9111 162.48C44.5378 162.981 44.0365 163.376 43.4071 163.664C42.7885 163.941 42.1165 164.08 41.3911 164.08ZM53.9416 156.592H50.7416L49.2696 164H48.1336L49.6056 156.592H46.4376L46.6296 155.584H54.1496L53.9416 156.592ZM62.9114 155.584L56.7674 165.088C56.2554 165.877 55.7754 166.421 55.3274 166.72C54.8794 167.029 54.346 167.184 53.7274 167.184C53.322 167.184 52.938 167.115 52.5754 166.976C52.2127 166.848 51.93 166.667 51.7274 166.432L52.3354 165.6C52.7194 166.005 53.2154 166.208 53.8234 166.208C54.1967 166.208 54.5327 166.107 54.8314 165.904C55.13 165.701 55.4394 165.349 55.7594 164.848L56.3514 163.952L54.2554 155.584H55.4074L57.1514 162.752L61.7434 155.584H62.9114ZM72.2812 155.584L70.6013 164H69.4653L70.9213 156.592H65.6413L64.1853 164H63.0493L64.7293 155.584H72.2812ZM75.4949 155.584H76.6309L75.8949 159.312H81.1749L81.9269 155.584H83.0629L81.3829 164H80.2469L80.9829 160.288H75.7029L74.9509 164H73.8149L75.4949 155.584ZM88.4521 164.08C87.6841 164.08 87.0121 163.936 86.4361 163.648C85.8601 163.349 85.4121 162.933 85.0921 162.4C84.7828 161.856 84.6281 161.227 84.6281 160.512C84.6281 159.563 84.8361 158.709 85.2521 157.952C85.6681 157.195 86.2441 156.603 86.9801 156.176C87.7268 155.739 88.5641 155.52 89.4921 155.52C90.6655 155.52 91.5935 155.84 92.2761 156.48C92.9695 157.12 93.3161 157.984 93.3161 159.072C93.3161 160.021 93.1081 160.88 92.6921 161.648C92.2761 162.405 91.6948 163.003 90.9481 163.44C90.2121 163.867 89.3801 164.08 88.4521 164.08ZM88.5321 163.072C89.2255 163.072 89.8495 162.907 90.4041 162.576C90.9588 162.235 91.3908 161.765 91.7001 161.168C92.0201 160.56 92.1801 159.883 92.1801 159.136C92.1801 158.315 91.9348 157.675 91.4441 157.216C90.9641 156.747 90.2868 156.512 89.4121 156.512C88.7188 156.512 88.0948 156.683 87.5401 157.024C86.9855 157.365 86.5481 157.84 86.2281 158.448C85.9188 159.045 85.7641 159.717 85.7641 160.464C85.7641 161.285 86.0041 161.925 86.4841 162.384C86.9748 162.843 87.6575 163.072 88.5321 163.072ZM96.589 155.584H97.725L96.365 162.384L103.277 155.584H104.365L102.685 164H101.517L102.909 157.2L95.997 164H94.893L96.589 155.584ZM100.733 154.352C100.082 154.352 99.5703 154.208 99.197 153.92C98.8237 153.621 98.637 153.221 98.637 152.72C98.637 152.581 98.653 152.443 98.685 152.304H99.469C99.4583 152.368 99.453 152.453 99.453 152.56C99.453 152.901 99.5703 153.179 99.805 153.392C100.05 153.595 100.381 153.696 100.797 153.696C101.256 153.696 101.65 153.573 101.981 153.328C102.312 153.072 102.53 152.731 102.637 152.304H103.437C103.298 152.955 102.989 153.461 102.509 153.824C102.04 154.176 101.448 154.352 100.733 154.352ZM114.864 159.728L117.568 164H116.272L113.968 160.256H111.984L111.232 164H110.096L111.792 155.584H112.928L112.176 159.28H114.048L117.776 155.584H119.056L114.864 159.728ZM128.553 155.584L126.873 164H125.785L126.057 162.672C125.652 163.12 125.172 163.467 124.617 163.712C124.062 163.957 123.449 164.08 122.777 164.08C122.062 164.08 121.428 163.936 120.873 163.648C120.318 163.36 119.886 162.949 119.577 162.416C119.268 161.872 119.113 161.237 119.113 160.512C119.113 159.563 119.316 158.709 119.721 157.952C120.137 157.195 120.708 156.603 121.433 156.176C122.158 155.739 122.969 155.52 123.865 155.52C124.665 155.52 125.337 155.68 125.881 156C126.425 156.309 126.82 156.757 127.065 157.344L127.417 155.584H128.553ZM123.017 163.072C123.71 163.072 124.334 162.907 124.889 162.576C125.444 162.235 125.876 161.765 126.185 161.168C126.505 160.56 126.665 159.883 126.665 159.136C126.665 158.315 126.42 157.675 125.929 157.216C125.449 156.747 124.772 156.512 123.897 156.512C123.204 156.512 122.58 156.683 122.025 157.024C121.47 157.365 121.033 157.84 120.713 158.448C120.404 159.045 120.249 159.717 120.249 160.464C120.249 161.285 120.489 161.925 120.969 162.384C121.46 162.843 122.142 163.072 123.017 163.072ZM139.232 159.76L141.424 164H140.096L138.24 160.224H136.432L135.664 164H134.528L135.28 160.224H133.504L130.176 164H128.752L132.672 159.632L130.704 155.584H131.904L133.648 159.296H135.472L136.208 155.584H137.36L136.608 159.296H138.4L141.632 155.584H142.912L139.232 159.76ZM150.435 163.008H151.747L151.155 166.032H150.083L150.483 164H142.947L142.546 166.032H141.474L142.066 163.008H142.498C143.064 162.976 143.539 162.549 143.923 161.728C144.307 160.907 144.68 159.781 145.043 158.352L145.715 155.584H151.907L150.435 163.008ZM146.067 158.512C145.757 159.739 145.459 160.72 145.171 161.456C144.883 162.192 144.525 162.709 144.099 163.008H149.299L150.579 156.592H146.531L146.067 158.512ZM157.593 164.08C156.825 164.08 156.153 163.936 155.577 163.648C155.001 163.349 154.553 162.933 154.233 162.4C153.923 161.856 153.769 161.227 153.769 160.512C153.769 159.563 153.977 158.709 154.393 157.952C154.809 157.195 155.385 156.603 156.121 156.176C156.867 155.739 157.705 155.52 158.633 155.52C159.806 155.52 160.734 155.84 161.417 156.48C162.11 157.12 162.457 157.984 162.457 159.072C162.457 160.021 162.249 160.88 161.833 161.648C161.417 162.405 160.835 163.003 160.089 163.44C159.353 163.867 158.521 164.08 157.593 164.08ZM157.673 163.072C158.366 163.072 158.99 162.907 159.545 162.576C160.099 162.235 160.531 161.765 160.841 161.168C161.161 160.56 161.321 159.883 161.321 159.136C161.321 158.315 161.075 157.675 160.585 157.216C160.105 156.747 159.427 156.512 158.553 156.512C157.859 156.512 157.235 156.683 156.681 157.024C156.126 157.365 155.689 157.84 155.369 158.448C155.059 159.045 154.905 159.717 154.905 160.464C154.905 161.285 155.145 161.925 155.625 162.384C156.115 162.843 156.798 163.072 157.673 163.072ZM175.122 155.584L173.442 164H172.402L173.73 157.344L169.202 162.976H168.69L166.418 157.28L165.074 164H164.034L165.714 155.584H166.85L169.202 161.648L174.05 155.584H175.122ZM185.443 155.584L179.299 165.088C178.787 165.877 178.307 166.421 177.859 166.72C177.411 167.029 176.877 167.184 176.259 167.184C175.853 167.184 175.469 167.115 175.107 166.976C174.744 166.848 174.461 166.667 174.259 166.432L174.867 165.6C175.251 166.005 175.747 166.208 176.355 166.208C176.728 166.208 177.064 166.107 177.363 165.904C177.661 165.701 177.971 165.349 178.291 164.848L178.883 163.952L176.787 155.584H177.939L179.683 162.752L184.275 155.584H185.443Z" fill="#333333"/>
<path d="M24.976 193.6H19.776L18.784 196H16.128L21.12 184.8H23.68L28.688 196H25.968L24.976 193.6ZM24.16 191.632L22.384 187.344L20.608 191.632H24.16ZM29.9813 187.392H32.4613V190.752H36.2053V187.392H38.7013V196H36.2053V192.784H32.4613V196H29.9813V187.392ZM44.4346 187.264C45.768 187.264 46.792 187.584 47.5066 188.224C48.2213 188.853 48.5786 189.808 48.5786 191.088V196H46.2426V194.928C45.7733 195.728 44.8986 196.128 43.6186 196.128C42.9573 196.128 42.3813 196.016 41.8906 195.792C41.4106 195.568 41.0426 195.259 40.7866 194.864C40.5306 194.469 40.4026 194.021 40.4026 193.52C40.4026 192.72 40.7013 192.091 41.2986 191.632C41.9066 191.173 42.84 190.944 44.0986 190.944H46.0826C46.0826 190.4 45.9173 189.984 45.5866 189.696C45.256 189.397 44.76 189.248 44.0986 189.248C43.64 189.248 43.1866 189.323 42.7386 189.472C42.3013 189.611 41.928 189.803 41.6186 190.048L40.7226 188.304C41.192 187.973 41.752 187.717 42.4026 187.536C43.064 187.355 43.7413 187.264 44.4346 187.264ZM44.2426 194.448C44.6693 194.448 45.048 194.352 45.3786 194.16C45.7093 193.957 45.944 193.664 46.0826 193.28V192.4H44.3706C43.3466 192.4 42.8346 192.736 42.8346 193.408C42.8346 193.728 42.9573 193.984 43.2026 194.176C43.4586 194.357 43.8053 194.448 44.2426 194.448ZM59.8061 191.488H58.0141V196H55.4381V184.8H58.0141V189.328H59.8701L62.8141 184.8H65.5501L61.8861 190.208L65.6621 196H62.7181L59.8061 191.488ZM71.9595 187.264C72.7595 187.264 73.4848 187.451 74.1355 187.824C74.7968 188.187 75.3142 188.704 75.6875 189.376C76.0608 190.037 76.2475 190.811 76.2475 191.696C76.2475 192.581 76.0608 193.36 75.6875 194.032C75.3142 194.693 74.7968 195.211 74.1355 195.584C73.4848 195.947 72.7595 196.128 71.9595 196.128C70.8608 196.128 69.9968 195.781 69.3675 195.088V199.104H66.8715V187.392H69.2555V188.384C69.8742 187.637 70.7755 187.264 71.9595 187.264ZM71.5275 194.08C72.1675 194.08 72.6902 193.867 73.0955 193.44C73.5115 193.003 73.7195 192.421 73.7195 191.696C73.7195 190.971 73.5115 190.395 73.0955 189.968C72.6902 189.531 72.1675 189.312 71.5275 189.312C70.8875 189.312 70.3595 189.531 69.9435 189.968C69.5382 190.395 69.3355 190.971 69.3355 191.696C69.3355 192.421 69.5382 193.003 69.9435 193.44C70.3595 193.867 70.8875 194.08 71.5275 194.08ZM82.5249 190.144C83.6449 190.155 84.4929 190.405 85.0689 190.896C85.6449 191.387 85.9329 192.091 85.9329 193.008C85.9329 193.968 85.6075 194.709 84.9569 195.232C84.3062 195.755 83.3835 196.016 82.1889 196.016L77.9969 196V187.392H80.4769V190.144H82.5249ZM86.8609 187.392H89.3409V196H86.8609V187.392ZM81.9649 194.24C82.4449 194.251 82.8129 194.149 83.0689 193.936C83.3249 193.723 83.4529 193.403 83.4529 192.976C83.4529 192.56 83.3249 192.256 83.0689 192.064C82.8235 191.872 82.4555 191.771 81.9649 191.76L80.4769 191.744V194.24H81.9649ZM100.147 196V190.848L97.5709 195.168H96.5149L94.0029 190.832V196H91.7469V187.392H94.3549L97.1069 192.368L100.035 187.392H102.371L102.403 196H100.147ZM108.89 196.128C107.972 196.128 107.146 195.941 106.41 195.568C105.684 195.184 105.114 194.656 104.698 193.984C104.292 193.312 104.09 192.549 104.09 191.696C104.09 190.843 104.292 190.08 104.698 189.408C105.114 188.736 105.684 188.213 106.41 187.84C107.146 187.456 107.972 187.264 108.89 187.264C109.796 187.264 110.586 187.456 111.258 187.84C111.94 188.213 112.436 188.752 112.746 189.456L110.81 190.496C110.362 189.707 109.716 189.312 108.874 189.312C108.223 189.312 107.684 189.525 107.258 189.952C106.831 190.379 106.618 190.96 106.618 191.696C106.618 192.432 106.831 193.013 107.258 193.44C107.684 193.867 108.223 194.08 108.874 194.08C109.727 194.08 110.372 193.685 110.81 192.896L112.746 193.952C112.436 194.635 111.94 195.168 111.258 195.552C110.586 195.936 109.796 196.128 108.89 196.128ZM118.055 192.736H116.759V196H114.263V187.392H116.759V190.736H118.103L120.439 187.392H123.095L120.087 191.52L123.303 196H120.359L118.055 192.736ZM127.716 187.264C129.049 187.264 130.073 187.584 130.788 188.224C131.503 188.853 131.86 189.808 131.86 191.088V196H129.524V194.928C129.055 195.728 128.18 196.128 126.9 196.128C126.239 196.128 125.663 196.016 125.172 195.792C124.692 195.568 124.324 195.259 124.068 194.864C123.812 194.469 123.684 194.021 123.684 193.52C123.684 192.72 123.983 192.091 124.58 191.632C125.188 191.173 126.121 190.944 127.38 190.944H129.364C129.364 190.4 129.199 189.984 128.868 189.696C128.537 189.397 128.041 189.248 127.38 189.248C126.921 189.248 126.468 189.323 126.02 189.472C125.583 189.611 125.209 189.803 124.9 190.048L124.004 188.304C124.473 187.973 125.033 187.717 125.684 187.536C126.345 187.355 127.023 187.264 127.716 187.264ZM127.524 194.448C127.951 194.448 128.329 194.352 128.66 194.16C128.991 193.957 129.225 193.664 129.364 193.28V192.4H127.652C126.628 192.4 126.116 192.736 126.116 193.408C126.116 193.728 126.239 193.984 126.484 194.176C126.74 194.357 127.087 194.448 127.524 194.448ZM141.676 187.392V196H139.452V193.536H137.612L135.98 196H133.324L135.292 193.184C134.695 192.949 134.236 192.613 133.916 192.176C133.607 191.728 133.452 191.189 133.452 190.56C133.452 189.547 133.815 188.768 134.54 188.224C135.276 187.669 136.284 187.392 137.564 187.392H141.676ZM137.612 189.424C137.079 189.424 136.673 189.52 136.396 189.712C136.129 189.904 135.996 190.213 135.996 190.64C135.996 191.067 136.124 191.381 136.38 191.584C136.647 191.776 137.047 191.872 137.58 191.872H139.452V189.424H137.612Z" fill="#333333"/>
</svg>
