<svg width="374" height="168" viewBox="0 0 374 168" fill="none" xmlns="http://www.w3.org/2000/svg">
<path d="M306.219 89.2085C294.379 -4.63565 232.261 -4.64452 167.174 3.03562C102.088 10.7158 74.4989 36.3869 67.5503 69.2546C60.6016 102.122 88.3612 160.543 144.034 167.097C199.706 173.652 228.074 142.299 250.985 143.914C273.896 145.529 310.044 119.5 306.219 89.2085Z" fill="#FFEDEE"/>
<path d="M43.7796 30.8L41.5396 42H40.4036L42.1796 33.12L36.3876 40.576H35.8276L32.8356 32.976L31.0436 42H29.9076L32.1476 30.8H33.1076L36.3396 39.12L42.7396 30.8H43.7796ZM54.8978 33.584H56.0338L54.3538 42H53.2178L54.8978 33.584ZM49.5698 36.544C51.4578 36.544 52.4018 37.296 52.4018 38.8C52.4018 39.44 52.2365 40.0053 51.9058 40.496C51.5858 40.976 51.1271 41.3493 50.5298 41.616C49.9431 41.872 49.2605 42 48.4818 42H45.0258L46.7058 33.616H47.8418L47.2658 36.544H49.5698ZM48.4818 41.136C49.3138 41.136 49.9858 40.9333 50.4978 40.528C51.0098 40.112 51.2658 39.568 51.2658 38.896C51.2658 38.3947 51.0951 38.0213 50.7538 37.776C50.4231 37.52 49.9165 37.392 49.2338 37.392H47.0898L46.3538 41.136H48.4818ZM66.4962 37.648C67.0295 37.7867 67.4349 38.0107 67.7122 38.32C67.9895 38.6187 68.1282 38.992 68.1282 39.44C68.1282 39.9413 67.9522 40.3947 67.6002 40.8C67.2589 41.2053 66.7789 41.5253 66.1602 41.76C65.5522 41.984 64.8695 42.096 64.1122 42.096C62.8002 42.096 61.7282 41.7387 60.8962 41.024L61.3762 40.224C61.6855 40.512 62.0802 40.7307 62.5602 40.88C63.0402 41.0293 63.5629 41.104 64.1282 41.104C64.6722 41.104 65.1629 41.0293 65.6002 40.88C66.0375 40.7307 66.3789 40.5227 66.6242 40.256C66.8695 39.9893 66.9922 39.6907 66.9922 39.36C66.9922 38.9547 66.8109 38.64 66.4482 38.416C66.0962 38.192 65.6055 38.08 64.9762 38.08H63.5842L63.7122 37.216H64.9122C65.6375 37.216 66.2189 37.0827 66.6562 36.816C67.1042 36.5493 67.3282 36.1973 67.3282 35.76C67.3282 35.3547 67.1522 35.04 66.8002 34.816C66.4482 34.592 65.9629 34.48 65.3442 34.48C64.5442 34.48 63.6535 34.7093 62.6722 35.168L62.3522 34.224C63.3762 33.7333 64.4055 33.488 65.4402 33.488C66.3575 33.488 67.0935 33.68 67.6482 34.064C68.2135 34.4373 68.4962 34.944 68.4962 35.584C68.4962 36.0747 68.3202 36.5013 67.9682 36.864C67.6162 37.2267 67.1255 37.488 66.4962 37.648ZM71.8464 33.584H72.9824L72.2464 37.312H77.5264L78.2784 33.584H79.4144L77.7344 42H76.5984L77.3344 38.288H72.0544L71.3024 42H70.1664L71.8464 33.584ZM90.4357 33.584L88.7557 42H87.6677L87.9397 40.672C87.5344 41.12 87.0544 41.4667 86.4997 41.712C85.945 41.9573 85.3317 42.08 84.6597 42.08C83.945 42.08 83.3104 41.936 82.7557 41.648C82.201 41.36 81.769 40.9493 81.4597 40.416C81.1504 39.872 80.9957 39.2373 80.9957 38.512C80.9957 37.5627 81.1984 36.7093 81.6037 35.952C82.0197 35.1947 82.5904 34.6027 83.3157 34.176C84.041 33.7387 84.8517 33.52 85.7477 33.52C86.5477 33.52 87.2197 33.68 87.7637 34C88.3077 34.3093 88.7024 34.7573 88.9477 35.344L89.2997 33.584H90.4357ZM84.8997 41.072C85.593 41.072 86.217 40.9067 86.7717 40.576C87.3264 40.2347 87.7584 39.7653 88.0677 39.168C88.3877 38.56 88.5477 37.8827 88.5477 37.136C88.5477 36.3147 88.3024 35.6747 87.8117 35.216C87.3317 34.7467 86.6544 34.512 85.7797 34.512C85.0864 34.512 84.4624 34.6827 83.9077 35.024C83.353 35.3653 82.9157 35.84 82.5957 36.448C82.2864 37.0453 82.1317 37.7173 82.1317 38.464C82.1317 39.2853 82.3717 39.9253 82.8517 40.384C83.3424 40.8427 84.025 41.072 84.8997 41.072ZM93.1629 38.112C93.1523 38.1867 93.1469 38.2987 93.1469 38.448C93.1469 39.3013 93.3869 39.952 93.8669 40.4C94.3576 40.848 95.0829 41.072 96.0429 41.072C96.5976 41.072 97.1149 40.9813 97.5949 40.8C98.0856 40.608 98.4856 40.3467 98.7949 40.016L99.3069 40.832C98.9123 41.2267 98.4163 41.536 97.8189 41.76C97.2323 41.9733 96.6083 42.08 95.9469 42.08C94.7309 42.08 93.7709 41.76 93.0669 41.12C92.3736 40.48 92.0269 39.6053 92.0269 38.496C92.0269 37.5573 92.2243 36.7093 92.6189 35.952C93.0243 35.1947 93.5789 34.6027 94.2829 34.176C94.9976 33.7387 95.7976 33.52 96.6829 33.52C97.8029 33.52 98.6936 33.84 99.3549 34.48C100.016 35.1093 100.347 35.9787 100.347 37.088C100.347 37.3973 100.31 37.7387 100.235 38.112H93.1629ZM96.6509 34.48C95.8083 34.48 95.0883 34.7307 94.4909 35.232C93.8936 35.7333 93.4883 36.4107 93.2749 37.264H99.2749C99.2856 37.1893 99.2909 37.088 99.2909 36.96C99.2909 36.1707 99.0509 35.5627 98.5709 35.136C98.0909 34.6987 97.4509 34.48 96.6509 34.48ZM113.036 33.584L111.356 42H110.316L111.644 35.344L107.116 40.976H106.604L104.332 35.28L102.988 42H101.948L103.628 33.584H104.764L107.116 39.648L111.964 33.584H113.036ZM114.861 40.336C115.095 40.336 115.287 40.416 115.437 40.576C115.597 40.736 115.677 40.9333 115.677 41.168C115.677 41.3067 115.65 41.4347 115.597 41.552C115.554 41.6693 115.479 41.824 115.373 42.016L114.157 44.336H113.389L114.413 41.984C114.274 41.92 114.162 41.824 114.077 41.696C114.002 41.5573 113.965 41.408 113.965 41.248C113.965 40.992 114.05 40.7787 114.221 40.608C114.402 40.4267 114.615 40.336 114.861 40.336ZM130.183 33.584L128.503 42H127.367L128.055 38.528C127.031 38.9333 126.06 39.136 125.143 39.136C124.257 39.136 123.564 38.96 123.063 38.608C122.572 38.2453 122.327 37.7173 122.327 37.024C122.327 36.8427 122.353 36.608 122.407 36.32L122.951 33.584H124.087L123.543 36.336C123.511 36.496 123.495 36.6507 123.495 36.8C123.495 37.2693 123.66 37.6213 123.991 37.856C124.321 38.0907 124.785 38.208 125.383 38.208C126.236 38.208 127.196 37.984 128.263 37.536L129.047 33.584H130.183ZM139.121 34.592H135.921L134.449 42H133.313L134.785 34.592H131.617L131.809 33.584H139.329L139.121 34.592ZM142.741 42.08C141.973 42.08 141.301 41.936 140.725 41.648C140.149 41.3493 139.701 40.9333 139.381 40.4C139.072 39.856 138.917 39.2267 138.917 38.512C138.917 37.5627 139.125 36.7093 139.541 35.952C139.957 35.1947 140.533 34.6027 141.269 34.176C142.016 33.7387 142.853 33.52 143.781 33.52C144.955 33.52 145.883 33.84 146.565 34.48C147.259 35.12 147.605 35.984 147.605 37.072C147.605 38.0213 147.397 38.88 146.981 39.648C146.565 40.4053 145.984 41.0027 145.237 41.44C144.501 41.8667 143.669 42.08 142.741 42.08ZM142.821 41.072C143.515 41.072 144.139 40.9067 144.693 40.576C145.248 40.2347 145.68 39.7653 145.989 39.168C146.309 38.56 146.469 37.8827 146.469 37.136C146.469 36.3147 146.224 35.6747 145.733 35.216C145.253 34.7467 144.576 34.512 143.701 34.512C143.008 34.512 142.384 34.6827 141.829 35.024C141.275 35.3653 140.837 35.84 140.517 36.448C140.208 37.0453 140.053 37.7173 140.053 38.464C140.053 39.2853 140.293 39.9253 140.773 40.384C141.264 40.8427 141.947 41.072 142.821 41.072ZM155.05 33.584H156.186L155.45 37.312H160.73L161.482 33.584H162.618L160.938 42H159.802L160.538 38.288H155.258L154.506 42H153.37L155.05 33.584ZM172.935 33.584L166.791 43.088C166.279 43.8773 165.799 44.4213 165.351 44.72C164.903 45.0293 164.369 45.184 163.751 45.184C163.345 45.184 162.961 45.1147 162.599 44.976C162.236 44.848 161.953 44.6667 161.751 44.432L162.359 43.6C162.743 44.0053 163.239 44.208 163.847 44.208C164.22 44.208 164.556 44.1067 164.855 43.904C165.153 43.7013 165.463 43.3493 165.783 42.848L166.375 41.952L164.279 33.584H165.431L167.175 40.752L171.767 33.584H172.935ZM181.724 37.76L183.916 42H182.588L180.732 38.224H178.924L178.156 42H177.02L177.772 38.224H175.996L172.668 42H171.244L175.164 37.632L173.196 33.584H174.396L176.14 37.296H177.964L178.7 33.584H179.852L179.1 37.296H180.892L184.124 33.584H185.404L181.724 37.76ZM192.927 41.008H194.239L193.647 44.032H192.575L192.975 42H185.439L185.039 44.032H183.967L184.559 41.008H184.991C185.556 40.976 186.031 40.5493 186.415 39.728C186.799 38.9067 187.172 37.7813 187.535 36.352L188.207 33.584H194.399L192.927 41.008ZM188.559 36.512C188.249 37.7387 187.951 38.72 187.663 39.456C187.375 40.192 187.017 40.7093 186.591 41.008H191.791L193.071 34.592H189.023L188.559 36.512ZM205.717 33.584L204.037 42H202.949L203.221 40.672C202.816 41.12 202.336 41.4667 201.781 41.712C201.226 41.9573 200.613 42.08 199.941 42.08C199.226 42.08 198.592 41.936 198.037 41.648C197.482 41.36 197.05 40.9493 196.741 40.416C196.432 39.872 196.277 39.2373 196.277 38.512C196.277 37.5627 196.48 36.7093 196.885 35.952C197.301 35.1947 197.872 34.6027 198.597 34.176C199.322 33.7387 200.133 33.52 201.029 33.52C201.829 33.52 202.501 33.68 203.045 34C203.589 34.3093 203.984 34.7573 204.229 35.344L204.581 33.584H205.717ZM200.181 41.072C200.874 41.072 201.498 40.9067 202.053 40.576C202.608 40.2347 203.04 39.7653 203.349 39.168C203.669 38.56 203.829 37.8827 203.829 37.136C203.829 36.3147 203.584 35.6747 203.093 35.216C202.613 34.7467 201.936 34.512 201.061 34.512C200.368 34.512 199.744 34.6827 199.189 35.024C198.634 35.3653 198.197 35.84 197.877 36.448C197.568 37.0453 197.413 37.7173 197.413 38.464C197.413 39.2853 197.653 39.9253 198.133 40.384C198.624 40.8427 199.306 41.072 200.181 41.072ZM214.668 34.592H211.468L209.996 42H208.86L210.332 34.592H207.164L207.356 33.584H214.876L214.668 34.592ZM219.431 36.544C221.319 36.544 222.263 37.296 222.263 38.8C222.263 39.44 222.097 40.0053 221.767 40.496C221.447 40.976 220.988 41.3493 220.391 41.616C219.804 41.872 219.121 42 218.343 42H214.823L216.503 33.616H217.639L217.063 36.544H219.431ZM218.343 41.136C219.175 41.136 219.847 40.9333 220.359 40.528C220.871 40.112 221.127 39.568 221.127 38.896C221.127 38.3947 220.956 38.0213 220.615 37.776C220.284 37.52 219.777 37.392 219.095 37.392H216.887L216.151 41.136H218.343ZM227.727 42.08C226.938 42.08 226.25 41.936 225.663 41.648C225.076 41.3493 224.623 40.9333 224.303 40.4C223.994 39.856 223.839 39.2267 223.839 38.512C223.839 37.5627 224.047 36.7093 224.463 35.952C224.879 35.1947 225.46 34.6027 226.207 34.176C226.954 33.7387 227.796 33.52 228.735 33.52C229.514 33.52 230.18 33.664 230.735 33.952C231.3 34.2293 231.738 34.6453 232.047 35.2L231.087 35.76C230.607 34.928 229.791 34.512 228.639 34.512C227.946 34.512 227.316 34.6827 226.751 35.024C226.196 35.3653 225.759 35.8347 225.439 36.432C225.13 37.0293 224.975 37.7067 224.975 38.464C224.975 39.2853 225.215 39.9253 225.695 40.384C226.186 40.8427 226.879 41.072 227.775 41.072C228.319 41.072 228.82 40.9707 229.279 40.768C229.748 40.5547 230.132 40.2507 230.431 39.856L231.247 40.48C230.874 40.9813 230.372 41.376 229.743 41.664C229.124 41.9413 228.452 42.08 227.727 42.08ZM240.905 33.584L239.241 42H238.201L238.761 39.168H236.169H235.865L233.353 42H232.057L234.809 38.992C233.71 38.6613 233.161 37.9307 233.161 36.8C233.161 35.7973 233.534 35.0133 234.281 34.448C235.027 33.872 236.046 33.584 237.337 33.584H240.905ZM239.673 34.576H237.257C236.329 34.576 235.609 34.768 235.097 35.152C234.585 35.536 234.329 36.08 234.329 36.784C234.329 37.8187 235.001 38.336 236.345 38.336H238.937L239.673 34.576ZM252.843 37.664C253.771 37.888 254.235 38.4587 254.235 39.376C254.235 40.1973 253.904 40.8427 253.243 41.312C252.592 41.7707 251.691 42 250.539 42H246.651L248.347 33.584H252.011C252.896 33.584 253.568 33.744 254.027 34.064C254.485 34.384 254.715 34.848 254.715 35.456C254.715 35.9893 254.549 36.448 254.219 36.832C253.888 37.216 253.429 37.4933 252.843 37.664ZM248.699 37.328H251.211C251.915 37.328 252.48 37.1733 252.907 36.864C253.344 36.5547 253.563 36.1493 253.563 35.648C253.563 34.8693 252.976 34.48 251.803 34.48H249.275L248.699 37.328ZM250.603 41.104C251.392 41.104 252.005 40.9493 252.443 40.64C252.891 40.3307 253.115 39.8987 253.115 39.344C253.115 38.928 252.976 38.6293 252.699 38.448C252.432 38.2667 251.984 38.176 251.355 38.176H248.539L247.947 41.104H250.603ZM269.805 33.584L268.125 42H266.989L268.445 34.592H263.165L261.709 42H260.573L262.253 33.584H269.805ZM275.194 42.08C274.426 42.08 273.754 41.936 273.178 41.648C272.602 41.3493 272.154 40.9333 271.834 40.4C271.525 39.856 271.37 39.2267 271.37 38.512C271.37 37.5627 271.578 36.7093 271.994 35.952C272.41 35.1947 272.986 34.6027 273.722 34.176C274.469 33.7387 275.306 33.52 276.234 33.52C277.408 33.52 278.336 33.84 279.018 34.48C279.712 35.12 280.058 35.984 280.058 37.072C280.058 38.0213 279.85 38.88 279.434 39.648C279.018 40.4053 278.437 41.0027 277.69 41.44C276.954 41.8667 276.122 42.08 275.194 42.08ZM275.274 41.072C275.968 41.072 276.592 40.9067 277.146 40.576C277.701 40.2347 278.133 39.7653 278.442 39.168C278.762 38.56 278.922 37.8827 278.922 37.136C278.922 36.3147 278.677 35.6747 278.186 35.216C277.706 34.7467 277.029 34.512 276.154 34.512C275.461 34.512 274.837 34.6827 274.282 35.024C273.728 35.3653 273.29 35.84 272.97 36.448C272.661 37.0453 272.506 37.7173 272.506 38.464C272.506 39.2853 272.746 39.9253 273.226 40.384C273.717 40.8427 274.4 41.072 275.274 41.072ZM292.723 33.584L291.043 42H290.003L291.331 35.344L286.803 40.976H286.291L284.019 35.28L282.675 42H281.635L283.315 33.584H284.451L286.803 39.648L291.651 33.584H292.723ZM298.116 42.08C297.348 42.08 296.676 41.936 296.1 41.648C295.524 41.3493 295.076 40.9333 294.756 40.4C294.447 39.856 294.292 39.2267 294.292 38.512C294.292 37.5627 294.5 36.7093 294.916 35.952C295.332 35.1947 295.908 34.6027 296.644 34.176C297.391 33.7387 298.228 33.52 299.156 33.52C300.33 33.52 301.258 33.84 301.94 34.48C302.634 35.12 302.98 35.984 302.98 37.072C302.98 38.0213 302.772 38.88 302.356 39.648C301.94 40.4053 301.359 41.0027 300.612 41.44C299.876 41.8667 299.044 42.08 298.116 42.08ZM298.196 41.072C298.89 41.072 299.514 40.9067 300.068 40.576C300.623 40.2347 301.055 39.7653 301.364 39.168C301.684 38.56 301.844 37.8827 301.844 37.136C301.844 36.3147 301.599 35.6747 301.108 35.216C300.628 34.7467 299.951 34.512 299.076 34.512C298.383 34.512 297.759 34.6827 297.204 35.024C296.65 35.3653 296.212 35.84 295.892 36.448C295.583 37.0453 295.428 37.7173 295.428 38.464C295.428 39.2853 295.668 39.9253 296.148 40.384C296.639 40.8427 297.322 41.072 298.196 41.072ZM317.869 33.584L316.173 42H304.557L306.237 33.584H307.373L305.917 41.008H310.029L311.501 33.584H312.637L311.165 41.008H315.261L316.733 33.584H317.869ZM317.661 41.008L317.085 43.84H316.013L316.381 42H314.973L315.181 41.008H317.661ZM321.394 33.584H322.53L321.17 40.384L328.082 33.584H329.17L327.49 42H326.322L327.714 35.2L320.802 42H319.698L321.394 33.584ZM336.597 33.584H337.733L336.373 40.384L343.285 33.584H344.373L342.693 42H341.525L342.917 35.2L336.005 42H334.901L336.597 33.584ZM35.9453 57.584L34.2653 66H33.1293L34.5853 58.592H29.3053L27.8493 66H26.7133L28.3933 57.584H35.9453ZM41.3349 66.08C40.5669 66.08 39.8949 65.936 39.3189 65.648C38.7429 65.3493 38.2949 64.9333 37.9749 64.4C37.6656 63.856 37.5109 63.2267 37.5109 62.512C37.5109 61.5627 37.7189 60.7093 38.1349 59.952C38.5509 59.1947 39.1269 58.6027 39.8629 58.176C40.6096 57.7387 41.4469 57.52 42.3749 57.52C43.5483 57.52 44.4763 57.84 45.1589 58.48C45.8523 59.12 46.1989 59.984 46.1989 61.072C46.1989 62.0213 45.9909 62.88 45.5749 63.648C45.1589 64.4053 44.5776 65.0027 43.8309 65.44C43.0949 65.8667 42.2629 66.08 41.3349 66.08ZM41.4149 65.072C42.1083 65.072 42.7323 64.9067 43.2869 64.576C43.8416 64.2347 44.2736 63.7653 44.5829 63.168C44.9029 62.56 45.0629 61.8827 45.0629 61.136C45.0629 60.3147 44.8176 59.6747 44.3269 59.216C43.8469 58.7467 43.1696 58.512 42.2949 58.512C41.6016 58.512 40.9776 58.6827 40.4229 59.024C39.8683 59.3653 39.4309 59.84 39.1109 60.448C38.8016 61.0453 38.6469 61.7173 38.6469 62.464C38.6469 63.2853 38.8869 63.9253 39.3669 64.384C39.8576 64.8427 40.5403 65.072 41.4149 65.072ZM54.8329 65.008H56.1449L55.5529 68.032H54.4809L54.8809 66H47.3449L46.9449 68.032H45.8729L46.4649 65.008H46.8969C47.4623 64.976 47.9369 64.5493 48.3209 63.728C48.7049 62.9067 49.0783 61.7813 49.4409 60.352L50.1129 57.584H56.3049L54.8329 65.008ZM50.4649 60.512C50.1556 61.7387 49.8569 62.72 49.5689 63.456C49.2809 64.192 48.9236 64.7093 48.4969 65.008H53.6969L54.9769 58.592H50.9289L50.4649 60.512ZM65.2392 65.008H66.5512L65.9592 68.032H64.8872L65.2872 66H57.7512L57.3512 68.032H56.2792L56.8712 65.008H57.3032C57.8685 64.976 58.3432 64.5493 58.7272 63.728C59.1112 62.9067 59.4845 61.7813 59.8472 60.352L60.5192 57.584H66.7112L65.2392 65.008ZM60.8712 60.512C60.5619 61.7387 60.2632 62.72 59.9752 63.456C59.6872 64.192 59.3299 64.7093 58.9032 65.008H64.1032L65.3832 58.592H61.3352L60.8712 60.512ZM69.7254 62.112C69.7148 62.1867 69.7094 62.2987 69.7094 62.448C69.7094 63.3013 69.9494 63.952 70.4294 64.4C70.9201 64.848 71.6454 65.072 72.6054 65.072C73.1601 65.072 73.6774 64.9813 74.1574 64.8C74.6481 64.608 75.0481 64.3467 75.3574 64.016L75.8694 64.832C75.4748 65.2267 74.9788 65.536 74.3814 65.76C73.7948 65.9733 73.1708 66.08 72.5094 66.08C71.2934 66.08 70.3334 65.76 69.6294 65.12C68.9361 64.48 68.5894 63.6053 68.5894 62.496C68.5894 61.5573 68.7868 60.7093 69.1814 59.952C69.5868 59.1947 70.1414 58.6027 70.8454 58.176C71.5601 57.7387 72.3601 57.52 73.2454 57.52C74.3654 57.52 75.2561 57.84 75.9174 58.48C76.5788 59.1093 76.9094 59.9787 76.9094 61.088C76.9094 61.3973 76.8721 61.7387 76.7974 62.112H69.7254ZM73.2134 58.48C72.3708 58.48 71.6508 58.7307 71.0534 59.232C70.4561 59.7333 70.0508 60.4107 69.8374 61.264H75.8374C75.8481 61.1893 75.8534 61.088 75.8534 60.96C75.8534 60.1707 75.6134 59.5627 75.1334 59.136C74.6534 58.6987 74.0134 58.48 73.2134 58.48ZM84.3022 57.52C85.0169 57.52 85.6515 57.664 86.2062 57.952C86.7715 58.24 87.2089 58.6507 87.5182 59.184C87.8275 59.7173 87.9822 60.3467 87.9822 61.072C87.9822 62.0213 87.7742 62.88 87.3582 63.648C86.9529 64.4053 86.3875 65.0027 85.6622 65.44C84.9369 65.8667 84.1209 66.08 83.2142 66.08C82.4142 66.08 81.7422 65.9253 81.1982 65.616C80.6542 65.296 80.2595 64.8373 80.0142 64.24L79.0542 69.104H77.9182L80.2062 57.584H81.2942L81.0222 58.928C81.4275 58.4693 81.9075 58.1227 82.4622 57.888C83.0169 57.6427 83.6302 57.52 84.3022 57.52ZM83.1982 65.072C83.8915 65.072 84.5102 64.9067 85.0542 64.576C85.6089 64.2347 86.0409 63.7653 86.3502 63.168C86.6702 62.5707 86.8302 61.8933 86.8302 61.136C86.8302 60.3147 86.5849 59.6747 86.0942 59.216C85.6142 58.7467 84.9369 58.512 84.0622 58.512C83.3689 58.512 82.7449 58.6827 82.1902 59.024C81.6462 59.3547 81.2142 59.824 80.8942 60.432C80.5849 61.0293 80.4302 61.7067 80.4302 62.464C80.4302 63.2853 80.6702 63.9253 81.1502 64.384C81.6409 64.8427 82.3235 65.072 83.1982 65.072ZM98.3962 61.76L100.588 66H99.2602L97.4042 62.224H95.5962L94.8282 66H93.6922L94.4442 62.224H92.6682L89.3402 66H87.9162L91.8362 61.632L89.8682 57.584H91.0682L92.8122 61.296H94.6362L95.3722 57.584H96.5242L95.7722 61.296H97.5642L100.796 57.584H102.076L98.3962 61.76ZM107.263 61.728L109.967 66H108.671L106.367 62.256H104.383L103.631 66H102.495L104.191 57.584H105.327L104.575 61.28H106.447L110.175 57.584H111.455L107.263 61.728ZM112.647 62.112C112.637 62.1867 112.631 62.2987 112.631 62.448C112.631 63.3013 112.871 63.952 113.351 64.4C113.842 64.848 114.567 65.072 115.527 65.072C116.082 65.072 116.599 64.9813 117.079 64.8C117.57 64.608 117.97 64.3467 118.279 64.016L118.791 64.832C118.397 65.2267 117.901 65.536 117.303 65.76C116.717 65.9733 116.093 66.08 115.431 66.08C114.215 66.08 113.255 65.76 112.551 65.12C111.858 64.48 111.511 63.6053 111.511 62.496C111.511 61.5573 111.709 60.7093 112.103 59.952C112.509 59.1947 113.063 58.6027 113.767 58.176C114.482 57.7387 115.282 57.52 116.167 57.52C117.287 57.52 118.178 57.84 118.839 58.48C119.501 59.1093 119.831 59.9787 119.831 61.088C119.831 61.3973 119.794 61.7387 119.719 62.112H112.647ZM116.135 58.48C115.293 58.48 114.573 58.7307 113.975 59.232C113.378 59.7333 112.973 60.4107 112.759 61.264H118.759C118.77 61.1893 118.775 61.088 118.775 60.96C118.775 60.1707 118.535 59.5627 118.055 59.136C117.575 58.6987 116.935 58.48 116.135 58.48ZM131.812 61.664C132.74 61.888 133.204 62.4587 133.204 63.376C133.204 64.1973 132.873 64.8427 132.212 65.312C131.561 65.7707 130.66 66 129.508 66H125.62L127.316 57.584H130.98C131.865 57.584 132.537 57.744 132.996 58.064C133.454 58.384 133.684 58.848 133.684 59.456C133.684 59.9893 133.518 60.448 133.188 60.832C132.857 61.216 132.398 61.4933 131.812 61.664ZM127.668 61.328H130.18C130.884 61.328 131.449 61.1733 131.876 60.864C132.313 60.5547 132.532 60.1493 132.532 59.648C132.532 58.8693 131.945 58.48 130.772 58.48H128.244L127.668 61.328ZM129.572 65.104C130.361 65.104 130.974 64.9493 131.412 64.64C131.86 64.3307 132.084 63.8987 132.084 63.344C132.084 62.928 131.945 62.6293 131.668 62.448C131.401 62.2667 130.953 62.176 130.324 62.176H127.508L126.916 65.104H129.572ZM146.949 58.592H143.749L142.277 66H141.141L142.613 58.592H139.445L139.637 57.584H147.157L146.949 58.592ZM152.896 57.52C153.611 57.52 154.245 57.664 154.8 57.952C155.365 58.24 155.803 58.6507 156.112 59.184C156.421 59.7173 156.576 60.3467 156.576 61.072C156.576 62.0213 156.368 62.88 155.952 63.648C155.547 64.4053 154.981 65.0027 154.256 65.44C153.531 65.8667 152.715 66.08 151.808 66.08C151.008 66.08 150.336 65.9253 149.792 65.616C149.248 65.296 148.853 64.8373 148.608 64.24L147.648 69.104H146.512L148.8 57.584H149.888L149.616 58.928C150.021 58.4693 150.501 58.1227 151.056 57.888C151.611 57.6427 152.224 57.52 152.896 57.52ZM151.792 65.072C152.485 65.072 153.104 64.9067 153.648 64.576C154.203 64.2347 154.635 63.7653 154.944 63.168C155.264 62.5707 155.424 61.8933 155.424 61.136C155.424 60.3147 155.179 59.6747 154.688 59.216C154.208 58.7467 153.531 58.512 152.656 58.512C151.963 58.512 151.339 58.6827 150.784 59.024C150.24 59.3547 149.808 59.824 149.488 60.432C149.179 61.0293 149.024 61.7067 149.024 62.464C149.024 63.2853 149.264 63.9253 149.744 64.384C150.235 64.8427 150.917 65.072 151.792 65.072ZM166.7 57.584L160.556 67.088C160.044 67.8773 159.564 68.4213 159.116 68.72C158.668 69.0293 158.135 69.184 157.516 69.184C157.111 69.184 156.727 69.1147 156.364 68.976C156.002 68.848 155.719 68.6667 155.516 68.432L156.124 67.6C156.508 68.0053 157.004 68.208 157.612 68.208C157.986 68.208 158.322 68.1067 158.62 67.904C158.919 67.7013 159.228 67.3493 159.548 66.848L160.14 65.952L158.044 57.584H159.196L160.94 64.752L165.532 57.584H166.7ZM173.567 65.008H174.879L174.287 68.032H173.215L173.615 66H166.079L165.679 68.032H164.607L165.199 65.008H165.631C166.197 64.976 166.671 64.5493 167.055 63.728C167.439 62.9067 167.813 61.7813 168.175 60.352L168.847 57.584H175.039L173.567 65.008ZM169.199 60.512C168.89 61.7387 168.591 62.72 168.303 63.456C168.015 64.192 167.658 64.7093 167.231 65.008H172.431L173.711 58.592H169.663L169.199 60.512ZM178.55 57.584H179.686L178.95 61.312H184.23L184.982 57.584H186.118L184.438 66H183.302L184.038 62.288H178.758L178.006 66H176.87L178.55 57.584ZM197.523 57.584H198.659L196.979 66H195.843L197.523 57.584ZM192.195 60.544C194.083 60.544 195.027 61.296 195.027 62.8C195.027 63.44 194.861 64.0053 194.531 64.496C194.211 64.976 193.752 65.3493 193.155 65.616C192.568 65.872 191.885 66 191.107 66H187.651L189.331 57.616H190.467L189.891 60.544H192.195ZM191.107 65.136C191.939 65.136 192.611 64.9333 193.123 64.528C193.635 64.112 193.891 63.568 193.891 62.896C193.891 62.3947 193.72 62.0213 193.379 61.776C193.048 61.52 192.541 61.392 191.859 61.392H189.715L188.979 65.136H191.107ZM201.382 62.112C201.371 62.1867 201.366 62.2987 201.366 62.448C201.366 63.3013 201.606 63.952 202.086 64.4C202.576 64.848 203.302 65.072 204.262 65.072C204.816 65.072 205.334 64.9813 205.814 64.8C206.304 64.608 206.704 64.3467 207.014 64.016L207.526 64.832C207.131 65.2267 206.635 65.536 206.038 65.76C205.451 65.9733 204.827 66.08 204.166 66.08C202.95 66.08 201.99 65.76 201.286 65.12C200.592 64.48 200.246 63.6053 200.246 62.496C200.246 61.5573 200.443 60.7093 200.838 59.952C201.243 59.1947 201.798 58.6027 202.502 58.176C203.216 57.7387 204.016 57.52 204.902 57.52C206.022 57.52 206.912 57.84 207.574 58.48C208.235 59.1093 208.566 59.9787 208.566 61.088C208.566 61.3973 208.528 61.7387 208.454 62.112H201.382ZM204.87 58.48C204.027 58.48 203.307 58.7307 202.71 59.232C202.112 59.7333 201.707 60.4107 201.494 61.264H207.494C207.504 61.1893 207.51 61.088 207.51 60.96C207.51 60.1707 207.27 59.5627 206.79 59.136C206.31 58.6987 205.67 58.48 204.87 58.48ZM223.586 57.584L221.906 66H220.77L222.226 58.592H216.946L215.49 66H214.354L216.034 57.584H223.586ZM226.304 62.112C226.293 62.1867 226.288 62.2987 226.288 62.448C226.288 63.3013 226.528 63.952 227.008 64.4C227.498 64.848 228.224 65.072 229.184 65.072C229.738 65.072 230.256 64.9813 230.736 64.8C231.226 64.608 231.626 64.3467 231.936 64.016L232.448 64.832C232.053 65.2267 231.557 65.536 230.96 65.76C230.373 65.9733 229.749 66.08 229.088 66.08C227.872 66.08 226.912 65.76 226.208 65.12C225.514 64.48 225.168 63.6053 225.168 62.496C225.168 61.5573 225.365 60.7093 225.76 59.952C226.165 59.1947 226.72 58.6027 227.424 58.176C228.138 57.7387 228.938 57.52 229.824 57.52C230.944 57.52 231.834 57.84 232.496 58.48C233.157 59.1093 233.488 59.9787 233.488 61.088C233.488 61.3973 233.45 61.7387 233.376 62.112H226.304ZM229.792 58.48C228.949 58.48 228.229 58.7307 227.632 59.232C227.034 59.7333 226.629 60.4107 226.416 61.264H232.416C232.426 61.1893 232.432 61.088 232.432 60.96C232.432 60.1707 232.192 59.5627 231.712 59.136C231.232 58.6987 230.592 58.48 229.792 58.48ZM240.88 57.52C241.595 57.52 242.23 57.664 242.784 57.952C243.35 58.24 243.787 58.6507 244.096 59.184C244.406 59.7173 244.56 60.3467 244.56 61.072C244.56 62.0213 244.352 62.88 243.936 63.648C243.531 64.4053 242.966 65.0027 242.24 65.44C241.515 65.8667 240.699 66.08 239.792 66.08C238.992 66.08 238.32 65.9253 237.776 65.616C237.232 65.296 236.838 64.8373 236.592 64.24L235.632 69.104H234.496L236.784 57.584H237.872L237.6 58.928C238.006 58.4693 238.486 58.1227 239.04 57.888C239.595 57.6427 240.208 57.52 240.88 57.52ZM239.776 65.072C240.47 65.072 241.088 64.9067 241.632 64.576C242.187 64.2347 242.619 63.7653 242.928 63.168C243.248 62.5707 243.408 61.8933 243.408 61.136C243.408 60.3147 243.163 59.6747 242.672 59.216C242.192 58.7467 241.515 58.512 240.64 58.512C239.947 58.512 239.323 58.6827 238.768 59.024C238.224 59.3547 237.792 59.824 237.472 60.432C237.163 61.0293 237.008 61.7067 237.008 62.464C237.008 63.2853 237.248 63.9253 237.728 64.384C238.219 64.8427 238.902 65.072 239.776 65.072ZM247.831 57.584H248.967L247.607 64.384L254.519 57.584H255.607L253.927 66H252.759L254.151 59.2L247.239 66H246.135L247.831 57.584ZM261.007 66.08C260.239 66.08 259.567 65.936 258.991 65.648C258.415 65.3493 257.967 64.9333 257.647 64.4C257.337 63.856 257.183 63.2267 257.183 62.512C257.183 61.5627 257.391 60.7093 257.807 59.952C258.223 59.1947 258.799 58.6027 259.535 58.176C260.281 57.7387 261.119 57.52 262.047 57.52C263.22 57.52 264.148 57.84 264.831 58.48C265.524 59.12 265.871 59.984 265.871 61.072C265.871 62.0213 265.663 62.88 265.247 63.648C264.831 64.4053 264.249 65.0027 263.503 65.44C262.767 65.8667 261.935 66.08 261.007 66.08ZM261.087 65.072C261.78 65.072 262.404 64.9067 262.959 64.576C263.513 64.2347 263.945 63.7653 264.255 63.168C264.575 62.56 264.735 61.8827 264.735 61.136C264.735 60.3147 264.489 59.6747 263.999 59.216C263.519 58.7467 262.841 58.512 261.967 58.512C261.273 58.512 260.649 58.6827 260.095 59.024C259.54 59.3653 259.103 59.84 258.783 60.448C258.473 61.0453 258.319 61.7173 258.319 62.464C258.319 63.2853 258.559 63.9253 259.039 64.384C259.529 64.8427 260.212 65.072 261.087 65.072ZM274.505 65.008H275.817L275.225 68.032H274.153L274.553 66H267.017L266.617 68.032H265.545L266.137 65.008H266.569C267.134 64.976 267.609 64.5493 267.993 63.728C268.377 62.9067 268.75 61.7813 269.113 60.352L269.785 57.584H275.977L274.505 65.008ZM270.137 60.512C269.827 61.7387 269.529 62.72 269.241 63.456C268.953 64.192 268.595 64.7093 268.169 65.008H273.369L274.649 58.592H270.601L270.137 60.512ZM287.679 57.584H288.815L287.135 66H285.999L287.679 57.584ZM282.351 60.544C284.239 60.544 285.183 61.296 285.183 62.8C285.183 63.44 285.018 64.0053 284.687 64.496C284.367 64.976 283.908 65.3493 283.311 65.616C282.724 65.872 282.042 66 281.263 66H277.807L279.487 57.616H280.623L280.047 60.544H282.351ZM281.263 65.136C282.095 65.136 282.767 64.9333 283.279 64.528C283.791 64.112 284.047 63.568 284.047 62.896C284.047 62.3947 283.876 62.0213 283.535 61.776C283.204 61.52 282.698 61.392 282.015 61.392H279.871L279.135 65.136H281.263ZM303.677 61.76L305.869 66H304.541L302.685 62.224H300.877L300.109 66H298.973L299.725 62.224H297.949L294.621 66H293.197L297.117 61.632L295.149 57.584H296.349L298.093 61.296H299.917L300.653 57.584H301.805L301.053 61.296H302.845L306.077 57.584H307.357L303.677 61.76ZM309.472 57.584H310.608L309.248 64.384L316.16 57.584H317.248L315.568 66H314.4L315.792 59.2L308.88 66H307.776L309.472 57.584ZM323.356 61.648C323.889 61.7867 324.294 62.0107 324.572 62.32C324.849 62.6187 324.988 62.992 324.988 63.44C324.988 63.9413 324.812 64.3947 324.46 64.8C324.118 65.2053 323.638 65.5253 323.02 65.76C322.412 65.984 321.729 66.096 320.972 66.096C319.66 66.096 318.588 65.7387 317.756 65.024L318.236 64.224C318.545 64.512 318.94 64.7307 319.42 64.88C319.9 65.0293 320.422 65.104 320.988 65.104C321.532 65.104 322.022 65.0293 322.46 64.88C322.897 64.7307 323.238 64.5227 323.484 64.256C323.729 63.9893 323.852 63.6907 323.852 63.36C323.852 62.9547 323.67 62.64 323.308 62.416C322.956 62.192 322.465 62.08 321.836 62.08H320.444L320.572 61.216H321.772C322.497 61.216 323.078 61.0827 323.516 60.816C323.964 60.5493 324.188 60.1973 324.188 59.76C324.188 59.3547 324.012 59.04 323.66 58.816C323.308 58.592 322.822 58.48 322.204 58.48C321.404 58.48 320.513 58.7093 319.532 59.168L319.212 58.224C320.236 57.7333 321.265 57.488 322.3 57.488C323.217 57.488 323.953 57.68 324.508 58.064C325.073 58.4373 325.356 58.944 325.356 59.584C325.356 60.0747 325.18 60.5013 324.828 60.864C324.476 61.2267 323.985 61.488 323.356 61.648ZM328.706 57.584H329.842L329.106 61.312H334.386L335.138 57.584H336.274L334.594 66H333.458L334.194 62.288H328.914L328.162 66H327.026L328.706 57.584ZM339.503 57.584H340.639L339.279 64.384L346.191 57.584H347.279L345.599 66H344.431L345.823 59.2L338.911 66H337.807L339.503 57.584ZM49.9044 81.584L48.2244 90H47.1364L47.4084 88.672C47.0031 89.12 46.5231 89.4667 45.9684 89.712C45.4138 89.9573 44.8004 90.08 44.1284 90.08C43.4138 90.08 42.7791 89.936 42.2244 89.648C41.6698 89.36 41.2378 88.9493 40.9284 88.416C40.6191 87.872 40.4644 87.2373 40.4644 86.512C40.4644 85.5627 40.6671 84.7093 41.0724 83.952C41.4884 83.1947 42.0591 82.6027 42.7844 82.176C43.5098 81.7387 44.3204 81.52 45.2164 81.52C46.0164 81.52 46.6884 81.68 47.2324 82C47.7764 82.3093 48.1711 82.7573 48.4164 83.344L48.7684 81.584H49.9044ZM44.3684 89.072C45.0618 89.072 45.6858 88.9067 46.2404 88.576C46.7951 88.2347 47.2271 87.7653 47.5364 87.168C47.8564 86.56 48.0164 85.8827 48.0164 85.136C48.0164 84.3147 47.7711 83.6747 47.2804 83.216C46.8004 82.7467 46.1231 82.512 45.2484 82.512C44.5551 82.512 43.9311 82.6827 43.3764 83.024C42.8218 83.3653 42.3844 83.84 42.0644 84.448C41.7551 85.0453 41.6004 85.7173 41.6004 86.464C41.6004 87.2853 41.8404 87.9253 42.3204 88.384C42.8111 88.8427 43.4938 89.072 44.3684 89.072ZM57.1117 82.032C58.1784 82.032 59.0104 82.3307 59.6077 82.928C60.2157 83.5147 60.5197 84.3253 60.5197 85.36C60.5197 86.256 60.3064 87.0667 59.8797 87.792C59.453 88.5173 58.8664 89.088 58.1197 89.504C57.373 89.92 56.5357 90.128 55.6077 90.128C54.4024 90.128 53.4637 89.7707 52.7917 89.056C52.1304 88.3413 51.7997 87.3173 51.7997 85.984C51.7997 84.8213 52.0344 83.7333 52.5037 82.72C52.973 81.7067 53.6237 80.8533 54.4557 80.16C55.2984 79.4667 56.2637 79.0027 57.3517 78.768L61.2557 77.952L61.2877 78.944L57.6077 79.712C56.4877 79.9467 55.5437 80.4373 54.7757 81.184C54.0184 81.92 53.4797 82.8587 53.1597 84C53.661 83.36 54.2424 82.8747 54.9037 82.544C55.5757 82.2027 56.3117 82.032 57.1117 82.032ZM55.6717 89.232C56.3437 89.232 56.957 89.072 57.5117 88.752C58.0664 88.4213 58.5037 87.9787 58.8237 87.424C59.1437 86.8587 59.3037 86.2347 59.3037 85.552C59.3037 84.752 59.0797 84.1387 58.6317 83.712C58.1944 83.2747 57.565 83.056 56.7437 83.056C56.093 83.056 55.469 83.2107 54.8717 83.52C54.285 83.8293 53.8104 84.24 53.4477 84.752C53.0957 85.2533 52.9197 85.7813 52.9197 86.336C52.9197 87.232 53.165 87.9413 53.6557 88.464C54.1464 88.976 54.8184 89.232 55.6717 89.232ZM66.0083 90.08C65.219 90.08 64.531 89.936 63.9443 89.648C63.3576 89.3493 62.9043 88.9333 62.5843 88.4C62.275 87.856 62.1203 87.2267 62.1203 86.512C62.1203 85.5627 62.3283 84.7093 62.7443 83.952C63.1603 83.1947 63.7416 82.6027 64.4883 82.176C65.235 81.7387 66.0776 81.52 67.0163 81.52C67.795 81.52 68.4616 81.664 69.0163 81.952C69.5816 82.2293 70.019 82.6453 70.3283 83.2L69.3683 83.76C68.8883 82.928 68.0723 82.512 66.9203 82.512C66.227 82.512 65.5976 82.6827 65.0323 83.024C64.4776 83.3653 64.0403 83.8347 63.7203 84.432C63.411 85.0293 63.2563 85.7067 63.2563 86.464C63.2563 87.2853 63.4963 87.9253 63.9763 88.384C64.467 88.8427 65.1603 89.072 66.0563 89.072C66.6003 89.072 67.1016 88.9707 67.5603 88.768C68.0296 88.5547 68.4136 88.2507 68.7123 87.856L69.5283 88.48C69.155 88.9813 68.6536 89.376 68.0243 89.664C67.4056 89.9413 66.7336 90.08 66.0083 90.08ZM75.0224 90.08C74.2544 90.08 73.5824 89.936 73.0064 89.648C72.4304 89.3493 71.9824 88.9333 71.6624 88.4C71.3531 87.856 71.1984 87.2267 71.1984 86.512C71.1984 85.5627 71.4064 84.7093 71.8224 83.952C72.2384 83.1947 72.8144 82.6027 73.5504 82.176C74.2971 81.7387 75.1344 81.52 76.0624 81.52C77.2358 81.52 78.1638 81.84 78.8464 82.48C79.5398 83.12 79.8864 83.984 79.8864 85.072C79.8864 86.0213 79.6784 86.88 79.2624 87.648C78.8464 88.4053 78.2651 89.0027 77.5184 89.44C76.7824 89.8667 75.9504 90.08 75.0224 90.08ZM75.1024 89.072C75.7958 89.072 76.4198 88.9067 76.9744 88.576C77.5291 88.2347 77.9611 87.7653 78.2704 87.168C78.5904 86.56 78.7504 85.8827 78.7504 85.136C78.7504 84.3147 78.5051 83.6747 78.0144 83.216C77.5344 82.7467 76.8571 82.512 75.9824 82.512C75.2891 82.512 74.6651 82.6827 74.1104 83.024C73.5558 83.3653 73.1184 83.84 72.7984 84.448C72.4891 85.0453 72.3344 85.7173 72.3344 86.464C72.3344 87.2853 72.5744 87.9253 73.0544 88.384C73.5451 88.8427 74.2278 89.072 75.1024 89.072ZM89.9924 81.584L88.2964 90H87.1604L88.6324 82.592H84.6164L84.1044 84.672C83.7738 85.952 83.4538 86.9867 83.1444 87.776C82.8351 88.5547 82.4831 89.1413 82.0884 89.536C81.7044 89.92 81.2511 90.112 80.7284 90.112C80.5151 90.112 80.2378 90.0693 79.8964 89.984L80.1684 89.008C80.3604 89.0507 80.4884 89.072 80.5524 89.072C81.0964 89.072 81.5551 88.7147 81.9284 88C82.3124 87.2747 82.7018 86.128 83.0964 84.56L83.8324 81.584H89.9924ZM100.166 81.52C101.307 81.52 102.219 81.84 102.902 82.48C103.584 83.12 103.926 83.9787 103.926 85.056C103.926 86.0053 103.718 86.864 103.302 87.632C102.896 88.3893 102.326 88.9867 101.59 89.424C100.854 89.8613 100.027 90.08 99.1098 90.08C98.3525 90.08 97.6911 89.936 97.1258 89.648C96.5605 89.3493 96.1231 88.9333 95.8138 88.4C95.5045 87.856 95.3498 87.232 95.3498 86.528V86.256H93.4298L92.6778 90H91.5418L93.2218 81.584H94.3578L93.6378 85.216H95.4938C95.6645 84.4907 95.9685 83.8507 96.4058 83.296C96.8538 82.7307 97.3978 82.2933 98.0378 81.984C98.6885 81.6747 99.3978 81.52 100.166 81.52ZM99.2058 89.072C99.8885 89.072 100.496 88.9067 101.03 88.576C101.574 88.2347 102 87.7653 102.31 87.168C102.619 86.56 102.774 85.8773 102.774 85.12C102.774 84.2987 102.539 83.6587 102.07 83.2C101.6 82.7413 100.939 82.512 100.086 82.512C99.4031 82.512 98.7898 82.6827 98.2458 83.024C97.7018 83.3653 97.2751 83.84 96.9658 84.448C96.6565 85.0453 96.5018 85.7227 96.5018 86.48C96.5018 87.3013 96.7365 87.9413 97.2058 88.4C97.6751 88.848 98.3418 89.072 99.2058 89.072ZM112.606 82.592H109.406L107.934 90H106.798L108.27 82.592H105.102L105.294 81.584H112.814L112.606 82.592ZM114.44 81.584H115.576L114.84 85.312H120.12L120.872 81.584H122.008L120.328 90H119.192L119.928 86.288H114.648L113.896 90H112.76L114.44 81.584ZM127.397 90.08C126.629 90.08 125.957 89.936 125.381 89.648C124.805 89.3493 124.357 88.9333 124.037 88.4C123.728 87.856 123.573 87.2267 123.573 86.512C123.573 85.5627 123.781 84.7093 124.197 83.952C124.613 83.1947 125.189 82.6027 125.925 82.176C126.672 81.7387 127.509 81.52 128.437 81.52C129.611 81.52 130.539 81.84 131.221 82.48C131.915 83.12 132.261 83.984 132.261 85.072C132.261 86.0213 132.053 86.88 131.637 87.648C131.221 88.4053 130.64 89.0027 129.893 89.44C129.157 89.8667 128.325 90.08 127.397 90.08ZM127.477 89.072C128.171 89.072 128.795 88.9067 129.349 88.576C129.904 88.2347 130.336 87.7653 130.645 87.168C130.965 86.56 131.125 85.8827 131.125 85.136C131.125 84.3147 130.88 83.6747 130.389 83.216C129.909 82.7467 129.232 82.512 128.357 82.512C127.664 82.512 127.04 82.6827 126.485 83.024C125.931 83.3653 125.493 83.84 125.173 84.448C124.864 85.0453 124.709 85.7173 124.709 86.464C124.709 87.2853 124.949 87.9253 125.429 88.384C125.92 88.8427 126.603 89.072 127.477 89.072ZM139.706 81.584H140.842L140.106 85.312H145.386L146.138 81.584H147.274L145.594 90H144.458L145.194 86.288H139.914L139.162 90H138.026L139.706 81.584ZM152.663 90.08C151.895 90.08 151.223 89.936 150.647 89.648C150.071 89.3493 149.623 88.9333 149.303 88.4C148.994 87.856 148.839 87.2267 148.839 86.512C148.839 85.5627 149.047 84.7093 149.463 83.952C149.879 83.1947 150.455 82.6027 151.191 82.176C151.938 81.7387 152.775 81.52 153.703 81.52C154.876 81.52 155.804 81.84 156.487 82.48C157.18 83.12 157.527 83.984 157.527 85.072C157.527 86.0213 157.319 86.88 156.903 87.648C156.487 88.4053 155.906 89.0027 155.159 89.44C154.423 89.8667 153.591 90.08 152.663 90.08ZM152.743 89.072C153.436 89.072 154.06 88.9067 154.615 88.576C155.17 88.2347 155.602 87.7653 155.911 87.168C156.231 86.56 156.391 85.8827 156.391 85.136C156.391 84.3147 156.146 83.6747 155.655 83.216C155.175 82.7467 154.498 82.512 153.623 82.512C152.93 82.512 152.306 82.6827 151.751 83.024C151.196 83.3653 150.759 83.84 150.439 84.448C150.13 85.0453 149.975 85.7173 149.975 86.464C149.975 87.2853 150.215 87.9253 150.695 88.384C151.186 88.8427 151.868 89.072 152.743 89.072ZM164.896 81.52C165.611 81.52 166.245 81.664 166.8 81.952C167.365 82.24 167.803 82.6507 168.112 83.184C168.421 83.7173 168.576 84.3467 168.576 85.072C168.576 86.0213 168.368 86.88 167.952 87.648C167.547 88.4053 166.981 89.0027 166.256 89.44C165.531 89.8667 164.715 90.08 163.808 90.08C163.008 90.08 162.336 89.9253 161.792 89.616C161.248 89.296 160.853 88.8373 160.608 88.24L159.648 93.104H158.512L160.8 81.584H161.888L161.616 82.928C162.021 82.4693 162.501 82.1227 163.056 81.888C163.611 81.6427 164.224 81.52 164.896 81.52ZM163.792 89.072C164.485 89.072 165.104 88.9067 165.648 88.576C166.203 88.2347 166.635 87.7653 166.944 87.168C167.264 86.5707 167.424 85.8933 167.424 85.136C167.424 84.3147 167.179 83.6747 166.688 83.216C166.208 82.7467 165.531 82.512 164.656 82.512C163.963 82.512 163.339 82.6827 162.784 83.024C162.24 83.3547 161.808 83.824 161.488 84.432C161.179 85.0293 161.024 85.7067 161.024 86.464C161.024 87.2853 161.264 87.9253 161.744 88.384C162.235 88.8427 162.917 89.072 163.792 89.072ZM181.239 81.584L179.559 90H178.519L179.847 83.344L175.319 88.976H174.807L172.535 83.28L171.191 90H170.151L171.831 81.584H172.967L175.319 87.648L180.167 81.584H181.239ZM192.264 81.584L190.584 90H189.496L189.768 88.672C189.362 89.12 188.882 89.4667 188.328 89.712C187.773 89.9573 187.16 90.08 186.488 90.08C185.773 90.08 185.138 89.936 184.584 89.648C184.029 89.36 183.597 88.9493 183.288 88.416C182.978 87.872 182.824 87.2373 182.824 86.512C182.824 85.5627 183.026 84.7093 183.432 83.952C183.848 83.1947 184.418 82.6027 185.144 82.176C185.869 81.7387 186.68 81.52 187.576 81.52C188.376 81.52 189.048 81.68 189.592 82C190.136 82.3093 190.53 82.7573 190.776 83.344L191.128 81.584H192.264ZM186.728 89.072C187.421 89.072 188.045 88.9067 188.6 88.576C189.154 88.2347 189.586 87.7653 189.896 87.168C190.216 86.56 190.376 85.8827 190.376 85.136C190.376 84.3147 190.13 83.6747 189.64 83.216C189.16 82.7467 188.482 82.512 187.608 82.512C186.914 82.512 186.29 82.6827 185.736 83.024C185.181 83.3653 184.744 83.84 184.424 84.448C184.114 85.0453 183.96 85.7173 183.96 86.464C183.96 87.2853 184.2 87.9253 184.68 88.384C185.17 88.8427 185.853 89.072 186.728 89.072ZM202.383 81.584L200.687 90H199.551L201.023 82.592H197.007L196.495 84.672C196.164 85.952 195.844 86.9867 195.535 87.776C195.226 88.5547 194.874 89.1413 194.479 89.536C194.095 89.92 193.642 90.112 193.119 90.112C192.906 90.112 192.628 90.0693 192.287 89.984L192.559 89.008C192.751 89.0507 192.879 89.072 192.943 89.072C193.487 89.072 193.946 88.7147 194.319 88C194.703 87.2747 195.092 86.128 195.487 84.56L196.223 81.584H202.383ZM208.524 84.544C210.412 84.544 211.356 85.296 211.356 86.8C211.356 87.44 211.191 88.0053 210.86 88.496C210.54 88.976 210.082 89.3493 209.484 89.616C208.898 89.872 208.215 90 207.436 90H203.916L205.596 81.616H206.732L206.156 84.544H208.524ZM207.436 89.136C208.268 89.136 208.94 88.9333 209.452 88.528C209.964 88.112 210.22 87.568 210.22 86.896C210.22 86.3947 210.05 86.0213 209.708 85.776C209.378 85.52 208.871 85.392 208.188 85.392H205.98L205.244 89.136H207.436ZM214.581 81.584H215.717L214.981 85.312H220.261L221.013 81.584H222.149L220.469 90H219.333L220.069 86.288H214.789L214.037 90H212.901L214.581 81.584ZM227.538 90.08C226.77 90.08 226.098 89.936 225.522 89.648C224.946 89.3493 224.498 88.9333 224.178 88.4C223.869 87.856 223.714 87.2267 223.714 86.512C223.714 85.5627 223.922 84.7093 224.338 83.952C224.754 83.1947 225.33 82.6027 226.066 82.176C226.813 81.7387 227.65 81.52 228.578 81.52C229.751 81.52 230.679 81.84 231.362 82.48C232.055 83.12 232.402 83.984 232.402 85.072C232.402 86.0213 232.194 86.88 231.778 87.648C231.362 88.4053 230.781 89.0027 230.034 89.44C229.298 89.8667 228.466 90.08 227.538 90.08ZM227.618 89.072C228.311 89.072 228.935 88.9067 229.49 88.576C230.045 88.2347 230.477 87.7653 230.786 87.168C231.106 86.56 231.266 85.8827 231.266 85.136C231.266 84.3147 231.021 83.6747 230.53 83.216C230.05 82.7467 229.373 82.512 228.498 82.512C227.805 82.512 227.181 82.6827 226.626 83.024C226.071 83.3653 225.634 83.84 225.314 84.448C225.005 85.0453 224.85 85.7173 224.85 86.464C224.85 87.2853 225.09 87.9253 225.57 88.384C226.061 88.8427 226.743 89.072 227.618 89.072ZM245.27 89.008H246.582L245.99 92.032H244.918L245.318 90H237.782L237.382 92.032H236.31L236.902 89.008H237.334C237.9 88.976 238.374 88.5493 238.758 87.728C239.142 86.9067 239.516 85.7813 239.878 84.352L240.55 81.584H246.742L245.27 89.008ZM240.902 84.512C240.593 85.7387 240.294 86.72 240.006 87.456C239.718 88.192 239.361 88.7093 238.934 89.008H244.134L245.414 82.592H241.366L240.902 84.512ZM257.149 81.584L255.453 90H254.317L255.789 82.592H251.773L251.261 84.672C250.93 85.952 250.61 86.9867 250.301 87.776C249.991 88.5547 249.639 89.1413 249.245 89.536C248.861 89.92 248.407 90.112 247.885 90.112C247.671 90.112 247.394 90.0693 247.053 89.984L247.325 89.008C247.517 89.0507 247.645 89.072 247.709 89.072C248.253 89.072 248.711 88.7147 249.085 88C249.469 87.2747 249.858 86.128 250.253 84.56L250.989 81.584H257.149ZM266.842 81.584L265.178 90H264.138L264.698 87.168H262.106H261.802L259.29 90H257.994L260.746 86.992C259.647 86.6613 259.098 85.9307 259.098 84.8C259.098 83.7973 259.471 83.0133 260.218 82.448C260.965 81.872 261.983 81.584 263.274 81.584H266.842ZM265.61 82.576H263.194C262.266 82.576 261.546 82.768 261.034 83.152C260.522 83.536 260.266 84.08 260.266 84.784C260.266 85.8187 260.938 86.336 262.282 86.336H264.874L265.61 82.576ZM281.164 81.584L279.468 90H278.332L279.804 82.592H275.788L275.276 84.672C274.946 85.952 274.626 86.9867 274.316 87.776C274.007 88.5547 273.655 89.1413 273.26 89.536C272.876 89.92 272.423 90.112 271.9 90.112C271.687 90.112 271.41 90.0693 271.068 89.984L271.34 89.008C271.532 89.0507 271.66 89.072 271.724 89.072C272.268 89.072 272.727 88.7147 273.1 88C273.484 87.2747 273.874 86.128 274.268 84.56L275.004 81.584H281.164ZM291.338 81.52C292.479 81.52 293.391 81.84 294.074 82.48C294.756 83.12 295.098 83.9787 295.098 85.056C295.098 86.0053 294.89 86.864 294.474 87.632C294.068 88.3893 293.498 88.9867 292.762 89.424C292.026 89.8613 291.199 90.08 290.282 90.08C289.524 90.08 288.863 89.936 288.298 89.648C287.732 89.3493 287.295 88.9333 286.986 88.4C286.676 87.856 286.522 87.232 286.522 86.528V86.256H284.602L283.85 90H282.714L284.394 81.584H285.53L284.81 85.216H286.666C286.836 84.4907 287.14 83.8507 287.578 83.296C288.026 82.7307 288.57 82.2933 289.21 81.984C289.86 81.6747 290.57 81.52 291.338 81.52ZM290.378 89.072C291.06 89.072 291.668 88.9067 292.202 88.576C292.746 88.2347 293.172 87.7653 293.482 87.168C293.791 86.56 293.946 85.8773 293.946 85.12C293.946 84.2987 293.711 83.6587 293.242 83.2C292.772 82.7413 292.111 82.512 291.258 82.512C290.575 82.512 289.962 82.6827 289.418 83.024C288.874 83.3653 288.447 83.84 288.138 84.448C287.828 85.0453 287.674 85.7227 287.674 86.48C287.674 87.3013 287.908 87.9413 288.378 88.4C288.847 88.848 289.514 89.072 290.378 89.072ZM302.346 82.032C303.413 82.032 304.245 82.3307 304.842 82.928C305.45 83.5147 305.754 84.3253 305.754 85.36C305.754 86.256 305.541 87.0667 305.114 87.792C304.687 88.5173 304.101 89.088 303.354 89.504C302.607 89.92 301.77 90.128 300.842 90.128C299.637 90.128 298.698 89.7707 298.026 89.056C297.365 88.3413 297.034 87.3173 297.034 85.984C297.034 84.8213 297.269 83.7333 297.738 82.72C298.207 81.7067 298.858 80.8533 299.69 80.16C300.533 79.4667 301.498 79.0027 302.586 78.768L306.49 77.952L306.522 78.944L302.842 79.712C301.722 79.9467 300.778 80.4373 300.01 81.184C299.253 81.92 298.714 82.8587 298.394 84C298.895 83.36 299.477 82.8747 300.138 82.544C300.81 82.2027 301.546 82.032 302.346 82.032ZM300.906 89.232C301.578 89.232 302.191 89.072 302.746 88.752C303.301 88.4213 303.738 87.9787 304.058 87.424C304.378 86.8587 304.538 86.2347 304.538 85.552C304.538 84.752 304.314 84.1387 303.866 83.712C303.429 83.2747 302.799 83.056 301.978 83.056C301.327 83.056 300.703 83.2107 300.106 83.52C299.519 83.8293 299.045 84.24 298.682 84.752C298.33 85.2533 298.154 85.7813 298.154 86.336C298.154 87.232 298.399 87.9413 298.89 88.464C299.381 88.976 300.053 89.232 300.906 89.232ZM311.179 90.08C310.411 90.08 309.739 89.936 309.163 89.648C308.587 89.3493 308.139 88.9333 307.819 88.4C307.509 87.856 307.355 87.2267 307.355 86.512C307.355 85.5627 307.563 84.7093 307.979 83.952C308.395 83.1947 308.971 82.6027 309.707 82.176C310.453 81.7387 311.291 81.52 312.219 81.52C313.392 81.52 314.32 81.84 315.003 82.48C315.696 83.12 316.043 83.984 316.043 85.072C316.043 86.0213 315.835 86.88 315.419 87.648C315.003 88.4053 314.421 89.0027 313.675 89.44C312.939 89.8667 312.107 90.08 311.179 90.08ZM311.259 89.072C311.952 89.072 312.576 88.9067 313.131 88.576C313.685 88.2347 314.117 87.7653 314.427 87.168C314.747 86.56 314.907 85.8827 314.907 85.136C314.907 84.3147 314.661 83.6747 314.171 83.216C313.691 82.7467 313.013 82.512 312.139 82.512C311.445 82.512 310.821 82.6827 310.267 83.024C309.712 83.3653 309.275 83.84 308.955 84.448C308.645 85.0453 308.491 85.7173 308.491 86.464C308.491 87.2853 308.731 87.9253 309.211 88.384C309.701 88.8427 310.384 89.072 311.259 89.072ZM325.06 82.592H320.212L318.756 90H317.62L319.3 81.584H325.268L325.06 82.592ZM328.679 90.08C327.911 90.08 327.239 89.936 326.663 89.648C326.087 89.3493 325.639 88.9333 325.319 88.4C325.009 87.856 324.855 87.2267 324.855 86.512C324.855 85.5627 325.063 84.7093 325.479 83.952C325.895 83.1947 326.471 82.6027 327.207 82.176C327.953 81.7387 328.791 81.52 329.719 81.52C330.892 81.52 331.82 81.84 332.503 82.48C333.196 83.12 333.543 83.984 333.543 85.072C333.543 86.0213 333.335 86.88 332.919 87.648C332.503 88.4053 331.921 89.0027 331.175 89.44C330.439 89.8667 329.607 90.08 328.679 90.08ZM328.759 89.072C329.452 89.072 330.076 88.9067 330.631 88.576C331.185 88.2347 331.617 87.7653 331.927 87.168C332.247 86.56 332.407 85.8827 332.407 85.136C332.407 84.3147 332.161 83.6747 331.671 83.216C331.191 82.7467 330.513 82.512 329.639 82.512C328.945 82.512 328.321 82.6827 327.767 83.024C327.212 83.3653 326.775 83.84 326.455 84.448C326.145 85.0453 325.991 85.7173 325.991 86.464C325.991 87.2853 326.231 87.9253 326.711 88.384C327.201 88.8427 327.884 89.072 328.759 89.072ZM62.8859 105.584L61.2059 114H60.0699L60.7579 110.528C59.7339 110.933 58.7633 111.136 57.8459 111.136C56.9606 111.136 56.2673 110.96 55.7659 110.608C55.2753 110.245 55.0299 109.717 55.0299 109.024C55.0299 108.843 55.0566 108.608 55.1099 108.32L55.6539 105.584H56.7899L56.2459 108.336C56.2139 108.496 56.1979 108.651 56.1979 108.8C56.1979 109.269 56.3633 109.621 56.6939 109.856C57.0246 110.091 57.4886 110.208 58.0859 110.208C58.9393 110.208 59.8993 109.984 60.9659 109.536L61.7499 105.584H62.8859ZM65.6004 110.112C65.5898 110.187 65.5844 110.299 65.5844 110.448C65.5844 111.301 65.8244 111.952 66.3044 112.4C66.7951 112.848 67.5204 113.072 68.4804 113.072C69.0351 113.072 69.5524 112.981 70.0324 112.8C70.5231 112.608 70.9231 112.347 71.2324 112.016L71.7444 112.832C71.3498 113.227 70.8538 113.536 70.2564 113.76C69.6698 113.973 69.0458 114.08 68.3844 114.08C67.1684 114.08 66.2084 113.76 65.5044 113.12C64.8111 112.48 64.4644 111.605 64.4644 110.496C64.4644 109.557 64.6618 108.709 65.0564 107.952C65.4618 107.195 66.0164 106.603 66.7204 106.176C67.4351 105.739 68.2351 105.52 69.1204 105.52C70.2404 105.52 71.1311 105.84 71.7924 106.48C72.4538 107.109 72.7844 107.979 72.7844 109.088C72.7844 109.397 72.7471 109.739 72.6724 110.112H65.6004ZM69.0884 106.48C68.2458 106.48 67.5258 106.731 66.9284 107.232C66.3311 107.733 65.9258 108.411 65.7124 109.264H71.7124C71.7231 109.189 71.7284 109.088 71.7284 108.96C71.7284 108.171 71.4884 107.563 71.0084 107.136C70.5284 106.699 69.8884 106.48 69.0884 106.48ZM82.7893 105.584L81.0933 114H79.9573L81.4293 106.592H77.4133L76.9013 108.672C76.5706 109.952 76.2506 110.987 75.9413 111.776C75.632 112.555 75.28 113.141 74.8853 113.536C74.5013 113.92 74.048 114.112 73.5253 114.112C73.312 114.112 73.0346 114.069 72.6933 113.984L72.9653 113.008C73.1573 113.051 73.2853 113.072 73.3493 113.072C73.8933 113.072 74.352 112.715 74.7253 112C75.1093 111.275 75.4986 110.128 75.8933 108.56L76.6293 105.584H82.7893ZM88.1787 114.08C87.4107 114.08 86.7387 113.936 86.1627 113.648C85.5867 113.349 85.1387 112.933 84.8187 112.4C84.5094 111.856 84.3547 111.227 84.3547 110.512C84.3547 109.563 84.5627 108.709 84.9787 107.952C85.3947 107.195 85.9707 106.603 86.7067 106.176C87.4534 105.739 88.2907 105.52 89.2187 105.52C90.392 105.52 91.32 105.84 92.0027 106.48C92.696 107.12 93.0427 107.984 93.0427 109.072C93.0427 110.021 92.8347 110.88 92.4187 111.648C92.0027 112.405 91.4214 113.003 90.6747 113.44C89.9387 113.867 89.1067 114.08 88.1787 114.08ZM88.2587 113.072C88.952 113.072 89.576 112.907 90.1307 112.576C90.6854 112.235 91.1174 111.765 91.4267 111.168C91.7467 110.56 91.9067 109.883 91.9067 109.136C91.9067 108.315 91.6614 107.675 91.1707 107.216C90.6907 106.747 90.0134 106.512 89.1387 106.512C88.4454 106.512 87.8214 106.683 87.2667 107.024C86.712 107.365 86.2747 107.84 85.9547 108.448C85.6454 109.045 85.4907 109.717 85.4907 110.464C85.4907 111.285 85.7307 111.925 86.2107 112.384C86.7014 112.843 87.384 113.072 88.2587 113.072ZM100.812 109.664C101.74 109.888 102.204 110.459 102.204 111.376C102.204 112.197 101.873 112.843 101.212 113.312C100.561 113.771 99.6596 114 98.5076 114H94.6196L96.3156 105.584H99.9796C100.865 105.584 101.537 105.744 101.996 106.064C102.454 106.384 102.684 106.848 102.684 107.456C102.684 107.989 102.518 108.448 102.188 108.832C101.857 109.216 101.398 109.493 100.812 109.664ZM96.6676 109.328H99.1796C99.8836 109.328 100.449 109.173 100.876 108.864C101.313 108.555 101.532 108.149 101.532 107.648C101.532 106.869 100.945 106.48 99.7716 106.48H97.2436L96.6676 109.328ZM98.5716 113.104C99.3609 113.104 99.9742 112.949 100.412 112.64C100.86 112.331 101.084 111.899 101.084 111.344C101.084 110.928 100.945 110.629 100.668 110.448C100.401 110.267 99.9529 110.176 99.3236 110.176H96.5076L95.9156 113.104H98.5716ZM105.538 110.112C105.527 110.187 105.522 110.299 105.522 110.448C105.522 111.301 105.762 111.952 106.242 112.4C106.733 112.848 107.458 113.072 108.418 113.072C108.973 113.072 109.49 112.981 109.97 112.8C110.461 112.608 110.861 112.347 111.17 112.016L111.682 112.832C111.287 113.227 110.791 113.536 110.194 113.76C109.607 113.973 108.983 114.08 108.322 114.08C107.106 114.08 106.146 113.76 105.442 113.12C104.749 112.48 104.402 111.605 104.402 110.496C104.402 109.557 104.599 108.709 104.994 107.952C105.399 107.195 105.954 106.603 106.658 106.176C107.373 105.739 108.173 105.52 109.058 105.52C110.178 105.52 111.069 105.84 111.73 106.48C112.391 107.109 112.722 107.979 112.722 109.088C112.722 109.397 112.685 109.739 112.61 110.112H105.538ZM109.026 106.48C108.183 106.48 107.463 106.731 106.866 107.232C106.269 107.733 105.863 108.411 105.65 109.264H111.65C111.661 109.189 111.666 109.088 111.666 108.96C111.666 108.171 111.426 107.563 110.946 107.136C110.466 106.699 109.826 106.48 109.026 106.48ZM119.091 109.728L121.795 114H120.499L118.195 110.256H116.211L115.459 114H114.323L116.019 105.584H117.155L116.403 109.28H118.275L122.003 105.584H123.283L119.091 109.728ZM132.779 105.584L131.099 114H130.011L130.283 112.672C129.878 113.12 129.398 113.467 128.843 113.712C128.289 113.957 127.675 114.08 127.003 114.08C126.289 114.08 125.654 113.936 125.099 113.648C124.545 113.36 124.113 112.949 123.803 112.416C123.494 111.872 123.339 111.237 123.339 110.512C123.339 109.563 123.542 108.709 123.947 107.952C124.363 107.195 124.934 106.603 125.659 106.176C126.385 105.739 127.195 105.52 128.091 105.52C128.891 105.52 129.563 105.68 130.107 106C130.651 106.309 131.046 106.757 131.291 107.344L131.643 105.584H132.779ZM127.243 113.072C127.937 113.072 128.561 112.907 129.115 112.576C129.67 112.235 130.102 111.765 130.411 111.168C130.731 110.56 130.891 109.883 130.891 109.136C130.891 108.315 130.646 107.675 130.155 107.216C129.675 106.747 128.998 106.512 128.123 106.512C127.43 106.512 126.806 106.683 126.251 107.024C125.697 107.365 125.259 107.84 124.939 108.448C124.63 109.045 124.475 109.717 124.475 110.464C124.475 111.285 124.715 111.925 125.195 112.384C125.686 112.843 126.369 113.072 127.243 113.072ZM134.611 112.336C134.845 112.336 135.037 112.416 135.187 112.576C135.347 112.736 135.427 112.933 135.427 113.168C135.427 113.307 135.4 113.435 135.347 113.552C135.304 113.669 135.229 113.824 135.123 114.016L133.907 116.336H133.139L134.163 113.984C134.024 113.92 133.912 113.824 133.827 113.696C133.752 113.557 133.715 113.408 133.715 113.248C133.715 112.992 133.8 112.779 133.971 112.608C134.152 112.427 134.365 112.336 134.611 112.336ZM143.597 105.584H144.733L143.373 112.384L150.285 105.584H151.373L149.693 114H148.525L149.917 107.2L143.005 114H141.901L143.597 105.584ZM161.024 114.08C160.235 114.08 159.547 113.936 158.96 113.648C158.373 113.349 157.92 112.933 157.6 112.4C157.291 111.856 157.136 111.227 157.136 110.512C157.136 109.563 157.344 108.709 157.76 107.952C158.176 107.195 158.757 106.603 159.504 106.176C160.251 105.739 161.093 105.52 162.032 105.52C162.811 105.52 163.477 105.664 164.032 105.952C164.597 106.229 165.035 106.645 165.344 107.2L164.384 107.76C163.904 106.928 163.088 106.512 161.936 106.512C161.243 106.512 160.613 106.683 160.048 107.024C159.493 107.365 159.056 107.835 158.736 108.432C158.427 109.029 158.272 109.707 158.272 110.464C158.272 111.285 158.512 111.925 158.992 112.384C159.483 112.843 160.176 113.072 161.072 113.072C161.616 113.072 162.117 112.971 162.576 112.768C163.045 112.555 163.429 112.251 163.728 111.856L164.544 112.48C164.171 112.981 163.669 113.376 163.04 113.664C162.421 113.941 161.749 114.08 161.024 114.08ZM173.574 106.592H170.374L168.902 114H167.766L169.238 106.592H166.07L166.262 105.584H173.782L173.574 106.592ZM179.521 105.52C180.236 105.52 180.87 105.664 181.425 105.952C181.99 106.24 182.428 106.651 182.737 107.184C183.046 107.717 183.201 108.347 183.201 109.072C183.201 110.021 182.993 110.88 182.577 111.648C182.172 112.405 181.606 113.003 180.881 113.44C180.156 113.867 179.34 114.08 178.433 114.08C177.633 114.08 176.961 113.925 176.417 113.616C175.873 113.296 175.478 112.837 175.233 112.24L174.273 117.104H173.137L175.425 105.584H176.513L176.241 106.928C176.646 106.469 177.126 106.123 177.681 105.888C178.236 105.643 178.849 105.52 179.521 105.52ZM178.417 113.072C179.11 113.072 179.729 112.907 180.273 112.576C180.828 112.235 181.26 111.765 181.569 111.168C181.889 110.571 182.049 109.893 182.049 109.136C182.049 108.315 181.804 107.675 181.313 107.216C180.833 106.747 180.156 106.512 179.281 106.512C178.588 106.512 177.964 106.683 177.409 107.024C176.865 107.355 176.433 107.824 176.113 108.432C175.804 109.029 175.649 109.707 175.649 110.464C175.649 111.285 175.889 111.925 176.369 112.384C176.86 112.843 177.542 113.072 178.417 113.072ZM185.96 110.112C185.949 110.187 185.944 110.299 185.944 110.448C185.944 111.301 186.184 111.952 186.664 112.4C187.154 112.848 187.88 113.072 188.84 113.072C189.394 113.072 189.912 112.981 190.392 112.8C190.882 112.608 191.282 112.347 191.592 112.016L192.104 112.832C191.709 113.227 191.213 113.536 190.616 113.76C190.029 113.973 189.405 114.08 188.744 114.08C187.528 114.08 186.568 113.76 185.864 113.12C185.17 112.48 184.824 111.605 184.824 110.496C184.824 109.557 185.021 108.709 185.416 107.952C185.821 107.195 186.376 106.603 187.08 106.176C187.794 105.739 188.594 105.52 189.48 105.52C190.6 105.52 191.49 105.84 192.152 106.48C192.813 107.109 193.144 107.979 193.144 109.088C193.144 109.397 193.106 109.739 193.032 110.112H185.96ZM189.448 106.48C188.605 106.48 187.885 106.731 187.288 107.232C186.69 107.733 186.285 108.411 186.072 109.264H192.072C192.082 109.189 192.088 109.088 192.088 108.96C192.088 108.171 191.848 107.563 191.368 107.136C190.888 106.699 190.248 106.48 189.448 106.48ZM205.833 105.584L204.153 114H203.113L204.441 107.344L199.913 112.976H199.401L197.129 107.28L195.785 114H194.745L196.425 105.584H197.561L199.913 111.648L204.761 105.584H205.833ZM209.066 105.584H210.202L208.842 112.384L215.754 105.584H216.842L215.162 114H213.994L215.386 107.2L208.474 114H207.37L209.066 105.584ZM229.473 105.584L227.793 114H226.753L228.081 107.344L223.553 112.976H223.041L220.769 107.28L219.425 114H218.385L220.065 105.584H221.201L223.553 111.648L228.401 105.584H229.473ZM234.93 114.08C234.141 114.08 233.453 113.936 232.866 113.648C232.28 113.349 231.826 112.933 231.506 112.4C231.197 111.856 231.042 111.227 231.042 110.512C231.042 109.563 231.25 108.709 231.666 107.952C232.082 107.195 232.664 106.603 233.41 106.176C234.157 105.739 235 105.52 235.938 105.52C236.717 105.52 237.384 105.664 237.938 105.952C238.504 106.229 238.941 106.645 239.25 107.2L238.29 107.76C237.81 106.928 236.994 106.512 235.842 106.512C235.149 106.512 234.52 106.683 233.954 107.024C233.4 107.365 232.962 107.835 232.642 108.432C232.333 109.029 232.178 109.707 232.178 110.464C232.178 111.285 232.418 111.925 232.898 112.384C233.389 112.843 234.082 113.072 234.978 113.072C235.522 113.072 236.024 112.971 236.482 112.768C236.952 112.555 237.336 112.251 237.634 111.856L238.45 112.48C238.077 112.981 237.576 113.376 236.946 113.664C236.328 113.941 235.656 114.08 234.93 114.08ZM248.108 105.584L246.444 114H245.404L245.964 111.168H243.372H243.068L240.556 114H239.26L242.012 110.992C240.913 110.661 240.364 109.931 240.364 108.8C240.364 107.797 240.737 107.013 241.484 106.448C242.23 105.872 243.249 105.584 244.54 105.584H248.108ZM246.876 106.576H244.46C243.532 106.576 242.812 106.768 242.3 107.152C241.788 107.536 241.532 108.08 241.532 108.784C241.532 109.819 242.204 110.336 243.548 110.336H246.14L246.876 106.576ZM257.774 114.08C256.985 114.08 256.297 113.936 255.71 113.648C255.123 113.349 254.67 112.933 254.35 112.4C254.041 111.856 253.886 111.227 253.886 110.512C253.886 109.563 254.094 108.709 254.51 107.952C254.926 107.195 255.507 106.603 256.254 106.176C257.001 105.739 257.843 105.52 258.782 105.52C259.561 105.52 260.227 105.664 260.782 105.952C261.347 106.229 261.785 106.645 262.094 107.2L261.134 107.76C260.654 106.928 259.838 106.512 258.686 106.512C257.993 106.512 257.363 106.683 256.798 107.024C256.243 107.365 255.806 107.835 255.486 108.432C255.177 109.029 255.022 109.707 255.022 110.464C255.022 111.285 255.262 111.925 255.742 112.384C256.233 112.843 256.926 113.072 257.822 113.072C258.366 113.072 258.867 112.971 259.326 112.768C259.795 112.555 260.179 112.251 260.478 111.856L261.294 112.48C260.921 112.981 260.419 113.376 259.79 113.664C259.171 113.941 258.499 114.08 257.774 114.08ZM269.895 113.008H271.207L270.615 116.032H269.543L269.943 114H262.407L262.007 116.032H260.935L261.527 113.008H261.959C262.525 112.976 262.999 112.549 263.383 111.728C263.767 110.907 264.141 109.781 264.503 108.352L265.175 105.584H271.367L269.895 113.008ZM265.527 108.512C265.218 109.739 264.919 110.72 264.631 111.456C264.343 112.192 263.986 112.709 263.559 113.008H268.759L270.039 106.592H265.991L265.527 108.512ZM274.382 110.112C274.371 110.187 274.366 110.299 274.366 110.448C274.366 111.301 274.606 111.952 275.086 112.4C275.576 112.848 276.302 113.072 277.262 113.072C277.816 113.072 278.334 112.981 278.814 112.8C279.304 112.608 279.704 112.347 280.014 112.016L280.526 112.832C280.131 113.227 279.635 113.536 279.038 113.76C278.451 113.973 277.827 114.08 277.166 114.08C275.95 114.08 274.99 113.76 274.286 113.12C273.592 112.48 273.246 111.605 273.246 110.496C273.246 109.557 273.443 108.709 273.838 107.952C274.243 107.195 274.798 106.603 275.502 106.176C276.216 105.739 277.016 105.52 277.902 105.52C279.022 105.52 279.912 105.84 280.574 106.48C281.235 107.109 281.566 107.979 281.566 109.088C281.566 109.397 281.528 109.739 281.454 110.112H274.382ZM277.87 106.48C277.027 106.48 276.307 106.731 275.71 107.232C275.112 107.733 274.707 108.411 274.494 109.264H280.494C280.504 109.189 280.51 109.088 280.51 108.96C280.51 108.171 280.27 107.563 279.79 107.136C279.31 106.699 278.67 106.48 277.87 106.48ZM291.571 105.584L289.875 114H288.739L290.211 106.592H286.195L285.683 108.672C285.352 109.952 285.032 110.987 284.723 111.776C284.413 112.555 284.061 113.141 283.667 113.536C283.283 113.92 282.829 114.112 282.307 114.112C282.093 114.112 281.816 114.069 281.475 113.984L281.747 113.008C281.939 113.051 282.067 113.072 282.131 113.072C282.675 113.072 283.133 112.715 283.507 112C283.891 111.275 284.28 110.128 284.675 108.56L285.411 105.584H291.571ZM302.592 105.584L300.912 114H299.824L300.096 112.672C299.691 113.12 299.211 113.467 298.656 113.712C298.101 113.957 297.488 114.08 296.816 114.08C296.101 114.08 295.467 113.936 294.912 113.648C294.357 113.36 293.925 112.949 293.616 112.416C293.307 111.872 293.152 111.237 293.152 110.512C293.152 109.563 293.355 108.709 293.76 107.952C294.176 107.195 294.747 106.603 295.472 106.176C296.197 105.739 297.008 105.52 297.904 105.52C298.704 105.52 299.376 105.68 299.92 106C300.464 106.309 300.859 106.757 301.104 107.344L301.456 105.584H302.592ZM297.056 113.072C297.749 113.072 298.373 112.907 298.928 112.576C299.483 112.235 299.915 111.765 300.224 111.168C300.544 110.56 300.704 109.883 300.704 109.136C300.704 108.315 300.459 107.675 299.968 107.216C299.488 106.747 298.811 106.512 297.936 106.512C297.243 106.512 296.619 106.683 296.064 107.024C295.509 107.365 295.072 107.84 294.752 108.448C294.443 109.045 294.288 109.717 294.288 110.464C294.288 111.285 294.528 111.925 295.008 112.384C295.499 112.843 296.181 113.072 297.056 113.072ZM311.543 106.592H308.343L306.871 114H305.735L307.207 106.592H304.039L304.231 105.584H311.751L311.543 106.592ZM316.306 108.544C318.194 108.544 319.138 109.296 319.138 110.8C319.138 111.44 318.972 112.005 318.642 112.496C318.322 112.976 317.863 113.349 317.266 113.616C316.679 113.872 315.996 114 315.218 114H311.698L313.378 105.616H314.514L313.938 108.544H316.306ZM315.218 113.136C316.05 113.136 316.722 112.933 317.234 112.528C317.746 112.112 318.002 111.568 318.002 110.896C318.002 110.395 317.831 110.021 317.49 109.776C317.159 109.52 316.652 109.392 315.97 109.392H313.762L313.026 113.136H315.218ZM34.3828 129.584L32.7028 138H31.5668L33.0228 130.592H27.7428L26.2868 138H25.1508L26.8308 129.584H34.3828ZM39.8364 138.08C39.0471 138.08 38.3591 137.936 37.7724 137.648C37.1858 137.349 36.7324 136.933 36.4124 136.4C36.1031 135.856 35.9484 135.227 35.9484 134.512C35.9484 133.563 36.1564 132.709 36.5724 131.952C36.9884 131.195 37.5698 130.603 38.3164 130.176C39.0631 129.739 39.9058 129.52 40.8444 129.52C41.6231 129.52 42.2898 129.664 42.8444 129.952C43.4098 130.229 43.8471 130.645 44.1564 131.2L43.1964 131.76C42.7164 130.928 41.9004 130.512 40.7484 130.512C40.0551 130.512 39.4258 130.683 38.8604 131.024C38.3058 131.365 37.8684 131.835 37.5484 132.432C37.2391 133.029 37.0844 133.707 37.0844 134.464C37.0844 135.285 37.3244 135.925 37.8044 136.384C38.2951 136.843 38.9884 137.072 39.8844 137.072C40.4284 137.072 40.9298 136.971 41.3884 136.768C41.8578 136.555 42.2418 136.251 42.5404 135.856L43.3564 136.48C42.9831 136.981 42.4818 137.376 41.8524 137.664C41.2338 137.941 40.5618 138.08 39.8364 138.08ZM46.8312 129.584H47.9672L46.6072 136.384L53.5192 129.584H54.6072L52.9272 138H51.7592L53.1512 131.2L46.2392 138H45.1352L46.8312 129.584ZM60.2148 133.728L62.6948 138H61.4788L59.4788 134.496L56.1028 138H54.7588L58.9988 133.648L56.6628 129.584H57.8628L59.7508 132.88L62.9188 129.584H64.2308L60.2148 133.728ZM68.1318 138.08C67.3638 138.08 66.6918 137.936 66.1158 137.648C65.5398 137.349 65.0918 136.933 64.7718 136.4C64.4625 135.856 64.3078 135.227 64.3078 134.512C64.3078 133.563 64.5158 132.709 64.9318 131.952C65.3478 131.195 65.9238 130.603 66.6598 130.176C67.4065 129.739 68.2438 129.52 69.1718 129.52C70.3451 129.52 71.2731 129.84 71.9558 130.48C72.6491 131.12 72.9958 131.984 72.9958 133.072C72.9958 134.021 72.7878 134.88 72.3718 135.648C71.9558 136.405 71.3745 137.003 70.6278 137.44C69.8918 137.867 69.0598 138.08 68.1318 138.08ZM68.2118 137.072C68.9051 137.072 69.5291 136.907 70.0838 136.576C70.6385 136.235 71.0705 135.765 71.3798 135.168C71.6998 134.56 71.8598 133.883 71.8598 133.136C71.8598 132.315 71.6145 131.675 71.1238 131.216C70.6438 130.747 69.9665 130.512 69.0918 130.512C68.3985 130.512 67.7745 130.683 67.2198 131.024C66.6651 131.365 66.2278 131.84 65.9078 132.448C65.5985 133.045 65.4438 133.717 65.4438 134.464C65.4438 135.285 65.6838 135.925 66.1638 136.384C66.6545 136.843 67.3371 137.072 68.2118 137.072ZM81.6682 130.592H78.4682L76.9962 138H75.8602L77.3322 130.592H74.1642L74.3562 129.584H81.8762L81.6682 130.592ZM82.6161 134.112C82.6054 134.187 82.6001 134.299 82.6001 134.448C82.6001 135.301 82.8401 135.952 83.3201 136.4C83.8107 136.848 84.5361 137.072 85.4961 137.072C86.0507 137.072 86.5681 136.981 87.0481 136.8C87.5387 136.608 87.9387 136.347 88.2481 136.016L88.7601 136.832C88.3654 137.227 87.8694 137.536 87.2721 137.76C86.6854 137.973 86.0614 138.08 85.4001 138.08C84.1841 138.08 83.2241 137.76 82.5201 137.12C81.8267 136.48 81.4801 135.605 81.4801 134.496C81.4801 133.557 81.6774 132.709 82.0721 131.952C82.4774 131.195 83.0321 130.603 83.7361 130.176C84.4507 129.739 85.2507 129.52 86.1361 129.52C87.2561 129.52 88.1467 129.84 88.8081 130.48C89.4694 131.109 89.8001 131.979 89.8001 133.088C89.8001 133.397 89.7627 133.739 89.6881 134.112H82.6161ZM86.1041 130.48C85.2614 130.48 84.5414 130.731 83.9441 131.232C83.3467 131.733 82.9414 132.411 82.7281 133.264H88.7281C88.7387 133.189 88.7441 133.088 88.7441 132.96C88.7441 132.171 88.5041 131.563 88.0241 131.136C87.5441 130.699 86.9041 130.48 86.1041 130.48ZM97.1928 129.52C97.9075 129.52 98.5421 129.664 99.0968 129.952C99.6621 130.24 100.099 130.651 100.409 131.184C100.718 131.717 100.873 132.347 100.873 133.072C100.873 134.021 100.665 134.88 100.249 135.648C99.8435 136.405 99.2781 137.003 98.5528 137.44C97.8275 137.867 97.0115 138.08 96.1048 138.08C95.3048 138.08 94.6328 137.925 94.0888 137.616C93.5448 137.296 93.1501 136.837 92.9048 136.24L91.9448 141.104H90.8088L93.0968 129.584H94.1848L93.9128 130.928C94.3181 130.469 94.7981 130.123 95.3528 129.888C95.9075 129.643 96.5208 129.52 97.1928 129.52ZM96.0888 137.072C96.7821 137.072 97.4008 136.907 97.9448 136.576C98.4995 136.235 98.9315 135.765 99.2408 135.168C99.5608 134.571 99.7208 133.893 99.7208 133.136C99.7208 132.315 99.4755 131.675 98.9848 131.216C98.5048 130.747 97.8275 130.512 96.9528 130.512C96.2595 130.512 95.6355 130.683 95.0808 131.024C94.5368 131.355 94.1048 131.824 93.7848 132.432C93.4755 133.029 93.3208 133.707 93.3208 134.464C93.3208 135.285 93.5608 135.925 94.0408 136.384C94.5315 136.843 95.2141 137.072 96.0888 137.072ZM111.936 129.584L110.256 138H109.168L109.44 136.672C109.034 137.12 108.554 137.467 108 137.712C107.445 137.957 106.832 138.08 106.16 138.08C105.445 138.08 104.81 137.936 104.256 137.648C103.701 137.36 103.269 136.949 102.96 136.416C102.65 135.872 102.496 135.237 102.496 134.512C102.496 133.563 102.698 132.709 103.104 131.952C103.52 131.195 104.09 130.603 104.816 130.176C105.541 129.739 106.352 129.52 107.248 129.52C108.048 129.52 108.72 129.68 109.264 130C109.808 130.309 110.202 130.757 110.448 131.344L110.8 129.584H111.936ZM106.4 137.072C107.093 137.072 107.717 136.907 108.272 136.576C108.826 136.235 109.258 135.765 109.568 135.168C109.888 134.56 110.048 133.883 110.048 133.136C110.048 132.315 109.802 131.675 109.312 131.216C108.832 130.747 108.154 130.512 107.28 130.512C106.586 130.512 105.962 130.683 105.408 131.024C104.853 131.365 104.416 131.84 104.096 132.448C103.786 133.045 103.632 133.717 103.632 134.464C103.632 135.285 103.872 135.925 104.352 136.384C104.842 136.843 105.525 137.072 106.4 137.072ZM122.711 129.584L121.031 138H119.895L121.351 130.592H116.071L114.615 138H113.479L115.159 129.584H122.711ZM125.941 129.584H127.077L125.717 136.384L132.629 129.584H133.717L132.037 138H130.869L132.261 131.2L125.349 138H124.245L125.941 129.584ZM143.9 129.52C145.042 129.52 145.954 129.84 146.636 130.48C147.319 131.12 147.66 131.979 147.66 133.056C147.66 134.005 147.452 134.864 147.036 135.632C146.631 136.389 146.06 136.987 145.324 137.424C144.588 137.861 143.762 138.08 142.844 138.08C142.087 138.08 141.426 137.936 140.86 137.648C140.295 137.349 139.858 136.933 139.548 136.4C139.239 135.856 139.084 135.232 139.084 134.528V134.256H137.164L136.412 138H135.276L136.956 129.584H138.092L137.372 133.216H139.228C139.399 132.491 139.703 131.851 140.14 131.296C140.588 130.731 141.132 130.293 141.772 129.984C142.423 129.675 143.132 129.52 143.9 129.52ZM142.94 137.072C143.623 137.072 144.231 136.907 144.764 136.576C145.308 136.235 145.735 135.765 146.044 135.168C146.354 134.56 146.508 133.877 146.508 133.12C146.508 132.299 146.274 131.659 145.804 131.2C145.335 130.741 144.674 130.512 143.82 130.512C143.138 130.512 142.524 130.683 141.98 131.024C141.436 131.365 141.01 131.84 140.7 132.448C140.391 133.045 140.236 133.723 140.236 134.48C140.236 135.301 140.471 135.941 140.94 136.4C141.41 136.848 142.076 137.072 142.94 137.072ZM159.096 130.032C160.163 130.032 160.995 130.331 161.592 130.928C162.2 131.515 162.504 132.325 162.504 133.36C162.504 134.256 162.291 135.067 161.864 135.792C161.437 136.517 160.851 137.088 160.104 137.504C159.357 137.92 158.52 138.128 157.592 138.128C156.387 138.128 155.448 137.771 154.776 137.056C154.115 136.341 153.784 135.317 153.784 133.984C153.784 132.821 154.019 131.733 154.488 130.72C154.957 129.707 155.608 128.853 156.44 128.16C157.283 127.467 158.248 127.003 159.336 126.768L163.24 125.952L163.272 126.944L159.592 127.712C158.472 127.947 157.528 128.437 156.76 129.184C156.003 129.92 155.464 130.859 155.144 132C155.645 131.36 156.227 130.875 156.888 130.544C157.56 130.203 158.296 130.032 159.096 130.032ZM157.656 137.232C158.328 137.232 158.941 137.072 159.496 136.752C160.051 136.421 160.488 135.979 160.808 135.424C161.128 134.859 161.288 134.235 161.288 133.552C161.288 132.752 161.064 132.139 160.616 131.712C160.179 131.275 159.549 131.056 158.728 131.056C158.077 131.056 157.453 131.211 156.856 131.52C156.269 131.829 155.795 132.24 155.432 132.752C155.08 133.253 154.904 133.781 154.904 134.336C154.904 135.232 155.149 135.941 155.64 136.464C156.131 136.976 156.803 137.232 157.656 137.232ZM165.257 134.112C165.246 134.187 165.241 134.299 165.241 134.448C165.241 135.301 165.481 135.952 165.961 136.4C166.451 136.848 167.177 137.072 168.137 137.072C168.691 137.072 169.209 136.981 169.689 136.8C170.179 136.608 170.579 136.347 170.889 136.016L171.401 136.832C171.006 137.227 170.51 137.536 169.913 137.76C169.326 137.973 168.702 138.08 168.041 138.08C166.825 138.08 165.865 137.76 165.161 137.12C164.467 136.48 164.121 135.605 164.121 134.496C164.121 133.557 164.318 132.709 164.713 131.952C165.118 131.195 165.673 130.603 166.377 130.176C167.091 129.739 167.891 129.52 168.777 129.52C169.897 129.52 170.787 129.84 171.449 130.48C172.11 131.109 172.441 131.979 172.441 133.088C172.441 133.397 172.403 133.739 172.329 134.112H165.257ZM168.745 130.48C167.902 130.48 167.182 130.731 166.585 131.232C165.987 131.733 165.582 132.411 165.369 133.264H171.369C171.379 133.189 171.385 133.088 171.385 132.96C171.385 132.171 171.145 131.563 170.665 131.136C170.185 130.699 169.545 130.48 168.745 130.48ZM178.543 133.648C179.076 133.787 179.482 134.011 179.759 134.32C180.036 134.619 180.175 134.992 180.175 135.44C180.175 135.941 179.999 136.395 179.647 136.8C179.306 137.205 178.826 137.525 178.207 137.76C177.599 137.984 176.916 138.096 176.159 138.096C174.847 138.096 173.775 137.739 172.943 137.024L173.423 136.224C173.732 136.512 174.127 136.731 174.607 136.88C175.087 137.029 175.61 137.104 176.175 137.104C176.719 137.104 177.21 137.029 177.647 136.88C178.084 136.731 178.426 136.523 178.671 136.256C178.916 135.989 179.039 135.691 179.039 135.36C179.039 134.955 178.858 134.64 178.495 134.416C178.143 134.192 177.652 134.08 177.023 134.08H175.631L175.759 133.216H176.959C177.684 133.216 178.266 133.083 178.703 132.816C179.151 132.549 179.375 132.197 179.375 131.76C179.375 131.355 179.199 131.04 178.847 130.816C178.495 130.592 178.01 130.48 177.391 130.48C176.591 130.48 175.7 130.709 174.719 131.168L174.399 130.224C175.423 129.733 176.452 129.488 177.487 129.488C178.404 129.488 179.14 129.68 179.695 130.064C180.26 130.437 180.543 130.944 180.543 131.584C180.543 132.075 180.367 132.501 180.015 132.864C179.663 133.227 179.172 133.488 178.543 133.648ZM186.069 138.08C185.301 138.08 184.629 137.936 184.053 137.648C183.477 137.349 183.029 136.933 182.709 136.4C182.4 135.856 182.245 135.227 182.245 134.512C182.245 133.563 182.453 132.709 182.869 131.952C183.285 131.195 183.861 130.603 184.597 130.176C185.344 129.739 186.181 129.52 187.109 129.52C188.283 129.52 189.211 129.84 189.893 130.48C190.587 131.12 190.933 131.984 190.933 133.072C190.933 134.021 190.725 134.88 190.309 135.648C189.893 136.405 189.312 137.003 188.565 137.44C187.829 137.867 186.997 138.08 186.069 138.08ZM186.149 137.072C186.843 137.072 187.467 136.907 188.021 136.576C188.576 136.235 189.008 135.765 189.317 135.168C189.637 134.56 189.797 133.883 189.797 133.136C189.797 132.315 189.552 131.675 189.061 131.216C188.581 130.747 187.904 130.512 187.029 130.512C186.336 130.512 185.712 130.683 185.157 131.024C184.603 131.365 184.165 131.84 183.845 132.448C183.536 133.045 183.381 133.717 183.381 134.464C183.381 135.285 183.621 135.925 184.101 136.384C184.592 136.843 185.275 137.072 186.149 137.072ZM201.742 129.584L200.062 138H198.926L200.382 130.592H195.102L193.646 138H192.51L194.19 129.584H201.742ZM212.764 129.584L211.084 138H209.996L210.268 136.672C209.862 137.12 209.382 137.467 208.828 137.712C208.273 137.957 207.66 138.08 206.988 138.08C206.273 138.08 205.638 137.936 205.084 137.648C204.529 137.36 204.097 136.949 203.788 136.416C203.478 135.872 203.324 135.237 203.324 134.512C203.324 133.563 203.526 132.709 203.932 131.952C204.348 131.195 204.918 130.603 205.644 130.176C206.369 129.739 207.18 129.52 208.076 129.52C208.876 129.52 209.548 129.68 210.092 130C210.636 130.309 211.03 130.757 211.276 131.344L211.628 129.584H212.764ZM207.228 137.072C207.921 137.072 208.545 136.907 209.1 136.576C209.654 136.235 210.086 135.765 210.396 135.168C210.716 134.56 210.876 133.883 210.876 133.136C210.876 132.315 210.63 131.675 210.14 131.216C209.66 130.747 208.982 130.512 208.108 130.512C207.414 130.512 206.79 130.683 206.236 131.024C205.681 131.365 205.244 131.84 204.924 132.448C204.614 133.045 204.46 133.717 204.46 134.464C204.46 135.285 204.7 135.925 205.18 136.384C205.67 136.843 206.353 137.072 207.228 137.072ZM218.227 138.08C217.438 138.08 216.75 137.936 216.163 137.648C215.576 137.349 215.123 136.933 214.803 136.4C214.494 135.856 214.339 135.227 214.339 134.512C214.339 133.563 214.547 132.709 214.963 131.952C215.379 131.195 215.96 130.603 216.707 130.176C217.454 129.739 218.296 129.52 219.235 129.52C220.014 129.52 220.68 129.664 221.235 129.952C221.8 130.229 222.238 130.645 222.547 131.2L221.587 131.76C221.107 130.928 220.291 130.512 219.139 130.512C218.446 130.512 217.816 130.683 217.251 131.024C216.696 131.365 216.259 131.835 215.939 132.432C215.63 133.029 215.475 133.707 215.475 134.464C215.475 135.285 215.715 135.925 216.195 136.384C216.686 136.843 217.379 137.072 218.275 137.072C218.819 137.072 219.32 136.971 219.779 136.768C220.248 136.555 220.632 136.251 220.931 135.856L221.747 136.48C221.374 136.981 220.872 137.376 220.243 137.664C219.624 137.941 218.952 138.08 218.227 138.08ZM225.206 129.584H226.342L225.606 133.312H230.886L231.638 129.584H232.774L231.094 138H229.958L230.694 134.288H225.414L224.662 138H223.526L225.206 129.584ZM238.163 138.08C237.395 138.08 236.723 137.936 236.147 137.648C235.571 137.349 235.123 136.933 234.803 136.4C234.494 135.856 234.339 135.227 234.339 134.512C234.339 133.563 234.547 132.709 234.963 131.952C235.379 131.195 235.955 130.603 236.691 130.176C237.438 129.739 238.275 129.52 239.203 129.52C240.376 129.52 241.304 129.84 241.987 130.48C242.68 131.12 243.027 131.984 243.027 133.072C243.027 134.021 242.819 134.88 242.403 135.648C241.987 136.405 241.406 137.003 240.659 137.44C239.923 137.867 239.091 138.08 238.163 138.08ZM238.243 137.072C238.936 137.072 239.56 136.907 240.115 136.576C240.67 136.235 241.102 135.765 241.411 135.168C241.731 134.56 241.891 133.883 241.891 133.136C241.891 132.315 241.646 131.675 241.155 131.216C240.675 130.747 239.998 130.512 239.123 130.512C238.43 130.512 237.806 130.683 237.251 131.024C236.696 131.365 236.259 131.84 235.939 132.448C235.63 133.045 235.475 133.717 235.475 134.464C235.475 135.285 235.715 135.925 236.195 136.384C236.686 136.843 237.368 137.072 238.243 137.072ZM246.3 129.584H247.436L246.076 136.384L252.988 129.584H254.076L252.396 138H251.228L252.62 131.2L245.708 138H244.604L246.3 129.584ZM250.444 128.352C249.793 128.352 249.281 128.208 248.908 127.92C248.535 127.621 248.348 127.221 248.348 126.72C248.348 126.581 248.364 126.443 248.396 126.304H249.18C249.169 126.368 249.164 126.453 249.164 126.56C249.164 126.901 249.281 127.179 249.516 127.392C249.761 127.595 250.092 127.696 250.508 127.696C250.967 127.696 251.361 127.573 251.692 127.328C252.023 127.072 252.241 126.731 252.348 126.304H253.148C253.009 126.955 252.7 127.461 252.22 127.824C251.751 128.176 251.159 128.352 250.444 128.352ZM255.908 136.336C256.142 136.336 256.334 136.416 256.484 136.576C256.644 136.736 256.724 136.933 256.724 137.168C256.724 137.307 256.697 137.435 256.644 137.552C256.601 137.669 256.526 137.824 256.42 138.016L255.204 140.336H254.436L255.46 137.984C255.321 137.92 255.209 137.824 255.124 137.696C255.049 137.557 255.012 137.408 255.012 137.248C255.012 136.992 255.097 136.779 255.268 136.608C255.449 136.427 255.662 136.336 255.908 136.336ZM271.982 129.584L265.838 139.088C265.326 139.877 264.846 140.421 264.398 140.72C263.95 141.029 263.416 141.184 262.798 141.184C262.392 141.184 262.008 141.115 261.646 140.976C261.283 140.848 261 140.667 260.798 140.432L261.406 139.6C261.79 140.005 262.286 140.208 262.894 140.208C263.267 140.208 263.603 140.107 263.902 139.904C264.2 139.701 264.51 139.349 264.83 138.848L265.422 137.952L263.326 129.584H264.478L266.222 136.752L270.814 129.584H271.982ZM278.849 137.008H280.161L279.569 140.032H278.497L278.897 138H271.361L270.961 140.032H269.889L270.481 137.008H270.913C271.478 136.976 271.953 136.549 272.337 135.728C272.721 134.907 273.094 133.781 273.457 132.352L274.129 129.584H280.321L278.849 137.008ZM274.481 132.512C274.171 133.739 273.873 134.72 273.585 135.456C273.297 136.192 272.939 136.709 272.513 137.008H277.713L278.993 130.592H274.945L274.481 132.512ZM286.007 138.08C285.239 138.08 284.567 137.936 283.991 137.648C283.415 137.349 282.967 136.933 282.647 136.4C282.337 135.856 282.183 135.227 282.183 134.512C282.183 133.563 282.391 132.709 282.807 131.952C283.223 131.195 283.799 130.603 284.535 130.176C285.281 129.739 286.119 129.52 287.047 129.52C288.22 129.52 289.148 129.84 289.831 130.48C290.524 131.12 290.871 131.984 290.871 133.072C290.871 134.021 290.663 134.88 290.247 135.648C289.831 136.405 289.249 137.003 288.503 137.44C287.767 137.867 286.935 138.08 286.007 138.08ZM286.087 137.072C286.78 137.072 287.404 136.907 287.959 136.576C288.513 136.235 288.945 135.765 289.255 135.168C289.575 134.56 289.735 133.883 289.735 133.136C289.735 132.315 289.489 131.675 288.999 131.216C288.519 130.747 287.841 130.512 286.967 130.512C286.273 130.512 285.649 130.683 285.095 131.024C284.54 131.365 284.103 131.84 283.783 132.448C283.473 133.045 283.319 133.717 283.319 134.464C283.319 135.285 283.559 135.925 284.039 136.384C284.529 136.843 285.212 137.072 286.087 137.072ZM298.112 130.032C299.178 130.032 300.01 130.331 300.608 130.928C301.216 131.515 301.52 132.325 301.52 133.36C301.52 134.256 301.306 135.067 300.88 135.792C300.453 136.517 299.866 137.088 299.12 137.504C298.373 137.92 297.536 138.128 296.608 138.128C295.402 138.128 294.464 137.771 293.792 137.056C293.13 136.341 292.8 135.317 292.8 133.984C292.8 132.821 293.034 131.733 293.504 130.72C293.973 129.707 294.624 128.853 295.456 128.16C296.298 127.467 297.264 127.003 298.352 126.768L302.256 125.952L302.288 126.944L298.608 127.712C297.488 127.947 296.544 128.437 295.776 129.184C295.018 129.92 294.48 130.859 294.16 132C294.661 131.36 295.242 130.875 295.904 130.544C296.576 130.203 297.312 130.032 298.112 130.032ZM296.672 137.232C297.344 137.232 297.957 137.072 298.512 136.752C299.066 136.421 299.504 135.979 299.824 135.424C300.144 134.859 300.304 134.235 300.304 133.552C300.304 132.752 300.08 132.139 299.632 131.712C299.194 131.275 298.565 131.056 297.744 131.056C297.093 131.056 296.469 131.211 295.872 131.52C295.285 131.829 294.81 132.24 294.448 132.752C294.096 133.253 293.92 133.781 293.92 134.336C293.92 135.232 294.165 135.941 294.656 136.464C295.146 136.976 295.818 137.232 296.672 137.232ZM304.768 129.584H305.904L305.168 133.312H310.448L311.2 129.584H312.336L310.656 138H309.52L310.256 134.288H304.976L304.224 138H303.088L304.768 129.584ZM317.726 138.08C316.958 138.08 316.286 137.936 315.71 137.648C315.134 137.349 314.686 136.933 314.366 136.4C314.056 135.856 313.902 135.227 313.902 134.512C313.902 133.563 314.11 132.709 314.526 131.952C314.942 131.195 315.518 130.603 316.254 130.176C317 129.739 317.838 129.52 318.766 129.52C319.939 129.52 320.867 129.84 321.55 130.48C322.243 131.12 322.59 131.984 322.59 133.072C322.59 134.021 322.382 134.88 321.966 135.648C321.55 136.405 320.968 137.003 320.222 137.44C319.486 137.867 318.654 138.08 317.726 138.08ZM317.806 137.072C318.499 137.072 319.123 136.907 319.678 136.576C320.232 136.235 320.664 135.765 320.974 135.168C321.294 134.56 321.454 133.883 321.454 133.136C321.454 132.315 321.208 131.675 320.718 131.216C320.238 130.747 319.56 130.512 318.686 130.512C317.992 130.512 317.368 130.683 316.814 131.024C316.259 131.365 315.822 131.84 315.502 132.448C315.192 133.045 315.038 133.717 315.038 134.464C315.038 135.285 315.278 135.925 315.758 136.384C316.248 136.843 316.931 137.072 317.806 137.072ZM325.862 129.584H326.998L325.638 136.384L332.55 129.584H333.638L331.958 138H330.79L332.182 131.2L325.27 138H324.166L325.862 129.584ZM330.006 128.352C329.356 128.352 328.844 128.208 328.47 127.92C328.097 127.621 327.91 127.221 327.91 126.72C327.91 126.581 327.926 126.443 327.958 126.304H328.742C328.732 126.368 328.726 126.453 328.726 126.56C328.726 126.901 328.844 127.179 329.078 127.392C329.324 127.595 329.654 127.696 330.07 127.696C330.529 127.696 330.924 127.573 331.254 127.328C331.585 127.072 331.804 126.731 331.91 126.304H332.71C332.572 126.955 332.262 127.461 331.782 127.824C331.313 128.176 330.721 128.352 330.006 128.352ZM341.066 129.584H342.202L340.842 136.384L347.754 129.584H348.842L347.162 138H345.994L347.386 131.2L340.474 138H339.37L341.066 129.584ZM110.466 161.008H111.778L111.186 164.032H110.114L110.514 162H102.978L102.578 164.032H101.506L102.098 161.008H102.53C103.095 160.976 103.57 160.549 103.954 159.728C104.338 158.907 104.711 157.781 105.074 156.352L105.746 153.584H111.938L110.466 161.008ZM106.098 156.512C105.788 157.739 105.49 158.72 105.202 159.456C104.914 160.192 104.556 160.709 104.13 161.008H109.33L110.61 154.592H106.562L106.098 156.512ZM117.624 162.08C116.856 162.08 116.184 161.936 115.608 161.648C115.032 161.349 114.584 160.933 114.264 160.4C113.955 159.856 113.8 159.227 113.8 158.512C113.8 157.563 114.008 156.709 114.424 155.952C114.84 155.195 115.416 154.603 116.152 154.176C116.899 153.739 117.736 153.52 118.664 153.52C119.837 153.52 120.765 153.84 121.448 154.48C122.141 155.12 122.488 155.984 122.488 157.072C122.488 158.021 122.28 158.88 121.864 159.648C121.448 160.405 120.867 161.003 120.12 161.44C119.384 161.867 118.552 162.08 117.624 162.08ZM117.704 161.072C118.397 161.072 119.021 160.907 119.576 160.576C120.131 160.235 120.563 159.765 120.872 159.168C121.192 158.56 121.352 157.883 121.352 157.136C121.352 156.315 121.107 155.675 120.616 155.216C120.136 154.747 119.459 154.512 118.584 154.512C117.891 154.512 117.267 154.683 116.712 155.024C116.157 155.365 115.72 155.84 115.4 156.448C115.091 157.045 114.936 157.717 114.936 158.464C114.936 159.285 115.176 159.925 115.656 160.384C116.147 160.843 116.829 161.072 117.704 161.072ZM127.985 162.08C127.196 162.08 126.508 161.936 125.921 161.648C125.334 161.349 124.881 160.933 124.561 160.4C124.252 159.856 124.097 159.227 124.097 158.512C124.097 157.563 124.305 156.709 124.721 155.952C125.137 155.195 125.718 154.603 126.465 154.176C127.212 153.739 128.054 153.52 128.993 153.52C129.772 153.52 130.438 153.664 130.993 153.952C131.558 154.229 131.996 154.645 132.305 155.2L131.345 155.76C130.865 154.928 130.049 154.512 128.897 154.512C128.204 154.512 127.574 154.683 127.009 155.024C126.454 155.365 126.017 155.835 125.697 156.432C125.388 157.029 125.233 157.707 125.233 158.464C125.233 159.285 125.473 159.925 125.953 160.384C126.444 160.843 127.137 161.072 128.033 161.072C128.577 161.072 129.078 160.971 129.537 160.768C130.006 160.555 130.39 160.251 130.689 159.856L131.505 160.48C131.132 160.981 130.63 161.376 130.001 161.664C129.382 161.941 128.71 162.08 127.985 162.08ZM140.535 154.592H137.335L135.863 162H134.727L136.199 154.592H133.031L133.223 153.584H140.743L140.535 154.592ZM149.505 153.584L143.361 163.088C142.849 163.877 142.369 164.421 141.921 164.72C141.473 165.029 140.94 165.184 140.321 165.184C139.916 165.184 139.532 165.115 139.169 164.976C138.806 164.848 138.524 164.667 138.321 164.432L138.929 163.6C139.313 164.005 139.809 164.208 140.417 164.208C140.79 164.208 141.126 164.107 141.425 163.904C141.724 163.701 142.033 163.349 142.353 162.848L142.945 161.952L140.849 153.584H142.001L143.745 160.752L148.337 153.584H149.505ZM158.875 153.584L157.195 162H156.059L157.515 154.592H152.235L150.779 162H149.643L151.323 153.584H158.875ZM162.089 153.584H163.225L162.489 157.312H167.769L168.521 153.584H169.657L167.977 162H166.841L167.577 158.288H162.297L161.545 162H160.409L162.089 153.584ZM175.046 162.08C174.278 162.08 173.606 161.936 173.03 161.648C172.454 161.349 172.006 160.933 171.686 160.4C171.377 159.856 171.222 159.227 171.222 158.512C171.222 157.563 171.43 156.709 171.846 155.952C172.262 155.195 172.838 154.603 173.574 154.176C174.321 153.739 175.158 153.52 176.086 153.52C177.259 153.52 178.187 153.84 178.87 154.48C179.563 155.12 179.91 155.984 179.91 157.072C179.91 158.021 179.702 158.88 179.286 159.648C178.87 160.405 178.289 161.003 177.542 161.44C176.806 161.867 175.974 162.08 175.046 162.08ZM175.126 161.072C175.819 161.072 176.443 160.907 176.998 160.576C177.553 160.235 177.985 159.765 178.294 159.168C178.614 158.56 178.774 157.883 178.774 157.136C178.774 156.315 178.529 155.675 178.038 155.216C177.558 154.747 176.881 154.512 176.006 154.512C175.313 154.512 174.689 154.683 174.134 155.024C173.579 155.365 173.142 155.84 172.822 156.448C172.513 157.045 172.358 157.717 172.358 158.464C172.358 159.285 172.598 159.925 173.078 160.384C173.569 160.843 174.251 161.072 175.126 161.072ZM183.183 153.584H184.319L182.959 160.384L189.871 153.584H190.959L189.279 162H188.111L189.503 155.2L182.591 162H181.487L183.183 153.584ZM187.327 152.352C186.676 152.352 186.164 152.208 185.791 151.92C185.417 151.621 185.231 151.221 185.231 150.72C185.231 150.581 185.247 150.443 185.279 150.304H186.063C186.052 150.368 186.047 150.453 186.047 150.56C186.047 150.901 186.164 151.179 186.399 151.392C186.644 151.595 186.975 151.696 187.391 151.696C187.849 151.696 188.244 151.573 188.575 151.328C188.905 151.072 189.124 150.731 189.231 150.304H190.031C189.892 150.955 189.583 151.461 189.103 151.824C188.633 152.176 188.041 152.352 187.327 152.352ZM201.458 157.728L204.162 162H202.866L200.562 158.256H198.578L197.826 162H196.69L198.386 153.584H199.522L198.77 157.28H200.642L204.37 153.584H205.65L201.458 157.728ZM215.147 153.584L213.467 162H212.379L212.651 160.672C212.245 161.12 211.765 161.467 211.211 161.712C210.656 161.957 210.043 162.08 209.371 162.08C208.656 162.08 208.021 161.936 207.467 161.648C206.912 161.36 206.48 160.949 206.171 160.416C205.861 159.872 205.707 159.237 205.707 158.512C205.707 157.563 205.909 156.709 206.315 155.952C206.731 155.195 207.301 154.603 208.027 154.176C208.752 153.739 209.563 153.52 210.459 153.52C211.259 153.52 211.931 153.68 212.475 154C213.019 154.309 213.413 154.757 213.659 155.344L214.011 153.584H215.147ZM209.611 161.072C210.304 161.072 210.928 160.907 211.483 160.576C212.037 160.235 212.469 159.765 212.779 159.168C213.099 158.56 213.259 157.883 213.259 157.136C213.259 156.315 213.013 155.675 212.523 155.216C212.043 154.747 211.365 154.512 210.491 154.512C209.797 154.512 209.173 154.683 208.619 155.024C208.064 155.365 207.627 155.84 207.307 156.448C206.997 157.045 206.843 157.717 206.843 158.464C206.843 159.285 207.083 159.925 207.563 160.384C208.053 160.843 208.736 161.072 209.611 161.072ZM225.826 157.76L228.018 162H226.69L224.834 158.224H223.026L222.258 162H221.122L221.874 158.224H220.098L216.77 162H215.346L219.266 157.632L217.298 153.584H218.498L220.242 157.296H222.066L222.802 153.584H223.954L223.202 157.296H224.994L228.226 153.584H229.506L225.826 157.76ZM237.028 161.008H238.34L237.748 164.032H236.676L237.076 162H229.54L229.14 164.032H228.068L228.66 161.008H229.092C229.658 160.976 230.132 160.549 230.516 159.728C230.9 158.907 231.274 157.781 231.636 156.352L232.308 153.584H238.5L237.028 161.008ZM232.66 156.512C232.351 157.739 232.052 158.72 231.764 159.456C231.476 160.192 231.119 160.709 230.692 161.008H235.892L237.172 154.592H233.124L232.66 156.512ZM244.187 162.08C243.419 162.08 242.747 161.936 242.171 161.648C241.595 161.349 241.147 160.933 240.827 160.4C240.517 159.856 240.363 159.227 240.363 158.512C240.363 157.563 240.571 156.709 240.987 155.952C241.403 155.195 241.979 154.603 242.715 154.176C243.461 153.739 244.299 153.52 245.227 153.52C246.4 153.52 247.328 153.84 248.01 154.48C248.704 155.12 249.051 155.984 249.051 157.072C249.051 158.021 248.843 158.88 248.427 159.648C248.011 160.405 247.429 161.003 246.683 161.44C245.947 161.867 245.115 162.08 244.187 162.08ZM244.266 161.072C244.96 161.072 245.584 160.907 246.139 160.576C246.693 160.235 247.125 159.765 247.435 159.168C247.755 158.56 247.915 157.883 247.915 157.136C247.915 156.315 247.669 155.675 247.179 155.216C246.699 154.747 246.021 154.512 245.147 154.512C244.453 154.512 243.829 154.683 243.275 155.024C242.72 155.365 242.283 155.84 241.963 156.448C241.653 157.045 241.499 157.717 241.499 158.464C241.499 159.285 241.739 159.925 242.219 160.384C242.709 160.843 243.392 161.072 244.266 161.072ZM261.715 153.584L260.035 162H258.995L260.323 155.344L255.795 160.976H255.283L253.011 155.28L251.667 162H250.627L252.307 153.584H253.443L255.795 159.648L260.643 153.584H261.715ZM272.036 153.584L265.892 163.088C265.38 163.877 264.9 164.421 264.452 164.72C264.004 165.029 263.471 165.184 262.852 165.184C262.447 165.184 262.063 165.115 261.7 164.976C261.338 164.848 261.055 164.667 260.852 164.432L261.46 163.6C261.844 164.005 262.34 164.208 262.948 164.208C263.322 164.208 263.658 164.107 263.956 163.904C264.255 163.701 264.564 163.349 264.884 162.848L265.476 161.952L263.38 153.584H264.532L266.276 160.752L270.868 153.584H272.036Z" fill="#333333"/>
</svg>
